<?xml version="1.0" standalone="no"?>
<!DOCTYPE svg PUBLIC "-//W3C//DTD SVG 1.1//EN" "http://www.w3.org/Graphics/SVG/1.1/DTD/svg11.dtd" >
<svg xmlns="http://www.w3.org/2000/svg">
<metadata>
This is a custom SVG webfont generated by Font Squirrel.
Copyright   : Copyright  2009 ParaType Ltd All rights reserved
Designer    : AKorolkova OUmpeleva VYefimov
Foundry     : ParaType Ltd
Foundry URL : httpwwwparatypecom
</metadata>
<defs>
<font id="webfontlR11fKsb" horiz-adv-x="1064" >
<font-face units-per-em="2048" ascent="1536" descent="-512" />
<missing-glyph horiz-adv-x="546" />
<glyph unicode="&#xfb01;" horiz-adv-x="1050" d="M301 0q-18 -113 -43 -192.5t-61.5 -132t-90 -77t-129.5 -24.5q-61 0 -113 9t-97 32l45 115q41 -14 74.5 -19.5t82.5 -5.5q78 0 117 81t61 214l148 893h-152l27 131h152q25 123 64.5 205t96 131t128 68.5t157.5 19.5q117 0 200 -24.5t126 -55.5l-66 -117 q-47 35 -120.5 50.5t-155.5 15.5q-72 0 -118 -20.5t-77 -58.5t-49.5 -92t-32.5 -122h512l-172 -1024h-153l147 893h-360z" />
<glyph unicode="&#xfb02;" horiz-adv-x="1118" d="M279 893h-152l27 131h151q23 121 59.5 204t90 134t124 73.5t162.5 22.5q39 0 87.5 -3t96.5 -8t90 -11t68 -15l-190 -1171q-6 -35 -6 -57q0 -80 67 -80q27 0 56.5 5t70.5 17l-8 -115q-18 -8 -42.5 -15t-51.5 -12t-52.5 -8t-43.5 -3q-74 0 -117 32.5t-43 112.5q0 8 1 19.5 t6 48t16 109.5l32 202l51 324l76 479q-29 6 -82 12t-106 6q-66 0 -109 -21.5t-71.5 -61.5t-46 -96t-31.5 -124h203l-27 -131h-203l-131 -893q-16 -113 -39.5 -192.5t-61.5 -132t-92.5 -77t-130.5 -24.5q-61 0 -113 9t-97 32l45 115q41 -14 74.5 -19.5t82.5 -5.5q78 0 117 81 t61 214z" />
<glyph unicode=" "  horiz-adv-x="546" />
<glyph unicode="&#x09;" horiz-adv-x="546" />
<glyph unicode="&#xa0;" horiz-adv-x="546" />
<glyph unicode="!" horiz-adv-x="559" d="M485 1434h164l-149 -711l-111 -361h-94l41 361zM178 94q0 55 33 87t86 32t86 -31.5t33 -87.5q0 -53 -33 -86t-86 -33t-86 33t-33 86z" />
<glyph unicode="&#x22;" horiz-adv-x="620" d="M473 1434h151l-143 -396h-92zM246 1434h151l-143 -396h-92z" />
<glyph unicode="#" d="M647 461h-217l-80 -342h-139l80 342h-160l29 131h164l63 268h-154l29 131h156l78 324h139l-78 -324h217l78 324h139l-78 -324h158l-33 -131h-155l-64 -268h150l-33 -131h-150l-79 -342h-140zM463 592h217l63 268h-217z" />
<glyph unicode="$" d="M406 -18q-98 14 -172 53t-109 69l72 125q33 -23 95 -57.5t144 -48.5l123 575q-45 33 -89 70t-78 80t-55.5 97t-21.5 124q0 90 30 158.5t84 117t128 76t162 33.5l41 184h131l-39 -182q88 -8 150.5 -30.5t105.5 -45.5l-70 -129q-35 16 -90 34t-127 26l-110 -514 q47 -35 93 -74t82 -88t58.5 -111.5t22.5 -144.5q0 -84 -29 -154.5t-84 -123t-136 -85t-183 -39.5q0 -2 -6.5 -29.5t-12.5 -62.5l-18 -90h-131zM799 365q0 92 -45 154.5t-109 115.5l-110 -516q123 8 193.5 74t70.5 172zM483 1094q0 -78 41 -132.5t101 -101.5l96 453 q-117 -8 -177.5 -68.5t-60.5 -150.5z" />
<glyph unicode="%" horiz-adv-x="1507" d="M123 1004q0 119 36 204.5t91 141t122.5 82t133.5 26.5q117 0 177 -63.5t60 -180.5q0 -111 -30.5 -194.5t-82.5 -141t-123 -87t-149 -29.5q-104 0 -169.5 63.5t-65.5 178.5zM264 1020q0 -66 30 -102.5t89 -36.5q43 0 83 22.5t70.5 64.5t48 102t17.5 136q0 72 -31.5 102.5 t-89.5 30.5q-43 0 -83 -25.5t-69.5 -68.5t-47 -101t-17.5 -124zM791 244q0 119 36 204.5t91 141t122.5 82t133.5 26.5q117 0 177 -63.5t60 -180.5q0 -111 -30.5 -194.5t-82.5 -141t-123 -87t-149 -29.5q-104 0 -169.5 63.5t-65.5 178.5zM932 260q0 -66 30 -102.5t89 -36.5 q43 0 83 22.5t70.5 64.5t48 102t17.5 136q0 72 -31.5 102.5t-89.5 30.5q-43 0 -83 -25.5t-69.5 -68.5t-47 -101t-17.5 -124zM1231 1460l102 -80l-1051 -1405l-102 80z" />
<glyph unicode="&#x26;" horiz-adv-x="1581" d="M178 303q0 96 40 184t103.5 164t143.5 136.5t160 101.5l-24.5 66.5t-18 59t-10.5 61.5t-3 73q0 55 20.5 110.5t63.5 99.5t107.5 71.5t154.5 27.5q72 0 116 -19.5t68.5 -48t33 -63.5t8.5 -65q0 -117 -89 -216.5t-243 -183.5q20 -59 48 -121.5t60.5 -124t69.5 -122 t74 -111.5q27 25 56.5 62.5t58 79.5t55.5 87l49 86l109 -59q-18 -35 -52 -83l-69 -98l-74 -97q-37 -46 -66 -76q66 -82 112 -125t97 -76l-118 -115q-47 27 -100.5 78t-104.5 119q-43 -37 -92.5 -71t-106.5 -60.5t-123.5 -43t-142.5 -16.5q-86 0 -154.5 25t-117 69t-74 103 t-25.5 131zM942 268q-43 59 -83 129t-74.5 139.5t-62.5 134t-46 113.5q-74 -47 -135.5 -100t-105.5 -109.5t-68.5 -116t-24.5 -120.5q0 -111 67.5 -166t190.5 -55q49 0 98.5 13t94.5 34.5t82.5 48t66.5 55.5zM723 1153q0 -31 2 -55.5t7 -46t12.5 -44t19.5 -53.5 q117 70 175 133.5t58 141.5q0 41 -23.5 69.5t-80.5 28.5q-47 0 -79 -14.5t-52.5 -40t-29.5 -57t-9 -62.5z" />
<glyph unicode="'" horiz-adv-x="413" d="M293 1434h151l-143 -396h-92z" />
<glyph unicode="(" horiz-adv-x="544" d="M297 -446q-111 162 -148.5 312t-37.5 284q0 211 47 401t127 356t184 304.5t219 242.5l76 -72q-115 -127 -206 -269t-156.5 -295.5t-98.5 -316.5t-33 -327q0 -131 28 -270.5t93 -278.5z" />
<glyph unicode=")" horiz-adv-x="544" d="M281 1454q47 -66 79.5 -141.5t53 -153.5t30 -154.5t9.5 -142.5q0 -209 -46.5 -400.5t-125 -358t-182 -306t-216.5 -243.5l-78 71q100 104 187.5 243.5t155 294t106.5 319.5t39 323q0 197 -25.5 334t-89.5 247z" />
<glyph unicode="*" horiz-adv-x="681" d="M330 1464l51 -86l37 -114l43 116l49 82l98 -53l-51 -88l-96 -98l139 24h98v-114h-92l-133 24l94 -98l49 -80l-98 -57l-51 86l-49 125l-37 -119l-51 -86l-103 57l54 86l88 86l-121 -24h-103v114h103l129 -24l-92 90l-56 94z" />
<glyph unicode="+" horiz-adv-x="983" d="M113 766h360v371h148v-371h360v-148h-360v-370h-148v370h-360v148z" />
<glyph unicode="," horiz-adv-x="380" d="M35 72q0 53 34.5 90t100.5 37q51 0 78.5 -35t27.5 -80q0 -63 -21.5 -123.5t-60 -112t-91 -91.5t-113.5 -62l-33 80q78 29 125 90t57 121q-8 -4 -20 -4q-29 0 -56.5 24.5t-27.5 65.5z" />
<glyph unicode="-" horiz-adv-x="700" d="M162 659h471l-35 -139h-469z" />
<glyph unicode="." horiz-adv-x="432" d="M72 94q0 55 32.5 87t85.5 32t86 -31.5t33 -87.5q0 -53 -32.5 -86t-86.5 -33q-53 0 -85.5 33t-32.5 86z" />
<glyph unicode="/" horiz-adv-x="688" d="M877 1458l116 -63l-1067 -1690l-116 66z" />
<glyph unicode="0" d="M117 449q0 215 46 400t127 320.5t193.5 212t247.5 76.5q174 0 268.5 -112.5t94.5 -358.5q0 -184 -40 -364.5t-117 -324.5t-189.5 -233.5t-260.5 -89.5q-104 0 -174.5 40t-114.5 106.5t-62.5 152t-18.5 175.5zM276 457q0 -104 20.5 -171t54.5 -103t76 -50t85 -14 q92 0 170 72.5t133 193.5t87 272.5t32 309.5q0 176 -49 262t-178 86q-82 0 -159 -63.5t-137.5 -178.5t-97.5 -272.5t-37 -343.5z" />
<glyph unicode="1" d="M160 152h272l213 991l45 121l-100 -97l-246 -161l-57 104l506 348h69l-278 -1306h266l-31 -152h-690z" />
<glyph unicode="2" d="M1055 1169q0 -106 -59.5 -231t-150.5 -251t-199.5 -245.5t-209.5 -216.5l-112 -88v-8l127 23h419l-28 -152h-776l12 59l132 128l172 170l183 196q92 102 167 205.5t119 200t44 178.5q0 39 -8 71.5t-26.5 56t-53.5 37t-90 13.5q-74 0 -143.5 -30t-147.5 -81l-43 123 q98 72 188.5 101.5t196.5 29.5q143 0 215 -81t72 -208z" />
<glyph unicode="3" d="M393 119q96 0 169 30.5t119 81t70.5 115t24.5 131.5q0 106 -53 163.5t-199 57.5h-147l12 60l373 454l106 91l-129 -21h-379l29 152h696l-12 -60l-411 -495l-80 -60v-4l67 14q57 0 108.5 -19t91.5 -59t63.5 -101.5t23.5 -147.5q0 -111 -36 -206t-106.5 -167t-177 -113 t-247.5 -41q-88 0 -159 14.5t-122 37.5l74 145q41 -23 98 -38t133 -15z" />
<glyph unicode="4" d="M1053 440h-232l-92 -440h-149l92 440h-602l14 68l850 948h104l-186 -876h229zM799 1030l55 168h-8l-96 -139l-355 -391l-112 -103l137 15h282z" />
<glyph unicode="5" d="M381 119q92 0 164.5 29.5t124 82t78 122t24.5 153.5q2 117 -62.5 174t-211.5 57l-164 -10l149 707h607l-33 -152h-461l-88 -410h14q12 0 29 2q18 0 39 3q96 0 161.5 -30t105.5 -77t57.5 -109.5t17.5 -125.5q0 -158 -51.5 -265.5t-134 -173t-186 -93.5t-210.5 -28 q-82 0 -144.5 12.5t-109.5 35.5l70 141q43 -18 91 -31.5t124 -13.5z" />
<glyph unicode="6" d="M989 500q0 -115 -33.5 -210t-98 -166t-156 -110t-203.5 -39q-68 0 -133.5 24t-117.5 76t-85 136t-33 207q0 205 78 387t203 320.5t282.5 226.5t317.5 106l8 -131q-113 -18 -223.5 -74.5t-203.5 -139.5t-165 -186.5t-109 -215.5q20 27 55.5 52t79.5 45.5t94 32t103 11.5 q147 0 243.5 -89t96.5 -263zM825 479q0 102 -51 168t-168 66q-47 0 -93 -13.5t-88 -36t-76 -52t-54 -62.5q-4 -27 -8 -58.5t-4 -56.5q0 -68 13 -126t42 -101t72 -67.5t104 -24.5q82 0 141.5 31.5t97.5 83t55 116.5t17 133z" />
<glyph unicode="7" d="M141 0l742 1200l106 100l-119 -18h-542l30 152h813l-10 -56l-852 -1378h-168z" />
<glyph unicode="8" d="M125 299q0 141 93 261t263 192q-33 27 -62.5 54.5t-53 63t-38 82.5t-14.5 115q0 94 36 167t96.5 123t140.5 75.5t166 25.5q68 0 127 -19.5t102 -57.5t67.5 -94t24.5 -130q0 -61 -23.5 -121.5t-65.5 -114t-98.5 -99.5t-123.5 -83q37 -31 70.5 -64.5t58 -73.5t40 -88 t15.5 -107q0 -86 -27.5 -164t-86 -137.5t-149.5 -94.5t-220 -35q-84 0 -146.5 26t-105.5 69t-64.5 102t-21.5 127zM786 375q0 57 -15 101t-39.5 80t-63.5 66.5t-84 59.5q-135 -63 -217 -155.5t-82 -209.5q0 -37 10 -73.5t33.5 -64t65.5 -44t104 -16.5q57 0 109 15.5t93 48 t63.5 81t22.5 111.5zM473 1075q0 -98 49 -158.5t135 -113.5q51 33 98.5 72.5t81 81.5t55 85t21.5 86q0 96 -47 141.5t-133 45.5q-53 0 -100 -15.5t-82 -46t-56.5 -76t-21.5 -102.5z" />
<glyph unicode="9" d="M217 956q0 119 37 212.5t103.5 158t155.5 98t194 33.5q76 0 143.5 -27.5t118.5 -83t79.5 -136.5t28.5 -187q0 -236 -83 -423t-212 -321.5t-284.5 -212t-298.5 -92.5l-9 131q129 29 239 84.5t198 132t151.5 172t100.5 203.5q-66 -57 -144 -86.5t-196 -29.5 q-55 0 -111.5 20.5t-104 65.5t-77 116.5t-29.5 171.5zM377 975q0 -74 22.5 -123t54 -78t69.5 -41t75 -12q94 0 179 37t130 90q2 12 5 35l7 45q3 23 4 44t1 32q0 143 -61.5 229t-182.5 86q-59 0 -113.5 -20.5t-95.5 -63.5t-67.5 -107.5t-26.5 -152.5z" />
<glyph unicode=":" horiz-adv-x="546" d="M354 920q0 55 33 86.5t86 31.5t86 -31.5t33 -86.5q0 -53 -33 -86t-86 -33t-86 33t-33 86zM182 94q0 55 33 87t86 32t86 -31.5t33 -87.5q0 -53 -33 -86t-86 -33t-86 33t-33 86z" />
<glyph unicode=";" horiz-adv-x="559" d="M188 72q0 53 35 90t101 37q51 0 78.5 -35t27.5 -80q0 -63 -21.5 -123.5t-60.5 -112t-91 -91.5t-114 -62l-32 80q78 29 125 90t57 121q-8 -4 -21 -4q-29 0 -56.5 24.5t-27.5 65.5zM367 920q0 55 32.5 86.5t85.5 31.5t86 -31.5t33 -86.5q0 -53 -32.5 -86t-86.5 -33 q-53 0 -85.5 33t-32.5 86z" />
<glyph unicode="&#x3c;" horiz-adv-x="983" d="M111 625v59l776 473l78 -127l-486 -297l-186 -78l184 -65l498 -295l-78 -123z" />
<glyph unicode="=" horiz-adv-x="983" d="M113 936h868v-148h-868v148zM113 596h868v-147h-868v147z" />
<glyph unicode="&#x3e;" horiz-adv-x="983" d="M979 705v-60l-776 -473l-78 125l485 297l187 78l-185 65l-497 295l78 125z" />
<glyph unicode="?" horiz-adv-x="847" d="M252 362q10 102 51 179t95.5 139.5t115.5 117t111.5 109t84 116.5t33.5 142q0 78 -42 120t-146 42q-72 0 -142.5 -27.5t-129.5 -62.5l-39 119q41 25 78.5 43t80.5 31.5t93.5 20.5t115.5 7q152 0 223.5 -69.5t71.5 -180.5t-34.5 -191.5t-88 -144t-118 -118t-123 -111.5 t-103.5 -123.5t-59 -157.5h-129zM164 94q0 55 32.5 87t86.5 32q53 0 85.5 -31.5t32.5 -87.5q0 -53 -32.5 -86t-85.5 -33t-86 33t-33 86z" />
<glyph unicode="@" horiz-adv-x="2179" d="M1507 1006h70l-104 -588q-10 -53 -15.5 -95t-5.5 -75q0 -51 17.5 -76t62.5 -25q70 0 137.5 37t121.5 104.5t88 164t34 215.5q0 158 -53.5 278.5t-149.5 203.5t-229 126t-293 43q-168 0 -313.5 -61.5t-254 -170t-171 -260t-62.5 -329.5q0 -182 56.5 -325.5t161 -242 t249.5 -149.5t324 -51q59 0 135 14t137 43l41 -131q-90 -39 -169 -52.5t-169 -13.5q-190 0 -356 57.5t-291 170t-196.5 279.5t-71.5 386q0 223 76.5 403.5t207.5 307.5t305 195.5t369 68.5q184 0 342 -54t274.5 -155.5t182 -248t65.5 -332.5q0 -131 -45 -251t-121.5 -210 t-179 -144.5t-217.5 -54.5q-86 0 -136 37t-50 137q0 18 2 40t6 46h-8q-31 -47 -70 -93t-87 -83t-102.5 -60.5t-113.5 -23.5q-49 0 -93 21.5t-77 62.5t-52.5 97.5t-19.5 127.5q0 131 43 258t116 225.5t170 159t206 60.5q74 0 120 -22.5t89 -55.5zM1393 805q-35 41 -71 58.5 t-89 17.5q-80 0 -149.5 -49.5t-120 -126t-80 -173t-29.5 -188.5q0 -80 33 -138.5t119 -58.5q41 0 85 29t87 75t82.5 103.5t70.5 116.5z" />
<glyph unicode="A" horiz-adv-x="1140" d="M827 397h-499l-222 -397h-174l828 1456h76l206 -1456h-157zM408 545h403l-59 436l-4 217h-3l-92 -221z" />
<glyph unicode="B" horiz-adv-x="1138" d="M1149 1128q0 -80 -24.5 -145t-69.5 -114.5t-105.5 -79t-130.5 -39.5v-9q45 -10 86 -33.5t72 -58.5t49 -81t18 -101q0 -143 -56 -236.5t-143 -148.5t-194.5 -76.5t-212.5 -21.5h-79q-46 0 -117 4q-123 12 -160 22l299 1411q78 12 175 20.5t210 8.5q76 0 145.5 -19.5 t121.5 -58.5t84 -100.5t32 -143.5zM483 131q72 0 141.5 17.5t125 54.5t89 96t33.5 145q0 63 -30.5 105.5t-79.5 67t-111.5 33.5t-126.5 9h-143l-109 -514q12 -4 38 -6t55.5 -4t61 -3t56.5 -1zM518 799q35 0 82 1t80 5q47 10 100.5 28.5t97.5 52.5t71.5 86t27.5 130 q0 57 -17.5 95t-51.5 61.5t-81 34t-104 10.5q-66 0 -123 -3.5t-86 -9.5l-104 -491h108z" />
<glyph unicode="C" horiz-adv-x="1114" d="M983 59q-70 -47 -147.5 -65.5t-180.5 -18.5q-121 0 -215 44t-159.5 123t-100.5 185.5t-35 233.5q0 231 68 400t178.5 280t248.5 164t280 53q117 0 190.5 -16.5t120.5 -38.5l-74 -150q-41 23 -107.5 38.5t-152.5 15.5q-115 0 -220.5 -50.5t-185 -144.5t-127 -229 t-47.5 -303q0 -98 26 -181.5t74 -143.5t118.5 -94t160.5 -34q96 0 160 21.5t115 50.5z" />
<glyph unicode="D" horiz-adv-x="1273" d="M387 1434q78 10 176.5 13t177.5 3q121 0 219.5 -32t167 -97.5t105.5 -165.5t37 -235q0 -90 -16.5 -196t-54.5 -209t-101.5 -199.5t-157.5 -171t-221 -118.5t-293 -44q-31 0 -81 1t-99 3q-143 8 -164 12zM729 1298q-25 0 -55 -1l-60 -2q-29 -1 -55.5 -3t-40.5 -4 l-242 -1147q8 -2 33 -3l52 -2l54 -2q26 -1 36 -1q178 0 300.5 74t199.5 186.5t112 247.5t35 256q0 92 -20.5 166t-64.5 126t-114 80.5t-170 28.5z" />
<glyph unicode="E" horiz-adv-x="1044" d="M387 1434h739l-30 -152h-580l-100 -469h530l-31 -151h-530l-109 -510h590l-32 -152h-590h-162z" />
<glyph unicode="F" horiz-adv-x="1007" d="M387 1434h739l-30 -152h-580l-104 -489h540l-30 -152h-541l-135 -641h-164z" />
<glyph unicode="G" horiz-adv-x="1193" d="M768 715h238h139l-133 -631q-145 -109 -361 -109q-102 0 -193 37t-161 110t-111 181.5t-41 253.5q0 252 74 424t189.5 277.5t255 152.5t270.5 47q117 0 193.5 -15.5t123.5 -37.5l-71 -150q-41 23 -110 37.5t-155 14.5q-119 0 -226 -46.5t-190 -138.5t-132.5 -228 t-49.5 -316q0 -92 22.5 -174t69 -143.5t115 -97.5t162.5 -36q66 0 113 13.5t94 37.5l84 400l-229 40z" />
<glyph unicode="H" horiz-adv-x="1308" d="M1034 657h-651l-137 -657h-164l303 1434h164l-131 -625h649l131 625h164l-303 -1434h-164z" />
<glyph unicode="I" horiz-adv-x="567" d="M430 1434h164l-303 -1434h-164z" />
<glyph unicode="J" horiz-adv-x="569" d="M455 1434h163l-237 -1119q-18 -82 -44 -144t-66 -105t-98 -64.5t-140 -21.5q-16 0 -38 2t-44.5 6t-43 10t-32.5 14l62 146q39 -27 110 -27q43 0 71.5 15.5t49 45t34 70.5t23.5 94z" />
<glyph unicode="K" horiz-adv-x="1179" d="M489 664h-104l-139 -664h-164l303 1434h164l-143 -668l81 29l588 639h203l-586 -623l-94 -63l80 -82l358 -666h-186z" />
<glyph unicode="L" horiz-adv-x="1007" d="M889 0h-647h-160l303 1434h164l-273 -1282h644z" />
<glyph unicode="M" horiz-adv-x="1544" d="M1333 963l64 215h-8l-115 -197l-492 -647h-49l-235 647l-31 197h-8l-17 -213l-204 -965h-156l305 1434h113l266 -734l31 -159h2l94 164l559 729h145l-305 -1434h-164z" />
<glyph unicode="N" horiz-adv-x="1314" d="M535 938l-70 211h-6l-25 -211l-198 -938h-154l309 1456h82l447 -958l67 -201h8l19 201l200 936h154l-309 -1457h-76z" />
<glyph unicode="O" horiz-adv-x="1333" d="M145 524q0 188 51.5 358.5t146.5 298.5t229.5 202.5t297.5 74.5q98 0 182.5 -29.5t144.5 -94t94 -167t34 -249.5q0 -193 -51 -364t-143.5 -300t-220.5 -204t-281 -75q-242 0 -363 140.5t-121 408.5zM317 526q0 -193 80 -298t236 -105q115 0 210 63.5t164.5 172t107.5 252 t38 302.5q0 119 -26.5 197t-70.5 122t-100.5 61.5t-113.5 17.5q-117 0 -213.5 -64.5t-165 -173t-107.5 -251t-39 -296.5z" />
<glyph unicode="P" horiz-adv-x="1089" d="M383 1419q78 18 164 24.5t170 6.5q94 0 175 -20.5t140.5 -65.5t93 -115.5t33.5 -169.5q0 -156 -56 -260t-147.5 -166.5t-206 -89t-231.5 -26.5h-32q-22 0 -46 1t-46.5 3t-33.5 4l-114 -545h-164zM682 1303q-47 0 -91 -3.5t-73 -9.5l-125 -596q8 -4 27.5 -5t41 -3t42.5 -2 h31q88 0 169.5 18.5t144 63.5t100.5 116.5t38 180.5q0 74 -24.5 121t-66.5 72.5t-97.5 36t-116.5 10.5z" />
<glyph unicode="Q" horiz-adv-x="1333" d="M1296 -350q-49 -14 -95 -19.5t-91 -5.5q-98 0 -186 21.5t-169 46.5l-156 46q-75 22 -146 21q-23 0 -46.5 -2t-46.5 -8l31 150q55 12 109 12q82 0 157 -22l155 -46q79 -25 163 -46t180 -21q84 0 174 20zM145 524q0 188 51.5 358.5t146.5 298.5t229.5 202.5t297.5 74.5 q98 0 182.5 -29.5t144.5 -94t94 -167t34 -249.5q0 -193 -51 -364t-143.5 -300t-220.5 -204t-281 -75q-242 0 -363 140.5t-121 408.5zM317 526q0 -193 80 -298t236 -105q115 0 210 63.5t164.5 172t107.5 252t38 302.5q0 119 -26.5 197t-70.5 122t-100.5 61.5t-113.5 17.5 q-117 0 -213.5 -64.5t-165 -173t-107.5 -251t-39 -296.5z" />
<glyph unicode="R" horiz-adv-x="1163" d="M383 1419q86 16 166 23.5t160 7.5q78 0 151.5 -19.5t130 -61.5t90 -109.5t33.5 -163.5q0 -180 -105.5 -300t-306.5 -155l74 -74l221 -567h-178l-246 618l-192 31l-135 -649h-164zM698 1303q-49 0 -98 -3.5t-82 -9.5l-112 -528h141q74 0 144.5 14.5t126.5 51t90 100 t34 159.5q0 37 -14.5 75t-43 70t-76 51.5t-110.5 19.5z" />
<glyph unicode="S" horiz-adv-x="1034" d="M795 369q0 74 -38 125t-95.5 93t-124 81t-124 90t-95 120.5t-37.5 172.5q0 109 39.5 186.5t108.5 126.5t162 71.5t197 22.5q119 0 213.5 -18.5t147.5 -46.5l-82 -146q-41 23 -122 43.5t-187 20.5q-135 0 -220 -61.5t-85 -178.5q0 -76 37.5 -128t95 -94t124 -81t124 -89 t95.5 -120t38 -170q0 -199 -143.5 -306.5t-411.5 -107.5q-137 0 -232.5 24t-144.5 52l84 150q47 -27 128 -52.5t191 -25.5q63 0 127 11t115 40t83 76t32 119z" />
<glyph unicode="T" horiz-adv-x="1081" d="M1233 1282h-424l-270 -1282h-164l270 1282h-420l31 152h1008z" />
<glyph unicode="U" horiz-adv-x="1265" d="M1174 1434h155l-201 -957q-29 -131 -71.5 -225t-107 -153.5t-154.5 -88t-209 -28.5q-113 0 -191 25.5t-126 71.5t-69.5 112.5t-21.5 146.5q0 84 23 190l190 906h164l-190 -908q-23 -90 -23 -164q0 -129 67.5 -179t200.5 -50q80 0 140.5 22.5t104.5 69.5t73.5 121 t52.5 178z" />
<glyph unicode="V" horiz-adv-x="1107" d="M518 453v-220h4l92 224l543 977h176l-823 -1457h-76l-221 1457h168z" />
<glyph unicode="W" horiz-adv-x="1613" d="M438 477l-18 -237h2l80 241l481 953h88l76 -957l-19 -237h2l82 241l437 953h168l-689 -1457h-90l-77 961l12 217h-8l-82 -219l-480 -959h-90l-80 1457h168z" />
<glyph unicode="X" horiz-adv-x="1204" d="M592 733l-266 701h178l176 -486l25 -117l69 117l391 486h199l-571 -695l290 -739h-178l-196 514l-29 123l-78 -123l-418 -514h-198z" />
<glyph unicode="Y" horiz-adv-x="1087" d="M494 569l-273 865h178l183 -627l6 -125h2l61 129l445 623h184l-623 -863l-120 -571h-164z" />
<glyph unicode="Z" d="M29 154l891 1046l100 82h-750l31 152h916l-31 -154l-897 -1053l-96 -75h751l-31 -152h-915z" />
<glyph unicode="[" horiz-adv-x="595" d="M436 1434h156h199l-31 -144h-199l-344 -1618h201l-31 -143h-201h-153z" />
<glyph unicode="\" horiz-adv-x="778" d="M920 -227l-136 -60l-700 1688l141 57z" />
<glyph unicode="]" horiz-adv-x="600" d="M223 -471h-153h-199l31 143h196l342 1618h-198l30 144h203h152z" />
<glyph unicode="^" horiz-adv-x="1024" d="M590 1456h59l346 -565h-170l-161 276l-48 142l-63 -144l-191 -274h-153z" />
<glyph unicode="_" horiz-adv-x="835" d="M-90 -281h835v-139h-835v139z" />
<glyph unicode="`" horiz-adv-x="487" d="M856 1169h-88l-166 263l8 43h187z" />
<glyph unicode="a" horiz-adv-x="997" d="M848 403q-16 -76 -22.5 -153.5t-6.5 -145.5v-58q0 -28 4 -50h-114l-29 178h-8q-25 -35 -61 -70.5t-79 -64.5t-92 -46.5t-104 -17.5q-244 0 -244 318q0 131 34 266t104.5 243.5t182 178.5t269.5 70q57 0 140 -13.5t155 -36.5zM383 106q49 0 94 24t85 58.5t71 74.5t49 75 l115 553q-61 29 -156 29q-94 0 -166 -55.5t-121 -144.5t-73.5 -201.5t-24.5 -225.5q0 -78 30.5 -132.5t96.5 -54.5z" />
<glyph unicode="b" horiz-adv-x="1067" d="M379 1434h153l-124 -586h8q29 37 65.5 72.5t81.5 64.5t96.5 46.5t110.5 17.5q121 0 176 -85t55 -214q0 -184 -51 -326.5t-135 -241t-191.5 -149.5t-220.5 -51q-111 0 -193.5 24.5t-121.5 56.5zM721 918q-51 0 -104.5 -26t-101.5 -67t-88 -91t-65 -97l-102 -481 q61 -43 174 -43q66 0 137.5 40t131 116.5t97.5 188t38 255.5q0 104 -32 154.5t-85 50.5z" />
<glyph unicode="c" horiz-adv-x="860" d="M748 88q-31 -27 -71 -47.5t-82 -34.5t-83 -22.5t-78 -8.5q-100 0 -164.5 32t-101.5 81t-51.5 106.5t-14.5 108.5q0 174 47.5 312.5t126 234.5t181 147.5t211.5 51.5q78 0 128 -14.5t91 -33.5l-58 -127q-35 20 -86 32t-110 12q-70 0 -136.5 -47.5t-117.5 -124t-82 -176 t-31 -203.5q0 -133 55.5 -197t149.5 -64q61 0 129 28t109 56z" />
<glyph unicode="d" horiz-adv-x="1042" d="M858 352q-16 -80 -24.5 -149.5t-8.5 -128.5q0 -23 1 -41.5t3 -36.5h-102l-29 178h-8q-25 -35 -61.5 -70.5t-81.5 -64.5t-95.5 -46.5t-103.5 -17.5q-113 0 -179.5 83t-66.5 264q0 121 35 248.5t102.5 232t169 172t234.5 67.5q37 0 63.5 -2t50 -6t44.5 -11l43 -15l90 426 h153zM406 106q43 0 88 24t84.5 58.5t71.5 74.5t50 75l115 532q-35 23 -79 32t-115 9q-82 0 -147.5 -50t-112 -134t-71 -192.5t-24.5 -223.5q0 -84 33 -144.5t107 -60.5z" />
<glyph unicode="e" horiz-adv-x="948" d="M797 100q-72 -61 -169.5 -93t-195.5 -32q-164 0 -247 94.5t-83 262.5t47.5 301t124 225t174 141.5t199.5 49.5q74 0 128 -20.5t89 -54.5t51.5 -78t16.5 -93q0 -145 -141.5 -228t-411.5 -83q-25 0 -51.5 1t-55.5 3q-8 -39 -12 -74t-4 -62q0 -113 51 -183.5t160 -70.5 q90 0 165 30t116 63zM623 918q-113 0 -196 -77t-126 -231q78 0 162 4t152.5 21.5t113.5 55.5t45 106q0 20 -7 41.5t-23.5 39t-46 29t-74.5 11.5z" />
<glyph unicode="f" horiz-adv-x="569" d="M449 893l-164 -963q-12 -76 -34 -140t-56.5 -112.5t-88 -76t-129.5 -27.5q-61 0 -113 9t-97 32l45 115q41 -14 74.5 -19.5t82.5 -5.5q78 0 117 75t66 236l143 877h-158l27 131h149l27 137q14 76 34.5 131.5t54.5 92t84 55t122 18.5q68 0 131 -13t115 -36l-45 -121 q-100 39 -191 39q-76 0 -110.5 -52t-53.5 -167l-14 -84h207l-25 -131h-200z" />
<glyph unicode="g" horiz-adv-x="1034" d="M788 -47q-43 -201 -148 -294t-280 -93q-133 0 -219 33.5t-131 58.5l68 115q16 -8 39.5 -21.5t57.5 -26t82 -20.5t114 -8q102 0 171.5 73.5t104.5 231.5l37 172h-8q-29 -39 -62.5 -73.5t-74.5 -62.5t-89.5 -44.5t-105.5 -16.5q-111 0 -178.5 80t-67.5 228q0 137 38 272 t113 242.5t184.5 175t252.5 67.5q111 0 186.5 -18t133.5 -45zM401 109q51 0 101.5 26.5t92.5 68.5t76 91t56 92l104 494q-33 18 -79.5 24t-96.5 6q-84 0 -155.5 -49t-123.5 -132t-83 -191.5t-31 -227.5q0 -94 38 -148t101 -54z" />
<glyph unicode="h" horiz-adv-x="1083" d="M698 0l123 584q12 61 20.5 109t8.5 85q0 76 -31 108t-96 32q-53 0 -108.5 -28t-106.5 -71t-91 -96t-61 -102l-129 -621h-153l303 1434h153l-127 -586h9q27 33 64.5 67.5t86.5 64.5t106.5 49.5t125.5 19.5q100 0 157.5 -48.5t57.5 -175.5q0 -86 -27 -207l-131 -618h-154z " />
<glyph unicode="i" horiz-adv-x="530" d="M328 1024h153l-217 -1024h-153zM360 1337q0 47 32 80t79 33t80 -33t33 -80t-33 -78.5t-80 -31.5t-79 31.5t-32 78.5z" />
<glyph unicode="j" horiz-adv-x="509" d="M303 1024h154l-230 -1079q-41 -190 -127 -280.5t-233 -90.5q-16 0 -31.5 1t-32.5 3l31 133q61 0 101 17.5t68 54.5t47.5 92t35.5 131zM336 1337q0 47 31.5 80t78.5 33t80 -33t33 -80t-32.5 -78.5t-80.5 -31.5q-47 0 -78.5 31.5t-31.5 78.5z" />
<glyph unicode="k" horiz-adv-x="919" d="M434 461h-110l-97 -461h-153l303 1434h153l-186 -873l88 23l369 440h188l-364 -416l-97 -67l78 -80l230 -461h-170z" />
<glyph unicode="l" horiz-adv-x="552" d="M272 244q-6 -35 -6 -58q0 -39 13.5 -56t35.5 -17q41 0 69 5t67 19v-117q-18 -10 -43 -17t-50.5 -11t-51 -7t-46.5 -3q-72 0 -115 32.5t-43 120.5q0 41 13 101l254 1198h153z" />
<glyph unicode="m" horiz-adv-x="1562" d="M625 0l123 580q16 72 24 127t8 96q0 55 -20.5 85t-69.5 30q-51 0 -100 -27t-92 -67t-79 -85t-57 -82l-135 -657h-153l217 1024h108l-12 -176h8l71 68q38 36 84 65t100.5 48.5t119.5 19.5q92 0 124 -57.5t32 -160.5q31 39 71.5 78t89 70t101.5 50.5t106 19.5 q94 0 144.5 -44t50.5 -163q0 -86 -31 -228l-129 -614h-153l129 616q12 59 19 106.5t7 82.5q0 55 -22.5 84t-75.5 29q-43 0 -91 -28t-93 -69t-81 -88t-57 -88l-133 -645h-153z" />
<glyph unicode="n" horiz-adv-x="1069" d="M678 0l137 647q8 37 14.5 73t6.5 64q0 59 -28 96.5t-103 37.5q-53 0 -104.5 -25t-96.5 -62.5t-81 -84t-61 -91.5l-135 -655h-153l217 1024h106l-8 -176h8q27 33 64 68.5t83 64.5t103.5 48.5t126.5 19.5q102 0 161.5 -49.5t59.5 -172.5q0 -61 -18 -147l-146 -680h-153z " />
<glyph unicode="o" horiz-adv-x="1019" d="M102 319q0 162 42 296.5t116 230.5t171 149.5t208 53.5q86 0 146.5 -28t98.5 -76t54 -110.5t16 -129.5q0 -154 -40 -287t-110.5 -231.5t-164.5 -155t-205 -56.5q-92 0 -154.5 30t-102.5 79t-57.5 110.5t-17.5 124.5zM266 356q0 -121 45 -185.5t144 -64.5q68 0 128 48.5 t106 130.5t74 187.5t28 219.5q0 104 -38 165t-145 61q-68 0 -129 -46.5t-109 -124t-76 -179t-28 -212.5z" />
<glyph unicode="p" horiz-adv-x="1040" d="M295 1024h106l-10 -176h8q29 37 65 72.5t79 64.5t94 46.5t111 17.5q49 0 92 -15.5t75.5 -51.5t52 -95.5t19.5 -145.5q0 -180 -49 -322.5t-129 -240.5t-179.5 -150.5t-197.5 -52.5q-72 0 -126 13.5t-73 27.5l-90 -426h-153zM690 918q-55 0 -105 -29t-92 -71t-75 -90 t-53 -89l-101 -485q35 -27 72 -37.5t80 -10.5q80 0 152.5 44.5t130 126t91 196.5t33.5 256q0 82 -33.5 135.5t-99.5 53.5z" />
<glyph unicode="q" horiz-adv-x="1030" d="M696 -410h-153l125 582h-9q-25 -33 -56.5 -67.5t-71 -63.5t-89 -47.5t-104.5 -18.5q-66 0 -113 24t-75.5 65.5t-42 99t-13.5 125.5q0 137 45 272t125 241.5t190.5 173t243.5 66.5q43 0 87 -6t83 -15t72 -20.5t51 -23.5zM381 106q51 0 103.5 31t97.5 77t79.5 98.5 t55.5 95.5l102 473q-33 18 -79 24t-81 6q-80 0 -152.5 -51t-127.5 -136t-88 -194.5t-33 -226.5q0 -98 32 -147.5t91 -49.5z" />
<glyph unicode="r" horiz-adv-x="669" d="M741 889q-18 4 -37.5 6t-35.5 2q-104 0 -180 -65.5t-119 -159.5l-142 -672h-153l217 1024h106v-176h9q25 39 53 72.5t63 60.5t76 42t90 15q45 0 94 -14z" />
<glyph unicode="s" horiz-adv-x="815" d="M530 289q0 53 -26.5 90t-67.5 66.5t-88 58t-88 64.5t-67.5 84t-26.5 120q0 57 27.5 107.5t75.5 88.5t115 59.5t144 21.5q109 0 168.5 -14.5t106.5 -41.5l-51 -123q-82 47 -224 48q-86 0 -142 -36t-56 -110q0 -43 26.5 -74.5t67.5 -60.5t88 -58.5t88 -67.5t67.5 -89 t26.5 -121q0 -160 -107.5 -243t-287.5 -83q-92 0 -169 18.5t-124 47.5l57 129q41 -27 108 -45.5t138 -18.5q100 0 160.5 44.5t60.5 138.5z" />
<glyph unicode="t" horiz-adv-x="641" d="M145 1024h152l43 203l164 47l-53 -250h268l-31 -131h-266l-129 -619l-7 -45t-3 -36q0 -49 22.5 -68t67.5 -19q49 0 90 12.5t82 37.5v-125q-43 -25 -110.5 -40.5t-129.5 -15.5q-186 0 -186 170q0 35 10 86l139 662h-153z" />
<glyph unicode="u" horiz-adv-x="1046" d="M436 1024l-143 -682q-12 -55 -12 -102q0 -57 22.5 -95.5t81.5 -38.5q49 0 99.5 25t96.5 63.5t83.5 86t62.5 92.5l137 651h154l-129 -608q-8 -35 -16.5 -85t-15.5 -105.5t-11 -107.5t-4 -91v-27h-121v195h-8q-31 -41 -71 -80t-88 -70t-103.5 -50.5t-116.5 -19.5 q-45 0 -83 10.5t-66.5 36t-45 67.5t-16.5 108q0 72 20 161l140 666h153z" />
<glyph unicode="v" horiz-adv-x="915" d="M393 424l19 -195h4l88 199l346 596h176l-639 -1047h-65l-199 1047h164z" />
<glyph unicode="w" horiz-adv-x="1402" d="M874 1024l97 -598l8 -197h2l80 201l301 594h156l-551 -1047h-78l-109 676l-2 168h-4l-76 -170l-389 -674h-73l-119 1047h155l64 -596l-4 -199h8l82 203l338 592h114z" />
<glyph unicode="x" horiz-adv-x="991" d="M416 524l-219 500h174l121 -283l36 -116l84 116l248 283h187l-435 -492l244 -532h-174l-139 311l-41 123l-86 -123l-275 -311h-186z" />
<glyph unicode="y" horiz-adv-x="899" d="M397 360l11 -196h10l78 198l340 662h163l-483 -913l-105 -196q-52 -95 -107.5 -170t-115 -120t-122.5 -45q-35 0 -60.5 4t-46.5 15l49 141q23 -8 49 -8q59 0 119 61.5t133 206.5l-176 1024h164z" />
<glyph unicode="z" horiz-adv-x="878" d="M23 141l575 654l113 88h-529l31 141h690l-31 -141l-581 -660l-111 -82h535l-29 -141h-690z" />
<glyph unicode="{" horiz-adv-x="667" d="M473 -471h-166q-72 0 -110.5 40t-36.5 114q0 29 8 59l102 487q8 37 9 66q4 66 -30 91.5t-95 25.5l30 139q152 0 191 174l106 496q20 96 78.5 155.5t151.5 59.5h166l-31 -144h-98q-53 0 -83 -27.5t-44 -93.5l-101 -485q-18 -90 -69.5 -137t-106.5 -57l-2 -13 q41 -6 70.5 -47t27.5 -106q0 -10 -3 -24.5t-12 -65t-32 -153.5l-63 -290q-2 -12 -4 -22.5t-2 -20.5q-2 -78 86 -78h96z" />
<glyph unicode="|" horiz-adv-x="487" d="M236 1434h141v-1700h-141v1700z" />
<glyph unicode="}" horiz-adv-x="677" d="M475 735q-8 -35 -8 -61q-2 -68 31.5 -94.5t95.5 -26.5l-33 -139q-74 0 -123 -43t-69 -131q0 -2 -5.5 -24.5t-12.5 -57.5l-16 -80l-18 -90l-51 -244q-20 -96 -79.5 -155.5t-151.5 -59.5h-164l33 143h96q51 0 81 28t42 93l102 486q20 90 70.5 137t107.5 57l5 12 q-45 6 -75 47t-28 107q0 10 2 24l4 25l105 483q4 12 5 22.5t1 20.5q2 78 -84 78h-94l28 144h166q72 0 112 -39t36 -115q0 -29 -8 -59z" />
<glyph unicode="~" horiz-adv-x="983" d="M94 739q88 68 160 94.5t131 26.5q57 0 106.5 -17.5t94.5 -39t88 -38.5t90 -17q39 0 80 16t88 57l69 -125q-78 -53 -140 -74.5t-113 -21.5q-55 0 -101.5 17.5t-88.5 39t-84 39t-91 17.5q-47 0 -100.5 -21.5t-118.5 -75.5z" />
<glyph unicode="&#xa1;" horiz-adv-x="593" d="M197 -410h-160l151 711l109 361h96l-45 -361zM268 928q0 55 33 87t86 32t86 -32t33 -87q0 -53 -33 -86t-86 -33t-86 33t-33 86z" />
<glyph unicode="&#xa2;" d="M858 88q-51 -43 -120.5 -69.5t-135.5 -36.5l-39 -187h-135l39 185q-78 12 -129 46.5t-80 81t-40 97.5t-11 98q0 158 39 286t105.5 223t154.5 153.5t186 74.5l41 189h137l-41 -182q53 -6 93.5 -18.5t74.5 -27.5l-57 -127q-27 16 -65.5 26.5t-86.5 14.5l-170 -804 q55 8 110.5 32.5t90.5 46.5zM371 367q0 -113 37.5 -175.5t105.5 -78.5l168 796q-61 -16 -117.5 -66t-99.5 -124t-68.5 -165t-25.5 -187z" />
<glyph unicode="&#xa3;" d="M242 813h133q-8 37 -12.5 79t-4.5 95q0 117 41 206t110 147.5t161 88t196 29.5q82 0 155 -17.5t120 -43.5l-56 -131q-41 23 -106.5 37t-147.5 14q-63 0 -119.5 -21.5t-98.5 -63.5t-66.5 -102.5t-24.5 -138.5q0 -63 5 -104t14 -74h317l-31 -131h-256q4 -25 6.5 -55.5 t2.5 -71.5q0 -68 -13.5 -125t-33 -103t-44 -80t-47.5 -54l-92 -70l-2 -10l127 28h500l-31 -141h-868l30 145q61 0 118 31t100 83t68.5 124t25.5 158q0 41 -4 74.5t-11 66.5h-192z" />
<glyph unicode="&#xa4;" d="M186 1221l160 -158l43 -72q86 68 211 68q121 0 211 -68l45 72l160 158l98 -101l-156 -159l-71 -46q66 -88 65 -208q0 -123 -65 -211l71 -43l156 -160l-98 -98l-160 157l-43 68q-88 -63 -213 -64q-127 0 -211 64l-43 -68l-160 -157l-100 98l158 160l69 45q-63 86 -63 209 q0 59 17.5 112t45.5 99l-69 43l-158 159zM391 707q0 -92 58.5 -153.5t150.5 -61.5t151.5 61t59.5 154q0 92 -59.5 154.5t-151.5 62.5t-150.5 -62.5t-58.5 -154.5z" />
<glyph unicode="&#xa5;" d="M264 672h182l-235 762h178l189 -627l6 -125h2l61 129l436 623h185l-551 -762h182l-27 -123h-233l-27 -129h234l-27 -123h-233l-62 -297h-164l62 297h-238l25 123h240l26 129h-237z" />
<glyph unicode="&#xa6;" horiz-adv-x="487" d="M236 422h141v-688h-141v688zM377 745h-141v689h141v-689z" />
<glyph unicode="&#xa7;" horiz-adv-x="968" d="M180 690q0 90 44 153.5t114 110.5l94 37q-47 39 -66.5 82t-19.5 94q0 61 28.5 114.5t78 92.5t116 61.5t144.5 22.5q106 0 170.5 -18.5t111.5 -46.5l-59 -125q-41 23 -101.5 37t-132.5 14q-88 0 -142 -44t-54 -114q0 -43 32.5 -69.5t78 -47t99.5 -41t99 -52t76 -79 t31 -122.5q0 -88 -47.5 -158t-112.5 -111l-111 -37q47 -33 72 -75.5t25 -114.5q0 -70 -30 -122t-79 -87t-114.5 -52.5t-139.5 -17.5q-106 0 -173 22.5t-114 51.5l66 125q41 -23 99.5 -41t131.5 -18q82 0 137.5 31.5t55.5 107.5q0 45 -29 75.5t-74 54.5t-99 48.5t-99 57 t-76 79.5t-31 121zM758 727q0 45 -18.5 73.5t-51.5 50t-76 38.5l-92 37q-31 -12 -62.5 -32t-57 -45.5t-41 -59t-15.5 -76.5t18.5 -74t49 -53.5t72.5 -39.5l89 -36q31 12 63 31.5t59.5 46t45 61.5t17.5 78z" />
<glyph unicode="&#xa8;" horiz-adv-x="501" d="M399 1337q0 45 26 75t69 30t69.5 -30t26.5 -75q0 -41 -26.5 -70.5t-69.5 -29.5t-69 29.5t-26 70.5zM774 1339q0 43 25.5 73t68.5 30q45 0 71 -30t26 -73t-26 -72.5t-71 -29.5q-43 0 -68.5 29.5t-25.5 72.5z" />
<glyph unicode="&#xa9;" horiz-adv-x="1650" d="M158 594q0 170 57 304t155.5 226.5t229.5 141.5t279 49q147 0 278 -49t229.5 -141.5t155.5 -226.5t57 -304t-57 -304t-155.5 -226.5t-229.5 -141.5t-278 -49q-164 0 -297 49t-227.5 141.5t-145.5 226.5t-51 304zM301 594q0 -141 45 -251t123 -183.5t183.5 -112.5 t226.5 -39t226 39t183 112.5t123 183.5t45 251t-45 250.5t-123 183.5t-183.5 113t-225.5 39q-121 0 -226.5 -39t-183.5 -113t-123 -183.5t-45 -250.5zM1116 260q-47 -27 -105.5 -41t-136.5 -14q-166 0 -252.5 104.5t-86.5 284.5q0 186 93 287.5t246 101.5q37 0 67 -4 t55.5 -11t50.5 -18l55 -22l-53 -125q-45 23 -86 31t-70 8q-86 0 -140.5 -53.5t-54.5 -194.5q0 -119 53.5 -183.5t157.5 -66.5q96 0 164 37z" />
<glyph unicode="&#xaa;" horiz-adv-x="780" d="M254 1386q53 27 126 45.5t171 18.5q96 0 146.5 -43t50.5 -109q0 -51 -15.5 -117.5t-35 -138t-35 -140t-15.5 -124.5h-102l-6 94h-7q-35 -35 -88 -68.5t-137 -33.5q-92 0 -138 52t-46 124q0 63 29.5 108.5t79 75t114 43t135.5 13.5q29 0 57.5 -2t57.5 -6q12 39 12 69 q0 88 -116 88q-78 0 -132.5 -15t-95.5 -34zM350 885q84 0 132 38t73 74l16 86q-20 2 -40 2h-42q-43 0 -82.5 -5t-71.5 -18t-51.5 -38t-19.5 -63q0 -33 20.5 -54.5t65.5 -21.5z" />
<glyph unicode="&#xab;" horiz-adv-x="929" d="M434 530l406 467l90 -94l-252 -295l-115 -76l70 -75l137 -289l-111 -86zM78 530l409 471l93 -96l-254 -297l-117 -76l72 -75l137 -291l-111 -88z" />
<glyph unicode="&#xac;" horiz-adv-x="1034" d="M137 803h869v-393h-144v245h-725v148z" />
<glyph unicode="&#xad;" horiz-adv-x="700" d="M162 659h471l-35 -139h-469z" />
<glyph unicode="&#xae;" horiz-adv-x="1433" d="M281 924q0 131 43 232t117.5 170t173 104.5t208.5 35.5q113 0 212.5 -35.5t173 -104.5t115.5 -170t42 -232t-43 -232.5t-118 -170t-173 -104.5t-209 -36q-115 0 -213 36t-171.5 104.5t-115.5 170t-42 232.5zM410 924q0 -106 32.5 -185.5t89 -131.5t132 -78.5t159.5 -26.5 q88 0 164 25.5t131.5 77.5t87 131t31.5 188q0 106 -33 185t-89 131t-131 79t-161 27q-90 0 -165.5 -27t-131 -79t-86 -131t-30.5 -185zM612 1190q33 10 92.5 15t112.5 5q86 0 147.5 -35.5t61.5 -123.5q0 -66 -42 -101t-103 -39l57 -28l152 -224h-125l-148 213l-98 31v-244 h-107v531zM795 1118q-23 0 -43.5 -1t-32.5 -7v-145h69q59 0 92 18t33 64q1 71 -118 71z" />
<glyph unicode="&#xaf;" horiz-adv-x="641" d="M664 1317h575l-27 -127h-577z" />
<glyph unicode="&#xb0;" horiz-adv-x="870" d="M289 1169q0 63 22.5 116.5t61.5 91.5t92 59.5t113 21.5q59 0 112 -19.5t92 -57.5t61.5 -91t22.5 -121t-22.5 -121t-61.5 -90.5t-92 -57t-112 -19.5t-112.5 19.5t-92.5 57t-61.5 90.5t-22.5 121zM420 1169q0 -78 47 -121.5t111 -43.5q63 0 110 44t47 121q0 78 -47 122 t-110 44t-110.5 -44t-47.5 -122z" />
<glyph unicode="&#xb1;" horiz-adv-x="983" d="M113 1010h360v370h148v-370h360v-148h-360v-246h-148v246h-360v148zM113 512h868v-147h-868v147z" />
<glyph unicode="&#xb2;" horiz-adv-x="772" d="M852 1460q0 -66 -29.5 -132t-80 -133t-116 -129.5t-134.5 -119.5l-103 -63v-6l117 32h268l-28 -131h-564l15 68l89 66q52 40 109.5 89.5t112.5 104.5t100 111.5t73 109.5t28 100q0 94 -113 95q-53 0 -106.5 -19.5t-94.5 -44.5l-18 117q57 37 129 57.5t141 20.5 q37 0 74 -9.5t65.5 -32t47 -59.5t18.5 -92z" />
<glyph unicode="&#xb3;" horiz-adv-x="772" d="M457 887q115 0 169 56t54 134q0 55 -32.5 83t-131.5 28h-106l8 47l237 240l78 53l-98 -13h-248l27 123h497l-14 -67l-254 -254l-53 -37l-2 -4l45 6q78 0 132 -50t54 -136q0 -66 -20.5 -126.5t-65.5 -106.5t-117.5 -72.5t-179.5 -26.5q-70 0 -118 12t-82 27l53 123 q29 -16 72 -27.5t96 -11.5z" />
<glyph unicode="&#xb4;" horiz-adv-x="487" d="M870 1475h172l-10 -43l-252 -263h-90z" />
<glyph unicode="&#xb5;" horiz-adv-x="1075" d="M428 1024l-78 -377l-43 -211q-14 -74 -17 -100.5t-3 -42.5q0 -176 164 -176q109 0 196.5 67.5t140.5 175.5l142 664h153l-147 -690q-16 -84 -28.5 -169t-12.5 -165h-104l-25 152h-8q-55 -72 -146.5 -124.5t-208.5 -52.5q-92 0 -136 42t-60 102h-10l-15 -256l-57 -273 h-154l303 1434h154z" />
<glyph unicode="&#x3bc;" horiz-adv-x="1075" d="M428 1024l-78 -377l-43 -211q-14 -74 -17 -100.5t-3 -42.5q0 -176 164 -176q109 0 196.5 67.5t140.5 175.5l142 664h153l-147 -690q-16 -84 -28.5 -169t-12.5 -165h-104l-25 152h-8q-55 -72 -146.5 -124.5t-208.5 -52.5q-92 0 -136 42t-60 102h-10l-15 -256l-57 -273 h-154l303 1434h154z" />
<glyph unicode="&#xb6;" horiz-adv-x="1013" d="M774 1434h141v-1700h-141v1700zM455 635q-66 0 -121 33.5t-95 90t-62.5 129.5t-22.5 148q0 76 23.5 147.5t68.5 127t110.5 89.5t147.5 34h92v-1700h-141v901z" />
<glyph unicode="&#xb7;" horiz-adv-x="546" d="M201 606q0 55 32.5 87t85.5 32t86 -31.5t33 -87.5q0 -53 -32.5 -86t-86.5 -33q-53 0 -85.5 33t-32.5 86z" />
<glyph unicode="&#xb8;" horiz-adv-x="743" d="M725 -88q55 -6 91 -42t36 -101q0 -86 -64.5 -141.5t-193.5 -55.5q-25 0 -52.5 3t-56.5 7l35 80q10 -2 22 -2h21q43 0 72 8t45 19.5t22.5 26t6.5 26.5q0 39 -43 57.5t-115 18.5l133 184h109z" />
<glyph unicode="&#xb9;" horiz-adv-x="772" d="M264 903h207l111 520l28 74l-63 -57l-166 -92l-43 94l348 211h80l-160 -750h185l-27 -125h-526z" />
<glyph unicode="&#xba;" horiz-adv-x="776" d="M123 1004q0 119 36 204.5t91 141t122.5 82t133.5 26.5q117 0 177 -63.5t60 -180.5q0 -111 -30.5 -194.5t-82.5 -141t-123 -87t-149 -29.5q-104 0 -169.5 63.5t-65.5 178.5zM264 1020q0 -66 30 -102.5t89 -36.5q43 0 83 22.5t70.5 64.5t48 102t17.5 136q0 72 -31.5 102.5 t-89.5 30.5q-43 0 -83 -25.5t-69.5 -68.5t-47 -101t-17.5 -124z" />
<glyph unicode="&#xbb;" horiz-adv-x="929" d="M573 549l-405 -467l-90 92l252 295l114 78l-71 88l-140 289l117 73zM930 549l-410 -471l-92 94l254 297l115 78l-72 90l-141 291l118 73z" />
<glyph unicode="&#xbc;" horiz-adv-x="1632" d="M1309 1460l107 -74l-998 -1411l-106 74zM1524 197h-160l-43 -197h-131l43 197h-395l14 76l569 618h88l-121 -573h162zM1313 580l34 100h-4l-63 -94l-197 -215l-78 -64l101 11h151zM524 1219l31 73l-64 -57l-165 -92l-50 100l355 205h80l-187 -875h-135z" />
<glyph unicode="&#xbd;" horiz-adv-x="1656" d="M1309 1460l107 -74l-998 -1411l-106 74zM1606 682q0 -66 -29.5 -132t-80 -133t-116 -129.5t-134.5 -119.5l-103 -63v-6l117 32h268l-28 -131h-564l15 68l89 66q52 40 109.5 89.5t112.5 104.5t100 111.5t73 109.5t28 100q0 94 -113 95q-53 0 -106.5 -19.5t-94.5 -44.5 l-18 117q57 37 129 57.5t141 20.5q37 0 74 -9.5t65.5 -32t47 -59.5t18.5 -92zM524 1219l31 73l-64 -57l-165 -92l-50 100l355 205h80l-187 -875h-135z" />
<glyph unicode="&#xbe;" horiz-adv-x="1705" d="M1382 1460l107 -74l-998 -1411l-106 74zM1598 197h-160l-43 -197h-131l43 197h-395l14 76l569 618h88l-121 -573h162zM1387 580l34 100h-4l-63 -94l-197 -215l-78 -64l101 11h151zM428 682q115 0 169 56t54 134q0 55 -32.5 83t-131.5 28h-106l8 47l237 240l78 53l-98 -13 h-248l27 123h497l-14 -67l-254 -254l-53 -37l-2 -4l45 6q78 0 132 -50t54 -136q0 -66 -20.5 -126.5t-65.5 -106.5t-117.5 -72.5t-179.5 -26.5q-70 0 -118 12t-82 27l53 123q29 -16 72 -27.5t96 -11.5z" />
<glyph unicode="&#xbf;" horiz-adv-x="845" d="M627 662q-10 -102 -51 -179t-96.5 -139.5t-116 -116t-110.5 -109t-84 -116.5t-34 -141t42 -122t147 -42q72 0 141.5 27.5t128.5 62.5l41 -119q-41 -25 -80 -43t-82 -31.5t-93 -20.5t-114 -7q-152 0 -223.5 69.5t-71.5 180.5t35 191.5t88 144t117.5 118t123 111.5 t102.5 123.5t59 157.5h131zM479 930q0 55 33 87t86 32t86 -32t33 -87q0 -53 -33 -86t-86 -33t-86 33t-33 86z" />
<glyph unicode="&#xc0;" horiz-adv-x="1140" d="M827 397h-499l-222 -397h-174l828 1456h76l206 -1456h-157zM408 545h403l-59 436l-4 217h-3l-92 -221zM934 1540h-129l-265 199l9 43h206z" />
<glyph unicode="&#xc1;" horiz-adv-x="1140" d="M827 397h-499l-222 -397h-174l828 1456h76l206 -1456h-157zM408 545h403l-59 436l-4 217h-3l-92 -221zM956 1782h237l-10 -43l-358 -199h-150z" />
<glyph unicode="&#xc2;" horiz-adv-x="1140" d="M827 397h-499l-222 -397h-174l828 1456h76l206 -1456h-157zM408 545h403l-59 436l-4 217h-3l-92 -221zM804 1782h99l203 -209l-9 -43h-139l-94 100l-21 72l-51 -70l-145 -102h-154l10 45z" />
<glyph unicode="&#xc3;" horiz-adv-x="1140" d="M827 397h-499l-222 -397h-174l828 1456h76l206 -1456h-157zM408 545h403l-59 436l-4 217h-3l-92 -221zM526 1608q72 66 128.5 89t103.5 23q37 0 68.5 -10t61.5 -23.5t58.5 -23.5t59.5 -10q51 0 108 43l33 -88q-66 -53 -116 -71.5t-91 -18.5q-37 0 -67.5 10t-60.5 23.5 t-58.5 23.5t-59.5 10t-64.5 -13t-74.5 -48z" />
<glyph unicode="&#xc4;" horiz-adv-x="1140" d="M827 397h-499l-222 -397h-174l828 1456h76l206 -1456h-157zM408 545h403l-59 436l-4 217h-3l-92 -221zM539 1626q0 41 28.5 68.5t75.5 27.5t75 -27.5t28 -68.5t-28 -67.5t-75 -26.5t-75.5 26.5t-28.5 67.5zM914 1626q0 41 27.5 68.5t74.5 27.5t75.5 -27.5t28.5 -68.5 t-28.5 -67.5t-75.5 -26.5t-74.5 26.5t-27.5 67.5z" />
<glyph unicode="&#xc5;" horiz-adv-x="1140" d="M606 1573q0 76 51.5 125t163.5 49q102 0 159.5 -44t57.5 -130q0 -72 -49 -118t-147 -52l200 -1403h-157l-58 397h-499l-222 -397h-174l803 1413q-129 35 -129 160zM408 543h403l-59 438l-4 217h-3l-92 -221zM731 1573q0 -35 21.5 -58.5t68.5 -23.5q45 0 68.5 22.5 t23.5 59.5q0 39 -22.5 62.5t-69.5 23.5q-45 0 -67.5 -23.5t-22.5 -62.5z" />
<glyph unicode="&#xc6;" horiz-adv-x="1648" d="M940 1227l-104 -207l-357 -469h322l145 676h-6zM772 403h-407l-304 -403h-188l1108 1434h750l-31 -150h-580l-100 -471h530l-32 -149h-529l-110 -514h589l-30 -150h-588h-164z" />
<glyph unicode="&#xc7;" horiz-adv-x="1114" d="M983 59q-66 -45 -140.5 -63.5t-170.5 -20.5l-49 -63q55 -6 91 -42t36 -101q0 -86 -64.5 -141.5t-193.5 -55.5q-25 0 -52.5 3t-56.5 7l35 80q10 -2 21 -2h22q43 0 71.5 8t45 19.5t22.5 26t6 26.5q0 39 -43 57.5t-114 18.5l118 166q-100 14 -178 64t-132 126t-83 175 t-29 214q0 231 68 400t178.5 280t248.5 164t280 53q117 0 190.5 -16.5t120.5 -38.5l-74 -150q-41 23 -107.5 38.5t-152.5 15.5q-115 0 -220.5 -50.5t-185 -144.5t-127 -229t-47.5 -303q0 -98 26 -181.5t74 -143.5t118.5 -94t160.5 -34q96 0 160 21.5t115 50.5z" />
<glyph unicode="&#xc8;" horiz-adv-x="1044" d="M387 1434h739l-30 -152h-580l-100 -469h530l-31 -151h-530l-109 -510h590l-32 -152h-590h-162zM867 1540h-129l-265 199l9 43h206z" />
<glyph unicode="&#xc9;" horiz-adv-x="1044" d="M387 1434h739l-30 -152h-580l-100 -469h530l-31 -151h-530l-109 -510h590l-32 -152h-590h-162zM924 1782h237l-10 -43l-358 -199h-150z" />
<glyph unicode="&#xca;" horiz-adv-x="1044" d="M387 1434h739l-30 -152h-580l-100 -469h530l-31 -151h-530l-109 -510h590l-32 -152h-590h-162zM782 1782h99l203 -209l-9 -43h-139l-94 100l-21 72l-51 -70l-145 -102h-154l10 45z" />
<glyph unicode="&#xcb;" horiz-adv-x="1044" d="M387 1434h739l-30 -152h-580l-100 -469h530l-31 -151h-530l-109 -510h590l-32 -152h-590h-162zM492 1626q0 41 28.5 68.5t75.5 27.5t75 -27.5t28 -68.5t-28 -67.5t-75 -26.5t-75.5 26.5t-28.5 67.5zM867 1626q0 41 27.5 68.5t74.5 27.5t75.5 -27.5t28.5 -68.5 t-28.5 -67.5t-75.5 -26.5t-74.5 26.5t-27.5 67.5z" />
<glyph unicode="&#xcc;" horiz-adv-x="567" d="M430 1434h164l-303 -1434h-164zM650 1540h-129l-265 199l9 43h206z" />
<glyph unicode="&#xcd;" horiz-adv-x="567" d="M430 1434h164l-303 -1434h-164zM668 1782h237l-10 -43l-358 -199h-150z" />
<glyph unicode="&#xce;" horiz-adv-x="567" d="M430 1434h164l-303 -1434h-164zM538 1782h99l203 -209l-9 -43h-139l-94 100l-21 72l-51 -70l-145 -102h-154l10 45z" />
<glyph unicode="&#xcf;" horiz-adv-x="567" d="M430 1434h164l-303 -1434h-164zM254 1626q0 41 28.5 68.5t75.5 27.5t75 -27.5t28 -68.5t-28 -67.5t-75 -26.5t-75.5 26.5t-28.5 67.5zM629 1626q0 41 27.5 68.5t74.5 27.5t75.5 -27.5t28.5 -68.5t-28.5 -67.5t-75.5 -26.5t-74.5 26.5t-27.5 67.5z" />
<glyph unicode="&#xd0;" horiz-adv-x="1282" d="M84 803h176l135 631q78 10 176.5 13t178.5 3q119 0 217 -32t166.5 -97.5t105.5 -165.5t37 -235q0 -90 -16.5 -196t-54.5 -209t-101.5 -199.5t-157.5 -171t-220 -118.5t-292 -44q-31 0 -81 1t-103 3q-139 8 -160 12l146 682h-179zM737 1298q-25 0 -55 -1l-59 -2 q-29 -1 -55.5 -3t-41.5 -4l-102 -485h281l-25 -123h-283l-112 -539q8 -2 32.5 -3t52.5 -2l53 -2q26 -1 36 -1q178 0 300 74t198.5 186.5t111.5 247.5t35 256q0 92 -20.5 166t-64.5 126t-114 80.5t-168 28.5z" />
<glyph unicode="&#xd1;" horiz-adv-x="1314" d="M535 938l-70 211h-6l-25 -211l-198 -938h-154l309 1456h82l447 -958l67 -201h8l19 201l200 936h154l-309 -1457h-76zM591 1608q72 66 128.5 89t103.5 23q37 0 68.5 -10t61.5 -23.5t58.5 -23.5t59.5 -10q51 0 108 43l33 -88q-66 -53 -116 -71.5t-91 -18.5q-37 0 -67.5 10 t-60.5 23.5t-58.5 23.5t-59.5 10t-64.5 -13t-74.5 -48z" />
<glyph unicode="&#xd2;" horiz-adv-x="1333" d="M145 524q0 188 51.5 358.5t146.5 298.5t229.5 202.5t297.5 74.5q98 0 182.5 -29.5t144.5 -94t94 -167t34 -249.5q0 -193 -51 -364t-143.5 -300t-220.5 -204t-281 -75q-242 0 -363 140.5t-121 408.5zM317 526q0 -193 80 -298t236 -105q115 0 210 63.5t164.5 172t107.5 252 t38 302.5q0 119 -26.5 197t-70.5 122t-100.5 61.5t-113.5 17.5q-117 0 -213.5 -64.5t-165 -173t-107.5 -251t-39 -296.5zM1031 1540h-129l-265 199l9 43h206z" />
<glyph unicode="&#xd3;" horiz-adv-x="1333" d="M145 524q0 188 51.5 358.5t146.5 298.5t229.5 202.5t297.5 74.5q98 0 182.5 -29.5t144.5 -94t94 -167t34 -249.5q0 -193 -51 -364t-143.5 -300t-220.5 -204t-281 -75q-242 0 -363 140.5t-121 408.5zM317 526q0 -193 80 -298t236 -105q115 0 210 63.5t164.5 172t107.5 252 t38 302.5q0 119 -26.5 197t-70.5 122t-100.5 61.5t-113.5 17.5q-117 0 -213.5 -64.5t-165 -173t-107.5 -251t-39 -296.5zM1090 1782h237l-10 -43l-358 -199h-150z" />
<glyph unicode="&#xd4;" horiz-adv-x="1333" d="M145 524q0 188 51.5 358.5t146.5 298.5t229.5 202.5t297.5 74.5q98 0 182.5 -29.5t144.5 -94t94 -167t34 -249.5q0 -193 -51 -364t-143.5 -300t-220.5 -204t-281 -75q-242 0 -363 140.5t-121 408.5zM317 526q0 -193 80 -298t236 -105q115 0 210 63.5t164.5 172t107.5 252 t38 302.5q0 119 -26.5 197t-70.5 122t-100.5 61.5t-113.5 17.5q-117 0 -213.5 -64.5t-165 -173t-107.5 -251t-39 -296.5zM915 1782h99l203 -209l-9 -43h-139l-94 100l-21 72l-51 -70l-145 -102h-154l10 45z" />
<glyph unicode="&#xd5;" horiz-adv-x="1333" d="M145 524q0 188 51.5 358.5t146.5 298.5t229.5 202.5t297.5 74.5q98 0 182.5 -29.5t144.5 -94t94 -167t34 -249.5q0 -193 -51 -364t-143.5 -300t-220.5 -204t-281 -75q-242 0 -363 140.5t-121 408.5zM317 526q0 -193 80 -298t236 -105q115 0 210 63.5t164.5 172t107.5 252 t38 302.5q0 119 -26.5 197t-70.5 122t-100.5 61.5t-113.5 17.5q-117 0 -213.5 -64.5t-165 -173t-107.5 -251t-39 -296.5zM610 1608q72 66 128.5 89t103.5 23q37 0 68.5 -10t61.5 -23.5t58.5 -23.5t59.5 -10q51 0 108 43l33 -88q-66 -53 -116 -71.5t-91 -18.5q-37 0 -67.5 10 t-60.5 23.5t-58.5 23.5t-59.5 10t-64.5 -13t-74.5 -48z" />
<glyph unicode="&#xd6;" horiz-adv-x="1333" d="M145 524q0 188 51.5 358.5t146.5 298.5t229.5 202.5t297.5 74.5q98 0 182.5 -29.5t144.5 -94t94 -167t34 -249.5q0 -193 -51 -364t-143.5 -300t-220.5 -204t-281 -75q-242 0 -363 140.5t-121 408.5zM317 526q0 -193 80 -298t236 -105q115 0 210 63.5t164.5 172t107.5 252 t38 302.5q0 119 -26.5 197t-70.5 122t-100.5 61.5t-113.5 17.5q-117 0 -213.5 -64.5t-165 -173t-107.5 -251t-39 -296.5zM629 1626q0 41 28.5 68.5t75.5 27.5t75 -27.5t28 -68.5t-28 -67.5t-75 -26.5t-75.5 26.5t-28.5 67.5zM1004 1626q0 41 27.5 68.5t74.5 27.5t75.5 -27.5 t28.5 -68.5t-28.5 -67.5t-75.5 -26.5t-74.5 26.5t-27.5 67.5z" />
<glyph unicode="&#xd7;" horiz-adv-x="983" d="M283 1059l260 -260l260 260l104 -109l-258 -256l258 -260l-104 -106l-260 260l-258 -262l-107 104l260 264l-260 256z" />
<glyph unicode="&#xd8;" horiz-adv-x="1333" d="M145 524q0 188 51.5 358.5t146.5 298.5t229.5 202.5t297.5 74.5q80 0 151 -19.5t126 -60.5l59 80l101 -78l-72 -96q43 -63 66.5 -153.5t23.5 -212.5q0 -193 -51 -364t-143.5 -300t-220.5 -204t-281 -75q-180 0 -297 82l-60 -80l-102 80l70 95q-95 132 -95 372zM317 526 q0 -129 37 -221l690 934q-43 39 -95 55.5t-107 16.5q-117 0 -213.5 -64.5t-165 -173t-107.5 -251t-39 -296.5zM1153 913q0 66 -8 119t-25 94l-690 -933q80 -70 203 -70q115 0 210 63.5t164.5 172t107.5 251.5t38 303z" />
<glyph unicode="&#xd9;" horiz-adv-x="1265" d="M1174 1434h155l-201 -957q-29 -131 -71.5 -225t-107 -153.5t-154.5 -88t-209 -28.5q-113 0 -191 25.5t-126 71.5t-69.5 112.5t-21.5 146.5q0 84 23 190l190 906h164l-190 -908q-23 -90 -23 -164q0 -129 67.5 -179t200.5 -50q80 0 140.5 22.5t104.5 69.5t73.5 121 t52.5 178zM1022 1540h-129l-265 199l9 43h206z" />
<glyph unicode="&#xda;" horiz-adv-x="1265" d="M1174 1434h155l-201 -957q-29 -131 -71.5 -225t-107 -153.5t-154.5 -88t-209 -28.5q-113 0 -191 25.5t-126 71.5t-69.5 112.5t-21.5 146.5q0 84 23 190l190 906h164l-190 -908q-23 -90 -23 -164q0 -129 67.5 -179t200.5 -50q80 0 140.5 22.5t104.5 69.5t73.5 121 t52.5 178zM1040 1782h237l-10 -43l-358 -199h-150z" />
<glyph unicode="&#xdb;" horiz-adv-x="1265" d="M1174 1434h155l-201 -957q-29 -131 -71.5 -225t-107 -153.5t-154.5 -88t-209 -28.5q-113 0 -191 25.5t-126 71.5t-69.5 112.5t-21.5 146.5q0 84 23 190l190 906h164l-190 -908q-23 -90 -23 -164q0 -129 67.5 -179t200.5 -50q80 0 140.5 22.5t104.5 69.5t73.5 121 t52.5 178zM890 1782h99l203 -209l-9 -43h-139l-94 100l-21 72l-51 -70l-145 -102h-154l10 45z" />
<glyph unicode="&#xdc;" horiz-adv-x="1265" d="M1174 1434h155l-201 -957q-29 -131 -71.5 -225t-107 -153.5t-154.5 -88t-209 -28.5q-113 0 -191 25.5t-126 71.5t-69.5 112.5t-21.5 146.5q0 84 23 190l190 906h164l-190 -908q-23 -90 -23 -164q0 -129 67.5 -179t200.5 -50q80 0 140.5 22.5t104.5 69.5t73.5 121 t52.5 178zM606 1626q0 41 28.5 68.5t75.5 27.5t75 -27.5t28 -68.5t-28 -67.5t-75 -26.5t-75.5 26.5t-28.5 67.5zM981 1626q0 41 27.5 68.5t74.5 27.5t75.5 -27.5t28.5 -68.5t-28.5 -67.5t-75.5 -26.5t-74.5 26.5t-27.5 67.5z" />
<glyph unicode="&#xdd;" horiz-adv-x="1087" d="M494 569l-273 865h178l183 -627l6 -125h2l61 129l445 623h184l-623 -863l-120 -571h-164zM971 1782h237l-10 -43l-358 -199h-150z" />
<glyph unicode="&#xde;" horiz-adv-x="1089" d="M387 1434h162l-33 -154q82 6 166 6q94 0 174 -20.5t139.5 -65.5t94 -115.5t34.5 -169.5q0 -156 -55 -260t-147.5 -167.5t-207 -90t-231.5 -26.5h-31q-22 0 -46.5 1t-47 3t-32.5 4l-80 -379h-164zM647 1137q-47 0 -91 -3.5t-73 -9.5l-125 -594q8 -4 28 -5t41.5 -3t41.5 -2 h31q88 0 170 18.5t145.5 62.5t100 117t36.5 181q0 74 -24.5 120t-66.5 71.5t-97.5 36t-116.5 10.5z" />
<glyph unicode="&#xdf;" horiz-adv-x="1144" d="M356 1081q41 195 153 280t282 85q86 0 145 -20.5t96 -54.5t54.5 -78t17.5 -89q0 -72 -25.5 -121t-63.5 -85.5t-83 -64.5t-83 -55.5t-63.5 -58.5t-25.5 -74q0 -39 23.5 -62.5t59.5 -41.5l78 -37.5t77.5 -50.5t59 -77t23.5 -120q0 -80 -35.5 -149.5t-96 -120.5t-141.5 -81 t-171 -30q-72 0 -133.5 13.5t-110.5 44.5l74 137q82 -51 186 -51q43 0 90.5 15.5t85 44t63.5 70.5t26 97q0 47 -24 78t-59.5 53.5t-76.5 42t-78 47t-60.5 68.5t-23.5 104q0 61 25.5 104.5t64.5 78t84 63.5t84 57.5t62.5 61.5t23.5 76q0 61 -45 92t-127 31q-223 2 -270 -283 l-197 -1020q-18 -113 -43 -192.5t-61.5 -132t-90 -77t-129.5 -24.5q-61 0 -113 9t-97 32l45 115q41 -14 74.5 -18.5t82.5 -4.5q78 0 117 80t61 213l168 893h-176l27 131h176z" />
<glyph unicode="&#xe0;" horiz-adv-x="997" d="M848 403q-16 -76 -22.5 -153.5t-6.5 -145.5v-58q0 -28 4 -50h-114l-29 178h-8q-25 -35 -61 -70.5t-79 -64.5t-92 -46.5t-104 -17.5q-244 0 -244 318q0 131 34 266t104.5 243.5t182 178.5t269.5 70q57 0 140 -13.5t155 -36.5zM383 106q49 0 94 24t85 58.5t71 74.5t49 75 l115 553q-61 29 -156 29q-94 0 -166 -55.5t-121 -144.5t-73.5 -201.5t-24.5 -225.5q0 -78 30.5 -132.5t96.5 -54.5zM737 1169h-88l-166 263l8 43h187z" />
<glyph unicode="&#xe1;" horiz-adv-x="997" d="M848 403q-16 -76 -22.5 -153.5t-6.5 -145.5v-58q0 -28 4 -50h-114l-29 178h-8q-25 -35 -61 -70.5t-79 -64.5t-92 -46.5t-104 -17.5q-244 0 -244 318q0 131 34 266t104.5 243.5t182 178.5t269.5 70q57 0 140 -13.5t155 -36.5zM383 106q49 0 94 24t85 58.5t71 74.5t49 75 l115 553q-61 29 -156 29q-94 0 -166 -55.5t-121 -144.5t-73.5 -201.5t-24.5 -225.5q0 -78 30.5 -132.5t96.5 -54.5zM804 1475h172l-10 -43l-252 -263h-90z" />
<glyph unicode="&#xe2;" horiz-adv-x="997" d="M848 403q-16 -76 -22.5 -153.5t-6.5 -145.5v-58q0 -28 4 -50h-114l-29 178h-8q-25 -35 -61 -70.5t-79 -64.5t-92 -46.5t-104 -17.5q-244 0 -244 318q0 131 34 266t104.5 243.5t182 178.5t269.5 70q57 0 140 -13.5t155 -36.5zM383 106q49 0 94 24t85 58.5t71 74.5t49 75 l115 553q-61 29 -156 29q-94 0 -166 -55.5t-121 -144.5t-73.5 -201.5t-24.5 -225.5q0 -78 30.5 -132.5t96.5 -54.5zM735 1499h62l135 -373h-129l-49 136l-13 118l-69 -118l-117 -136h-139z" />
<glyph unicode="&#xe3;" horiz-adv-x="997" d="M848 403q-16 -76 -22.5 -153.5t-6.5 -145.5v-58q0 -28 4 -50h-114l-29 178h-8q-25 -35 -61 -70.5t-79 -64.5t-92 -46.5t-104 -17.5q-244 0 -244 318q0 131 34 266t104.5 243.5t182 178.5t269.5 70q57 0 140 -13.5t155 -36.5zM383 106q49 0 94 24t85 58.5t71 74.5t49 75 l115 553q-61 29 -156 29q-94 0 -166 -55.5t-121 -144.5t-73.5 -201.5t-24.5 -225.5q0 -78 30.5 -132.5t96.5 -54.5zM447 1343q66 68 113.5 93.5t84.5 25.5q31 0 55.5 -13t48 -28.5t47 -28t52.5 -12.5q47 0 111 50l30 -89q-59 -59 -102 -81.5t-78 -22.5q-31 0 -55.5 12.5 t-48 27.5t-48 27.5t-55.5 12.5q-27 0 -57.5 -13.5t-71.5 -46.5z" />
<glyph unicode="&#xe4;" horiz-adv-x="997" d="M848 403q-16 -76 -22.5 -153.5t-6.5 -145.5v-58q0 -28 4 -50h-114l-29 178h-8q-25 -35 -61 -70.5t-79 -64.5t-92 -46.5t-104 -17.5q-244 0 -244 318q0 131 34 266t104.5 243.5t182 178.5t269.5 70q57 0 140 -13.5t155 -36.5zM383 106q49 0 94 24t85 58.5t71 74.5t49 75 l115 553q-61 29 -156 29q-94 0 -166 -55.5t-121 -144.5t-73.5 -201.5t-24.5 -225.5q0 -78 30.5 -132.5t96.5 -54.5zM381 1337q0 45 26 75t69 30t69.5 -30t26.5 -75q0 -41 -26.5 -70.5t-69.5 -29.5t-69 29.5t-26 70.5zM756 1339q0 43 25.5 73t68.5 30q45 0 71 -30t26 -73 t-26 -72.5t-71 -29.5q-43 0 -68.5 29.5t-25.5 72.5z" />
<glyph unicode="&#xe5;" horiz-adv-x="997" d="M848 403q-16 -76 -22.5 -153.5t-6.5 -145.5v-58q0 -28 4 -50h-114l-29 178h-8q-25 -35 -61 -70.5t-79 -64.5t-92 -46.5t-104 -17.5q-244 0 -244 318q0 131 34 266t104.5 243.5t182 178.5t269.5 70q57 0 140 -13.5t155 -36.5zM383 106q49 0 94 24t85 58.5t71 74.5t49 75 l115 553q-61 29 -156 29q-94 0 -166 -55.5t-121 -144.5t-73.5 -201.5t-24.5 -225.5q0 -78 30.5 -132.5t96.5 -54.5zM516 1317q0 86 54 136t145 50q86 0 143 -45t57 -141q0 -80 -57 -132t-143 -52t-142.5 48t-56.5 136zM627 1317q0 -41 27.5 -63.5t60.5 -22.5q39 0 64.5 20.5 t25.5 65.5t-28 66.5t-62 21.5q-35 0 -61.5 -20.5t-26.5 -67.5z" />
<glyph unicode="&#xe6;" horiz-adv-x="1544" d="M360 115q55 0 105.5 26.5t91.5 62.5t70.5 71.5t44.5 58.5l16 139q-23 2 -47.5 3t-46.5 1q-78 0 -146.5 -12t-118.5 -39t-79 -67t-29 -97q0 -78 35.5 -112.5t103.5 -34.5zM680 178q-66 -80 -163 -137t-214 -57q-63 0 -109.5 20.5t-77 54t-45 77.5t-14.5 91q0 104 45 175 t122 113t179.5 60.5t214.5 18.5h47q24 0 46 -2q41 133 41 199t-39 92t-129 26q-33 0 -73 -5t-81 -15t-79 -23.5t-68 -27.5l-25 123q86 47 187.5 63t205.5 16q98 0 160.5 -34.5t77.5 -100.5q66 76 159 110t179 34q152 0 225.5 -67t73.5 -165q0 -109 -50.5 -174t-140.5 -102 t-217 -50.5t-278 -15.5q-6 -35 -10.5 -65.5t-4.5 -59.5q0 -113 57.5 -178.5t194.5 -65.5q66 0 136.5 26t113.5 56l35 -110q-70 -49 -165 -76t-193 -27q-119 0 -200 54.5t-110 148.5h-14zM1202 918q-125 0 -209 -82t-129 -236q100 0 191.5 5t161 24.5t110.5 58.5t41 107 q0 51 -34 87t-132 36z" />
<glyph unicode="&#xe7;" horiz-adv-x="860" d="M748 88q-53 -45 -126 -74.5t-139 -38.5l-51 -63q55 -6 91 -42t36 -101q0 -86 -64.5 -141.5t-193.5 -55.5q-25 0 -52.5 3t-55.5 7l34 80q10 -2 22 -2h21q43 0 72 8t45 19.5t22.5 26t6.5 26.5q0 39 -43 57.5t-115 18.5l117 159q-82 8 -135.5 43t-84 83.5t-42 101.5 t-11.5 100q0 174 47.5 312.5t126 234.5t181 147.5t211.5 51.5q78 0 128 -14.5t91 -33.5l-58 -127q-35 20 -86 32t-110 12q-70 0 -136.5 -47.5t-117.5 -124t-82 -176t-31 -203.5q0 -133 55.5 -197t149.5 -64q61 0 129 28t109 56z" />
<glyph unicode="&#xe8;" horiz-adv-x="948" d="M797 100q-72 -61 -169.5 -93t-195.5 -32q-164 0 -247 94.5t-83 262.5t47.5 301t124 225t174 141.5t199.5 49.5q74 0 128 -20.5t89 -54.5t51.5 -78t16.5 -93q0 -145 -141.5 -228t-411.5 -83q-25 0 -51.5 1t-55.5 3q-8 -39 -12 -74t-4 -62q0 -113 51 -183.5t160 -70.5 q90 0 165 30t116 63zM623 918q-113 0 -196 -77t-126 -231q78 0 162 4t152.5 21.5t113.5 55.5t45 106q0 20 -7 41.5t-23.5 39t-46 29t-74.5 11.5zM704 1169h-88l-166 263l8 43h187z" />
<glyph unicode="&#xe9;" horiz-adv-x="948" d="M797 100q-72 -61 -169.5 -93t-195.5 -32q-164 0 -247 94.5t-83 262.5t47.5 301t124 225t174 141.5t199.5 49.5q74 0 128 -20.5t89 -54.5t51.5 -78t16.5 -93q0 -145 -141.5 -228t-411.5 -83q-25 0 -51.5 1t-55.5 3q-8 -39 -12 -74t-4 -62q0 -113 51 -183.5t160 -70.5 q90 0 165 30t116 63zM623 918q-113 0 -196 -77t-126 -231q78 0 162 4t152.5 21.5t113.5 55.5t45 106q0 20 -7 41.5t-23.5 39t-46 29t-74.5 11.5zM768 1475h172l-10 -43l-252 -263h-90z" />
<glyph unicode="&#xea;" horiz-adv-x="948" d="M797 100q-72 -61 -169.5 -93t-195.5 -32q-164 0 -247 94.5t-83 262.5t47.5 301t124 225t174 141.5t199.5 49.5q74 0 128 -20.5t89 -54.5t51.5 -78t16.5 -93q0 -145 -141.5 -228t-411.5 -83q-25 0 -51.5 1t-55.5 3q-8 -39 -12 -74t-4 -62q0 -113 51 -183.5t160 -70.5 q90 0 165 30t116 63zM623 918q-113 0 -196 -77t-126 -231q78 0 162 4t152.5 21.5t113.5 55.5t45 106q0 20 -7 41.5t-23.5 39t-46 29t-74.5 11.5zM702 1499h62l135 -373h-129l-49 136l-13 118l-69 -118l-117 -136h-139z" />
<glyph unicode="&#xeb;" horiz-adv-x="948" d="M797 100q-72 -61 -169.5 -93t-195.5 -32q-164 0 -247 94.5t-83 262.5t47.5 301t124 225t174 141.5t199.5 49.5q74 0 128 -20.5t89 -54.5t51.5 -78t16.5 -93q0 -145 -141.5 -228t-411.5 -83q-25 0 -51.5 1t-55.5 3q-8 -39 -12 -74t-4 -62q0 -113 51 -183.5t160 -70.5 q90 0 165 30t116 63zM623 918q-113 0 -196 -77t-126 -231q78 0 162 4t152.5 21.5t113.5 55.5t45 106q0 20 -7 41.5t-23.5 39t-46 29t-74.5 11.5zM399 1337q0 45 26 75t69 30t69.5 -30t26.5 -75q0 -41 -26.5 -70.5t-69.5 -29.5t-69 29.5t-26 70.5zM774 1339q0 43 25.5 73 t68.5 30q45 0 71 -30t26 -73t-26 -72.5t-71 -29.5q-43 0 -68.5 29.5t-25.5 72.5z" />
<glyph unicode="&#xec;" horiz-adv-x="530" d="M328 1024h153l-217 -1024h-153zM508 1169h-88l-166 263l8 43h187z" />
<glyph unicode="&#xed;" horiz-adv-x="530" d="M328 1024h153l-217 -1024h-153zM542 1475h172l-10 -43l-252 -263h-90z" />
<glyph unicode="&#xee;" horiz-adv-x="530" d="M328 1024h153l-217 -1024h-153zM479 1499h62l135 -373h-129l-49 136l-13 118l-69 -118l-117 -136h-139z" />
<glyph unicode="&#xef;" horiz-adv-x="530" d="M328 1024h153l-217 -1024h-153zM184 1337q0 45 26 75t69 30t69.5 -30t26.5 -75q0 -41 -26.5 -70.5t-69.5 -29.5t-69 29.5t-26 70.5zM559 1339q0 43 25.5 73t68.5 30q45 0 71 -30t26 -73t-26 -72.5t-71 -29.5q-43 0 -68.5 29.5t-25.5 72.5z" />
<glyph unicode="&#xf0;" horiz-adv-x="1015" d="M565 1219l160 69q-33 41 -71 68.5t-79 46.5l121 55q94 -39 156 -115l156 68l41 -84l-146 -63q33 -66 51.5 -148t18.5 -182q0 -258 -48 -439.5t-126 -297t-176.5 -169t-198.5 -53.5q-80 0 -140.5 27t-100.5 73t-59.5 109.5t-19.5 134.5q0 141 38 271.5t107.5 232 t164 161.5t209.5 60q88 0 131 -23.5t73 -57.5q2 143 -51 245l-166 -71zM266 336q0 -111 47 -170.5t119 -59.5q109 0 181.5 73t116.5 177.5t61.5 221t17.5 204.5q-16 59 -68.5 94t-124.5 35q-78 0 -142 -53t-110.5 -137t-72 -185.5t-25.5 -199.5z" />
<glyph unicode="&#xf1;" horiz-adv-x="1069" d="M658 0l137 647q8 37 14.5 73t6.5 64q0 59 -28 96.5t-103 37.5q-53 0 -104.5 -25t-96.5 -62.5t-81 -84t-61 -91.5l-135 -655h-153l217 1024h106l-8 -176h8q27 33 64 68.5t83 64.5t103.5 48.5t126.5 19.5q102 0 161.5 -49.5t59.5 -172.5q0 -61 -18 -147l-146 -680h-153z M453 1343q66 68 113.5 93.5t84.5 25.5q31 0 55.5 -13t48 -28.5t47 -28t52.5 -12.5q47 0 111 50l30 -89q-59 -59 -102 -81.5t-78 -22.5q-31 0 -55.5 12.5t-48 27.5t-48 27.5t-55.5 12.5q-27 0 -57.5 -13.5t-71.5 -46.5z" />
<glyph unicode="&#xf2;" horiz-adv-x="1019" d="M102 319q0 162 42 296.5t116 230.5t171 149.5t208 53.5q86 0 146.5 -28t98.5 -76t54 -110.5t16 -129.5q0 -154 -40 -287t-110.5 -231.5t-164.5 -155t-205 -56.5q-92 0 -154.5 30t-102.5 79t-57.5 110.5t-17.5 124.5zM266 356q0 -121 45 -185.5t144 -64.5q68 0 128 48.5 t106 130.5t74 187.5t28 219.5q0 104 -38 165t-145 61q-68 0 -129 -46.5t-109 -124t-76 -179t-28 -212.5zM729 1169h-88l-166 263l8 43h187z" />
<glyph unicode="&#xf3;" horiz-adv-x="1019" d="M102 319q0 162 42 296.5t116 230.5t171 149.5t208 53.5q86 0 146.5 -28t98.5 -76t54 -110.5t16 -129.5q0 -154 -40 -287t-110.5 -231.5t-164.5 -155t-205 -56.5q-92 0 -154.5 30t-102.5 79t-57.5 110.5t-17.5 124.5zM266 356q0 -121 45 -185.5t144 -64.5q68 0 128 48.5 t106 130.5t74 187.5t28 219.5q0 104 -38 165t-145 61q-68 0 -129 -46.5t-109 -124t-76 -179t-28 -212.5zM772 1475h172l-10 -43l-252 -263h-90z" />
<glyph unicode="&#xf4;" horiz-adv-x="1019" d="M102 319q0 162 42 296.5t116 230.5t171 149.5t208 53.5q86 0 146.5 -28t98.5 -76t54 -110.5t16 -129.5q0 -154 -40 -287t-110.5 -231.5t-164.5 -155t-205 -56.5q-92 0 -154.5 30t-102.5 79t-57.5 110.5t-17.5 124.5zM266 356q0 -121 45 -185.5t144 -64.5q68 0 128 48.5 t106 130.5t74 187.5t28 219.5q0 104 -38 165t-145 61q-68 0 -129 -46.5t-109 -124t-76 -179t-28 -212.5zM702 1499h62l135 -373h-129l-49 136l-13 118l-69 -118l-117 -136h-139z" />
<glyph unicode="&#xf5;" horiz-adv-x="1019" d="M102 319q0 162 42 296.5t116 230.5t171 149.5t208 53.5q86 0 146.5 -28t98.5 -76t54 -110.5t16 -129.5q0 -154 -40 -287t-110.5 -231.5t-164.5 -155t-205 -56.5q-92 0 -154.5 30t-102.5 79t-57.5 110.5t-17.5 124.5zM266 356q0 -121 45 -185.5t144 -64.5q68 0 128 48.5 t106 130.5t74 187.5t28 219.5q0 104 -38 165t-145 61q-68 0 -129 -46.5t-109 -124t-76 -179t-28 -212.5zM402 1343q66 68 113.5 93.5t84.5 25.5q31 0 55.5 -13t48 -28.5t47 -28t52.5 -12.5q47 0 111 50l30 -89q-59 -59 -102 -81.5t-78 -22.5q-31 0 -55.5 12.5t-48 27.5 t-48 27.5t-55.5 12.5q-27 0 -57.5 -13.5t-71.5 -46.5z" />
<glyph unicode="&#xf6;" horiz-adv-x="1019" d="M102 319q0 162 42 296.5t116 230.5t171 149.5t208 53.5q86 0 146.5 -28t98.5 -76t54 -110.5t16 -129.5q0 -154 -40 -287t-110.5 -231.5t-164.5 -155t-205 -56.5q-92 0 -154.5 30t-102.5 79t-57.5 110.5t-17.5 124.5zM266 356q0 -121 45 -185.5t144 -64.5q68 0 128 48.5 t106 130.5t74 187.5t28 219.5q0 104 -38 165t-145 61q-68 0 -129 -46.5t-109 -124t-76 -179t-28 -212.5zM389 1337q0 45 26 75t69 30t69.5 -30t26.5 -75q0 -41 -26.5 -70.5t-69.5 -29.5t-69 29.5t-26 70.5zM764 1339q0 43 25.5 73t68.5 30q45 0 71 -30t26 -73t-26 -72.5 t-71 -29.5q-43 0 -68.5 29.5t-25.5 72.5z" />
<glyph unicode="&#xf7;" horiz-adv-x="983" d="M113 766h868v-148h-868v148zM455 1059q0 55 32.5 87t85.5 32t86 -32t33 -87q0 -53 -32.5 -86t-86.5 -33q-53 0 -85.5 33t-32.5 86zM455 309q0 55 32.5 87t85.5 32t86 -31.5t33 -87.5q0 -53 -32.5 -86t-86.5 -33q-53 0 -85.5 33t-32.5 86z" />
<glyph unicode="&#xf8;" horiz-adv-x="1019" d="M102 319q0 162 42 296.5t116 230.5t171 149.5t208 53.5q72 0 125 -19.5t92 -54.5l74 80l82 -76l-90 -102q16 -39 24 -82t8 -90q0 -154 -40 -287t-110.5 -231.5t-164.5 -155t-205 -56.5q-82 0 -140 24t-99 64l-82 -92l-86 78l102 115q-27 71 -27 155zM791 692v21 q0 10 -3 20l-489 -545q47 -82 156 -82q68 0 128 48.5t106 130.5t74 187t28 220zM266 356v-24q0 -12 2 -25l488 545q-43 66 -148 66q-68 0 -129 -46.5t-109 -124t-76 -179t-28 -212.5z" />
<glyph unicode="&#xf9;" horiz-adv-x="1046" d="M436 1024l-143 -682q-12 -55 -12 -102q0 -57 22.5 -95.5t81.5 -38.5q49 0 99.5 25t96.5 63.5t83.5 86t62.5 92.5l137 651h154l-129 -608q-8 -35 -16.5 -85t-15.5 -105.5t-11 -107.5t-4 -91v-27h-121v195h-8q-31 -41 -71 -80t-88 -70t-103.5 -50.5t-116.5 -19.5 q-45 0 -83 10.5t-66.5 36t-45 67.5t-16.5 108q0 72 20 161l140 666h153zM752 1169h-88l-166 263l8 43h187z" />
<glyph unicode="&#xfa;" horiz-adv-x="1046" d="M436 1024l-143 -682q-12 -55 -12 -102q0 -57 22.5 -95.5t81.5 -38.5q49 0 99.5 25t96.5 63.5t83.5 86t62.5 92.5l137 651h154l-129 -608q-8 -35 -16.5 -85t-15.5 -105.5t-11 -107.5t-4 -91v-27h-121v195h-8q-31 -41 -71 -80t-88 -70t-103.5 -50.5t-116.5 -19.5 q-45 0 -83 10.5t-66.5 36t-45 67.5t-16.5 108q0 72 20 161l140 666h153zM774 1475h172l-10 -43l-252 -263h-90z" />
<glyph unicode="&#xfb;" horiz-adv-x="1046" d="M436 1024l-143 -682q-12 -55 -12 -102q0 -57 22.5 -95.5t81.5 -38.5q49 0 99.5 25t96.5 63.5t83.5 86t62.5 92.5l137 651h154l-129 -608q-8 -35 -16.5 -85t-15.5 -105.5t-11 -107.5t-4 -91v-27h-121v195h-8q-31 -41 -71 -80t-88 -70t-103.5 -50.5t-116.5 -19.5 q-45 0 -83 10.5t-66.5 36t-45 67.5t-16.5 108q0 72 20 161l140 666h153zM729 1499h62l135 -373h-129l-49 136l-13 118l-69 -118l-117 -136h-139z" />
<glyph unicode="&#xfc;" horiz-adv-x="1046" d="M436 1024l-143 -682q-12 -55 -12 -102q0 -57 22.5 -95.5t81.5 -38.5q49 0 99.5 25t96.5 63.5t83.5 86t62.5 92.5l137 651h154l-129 -608q-8 -35 -16.5 -85t-15.5 -105.5t-11 -107.5t-4 -91v-27h-121v195h-8q-31 -41 -71 -80t-88 -70t-103.5 -50.5t-116.5 -19.5 q-45 0 -83 10.5t-66.5 36t-45 67.5t-16.5 108q0 72 20 161l140 666h153zM430 1337q0 45 26 75t69 30t69.5 -30t26.5 -75q0 -41 -26.5 -70.5t-69.5 -29.5t-69 29.5t-26 70.5zM805 1339q0 43 25.5 73t68.5 30q45 0 71 -30t26 -73t-26 -72.5t-71 -29.5q-43 0 -68.5 29.5 t-25.5 72.5z" />
<glyph unicode="&#xfd;" horiz-adv-x="899" d="M397 360l11 -196h10l78 198l340 662h163l-483 -913l-105 -196q-52 -95 -107.5 -170t-115 -120t-122.5 -45q-35 0 -60.5 4t-46.5 15l49 141q23 -8 49 -8q59 0 119 61.5t133 206.5l-176 1024h164zM692 1475h172l-10 -43l-252 -263h-90z" />
<glyph unicode="&#xfe;" horiz-adv-x="1040" d="M385 1434h154l-127 -562h8q29 35 61.5 67t71.5 56.5t87 39t108 14.5q49 0 92 -15.5t75.5 -51.5t52 -95.5t19.5 -145.5q0 -180 -49 -322.5t-129 -240.5t-179.5 -150.5t-197.5 -52.5q-72 0 -126 13.5t-73 27.5l-90 -426h-153zM690 918q-55 0 -105 -29t-92 -71t-75 -90 t-53 -89l-101 -485q35 -27 72 -37.5t80 -10.5q80 0 152.5 44.5t130 126t91 196.5t33.5 256q0 82 -33.5 135.5t-99.5 53.5z" />
<glyph unicode="&#xff;" horiz-adv-x="899" d="M397 360l11 -196h10l78 198l340 662h163l-483 -913l-105 -196q-52 -95 -107.5 -170t-115 -120t-122.5 -45q-35 0 -60.5 4t-46.5 15l49 141q23 -8 49 -8q59 0 119 61.5t133 206.5l-176 1024h164zM309 1337q0 45 26 75t69 30t69.5 -30t26.5 -75q0 -41 -26.5 -70.5 t-69.5 -29.5t-69 29.5t-26 70.5zM684 1339q0 43 25.5 73t68.5 30q45 0 71 -30t26 -73t-26 -72.5t-71 -29.5q-43 0 -68.5 29.5t-25.5 72.5z" />
<glyph unicode="&#x100;" horiz-adv-x="1140" d="M827 397h-499l-222 -397h-174l828 1456h76l206 -1456h-157zM408 545h403l-59 436l-4 217h-3l-92 -221zM535 1726h614l-27 -127h-616z" />
<glyph unicode="&#x101;" horiz-adv-x="997" d="M848 403q-16 -76 -22.5 -153.5t-6.5 -145.5v-58q0 -28 4 -50h-114l-29 178h-8q-25 -35 -61 -70.5t-79 -64.5t-92 -46.5t-104 -17.5q-244 0 -244 318q0 131 34 266t104.5 243.5t182 178.5t269.5 70q57 0 140 -13.5t155 -36.5zM383 106q49 0 94 24t85 58.5t71 74.5t49 75 l115 553q-61 29 -156 29q-94 0 -166 -55.5t-121 -144.5t-73.5 -201.5t-24.5 -225.5q0 -78 30.5 -132.5t96.5 -54.5zM426 1317h575l-27 -127h-577z" />
<glyph unicode="&#x102;" horiz-adv-x="1140" d="M827 397h-499l-222 -397h-174l828 1456h76l206 -1456h-157zM408 545h403l-59 436l-4 217h-3l-92 -221zM602 1784q23 -72 74 -110t131 -38q66 0 113 12.5t81.5 32t61 46t49.5 57.5l84 -39q-51 -123 -151.5 -186.5t-243.5 -63.5q-59 0 -108.5 19.5t-85.5 52t-57.5 77 t-27.5 91.5z" />
<glyph unicode="&#x103;" horiz-adv-x="997" d="M848 403q-16 -76 -22.5 -153.5t-6.5 -145.5v-58q0 -28 4 -50h-114l-29 178h-8q-25 -35 -61 -70.5t-79 -64.5t-92 -46.5t-104 -17.5q-244 0 -244 318q0 131 34 266t104.5 243.5t182 178.5t269.5 70q57 0 140 -13.5t155 -36.5zM383 106q49 0 94 24t85 58.5t71 74.5t49 75 l115 553q-61 29 -156 29q-94 0 -166 -55.5t-121 -144.5t-73.5 -201.5t-24.5 -225.5q0 -78 30.5 -132.5t96.5 -54.5zM541 1475q18 -74 56 -116t109 -42q78 0 144.5 42t113.5 116l72 -37q-16 -49 -50 -97.5t-80 -85t-102.5 -59t-113.5 -22.5q-106 0 -175 68.5t-73 184.5z" />
<glyph unicode="&#x104;" horiz-adv-x="1140" d="M827 397h-499l-222 -397h-174l828 1456h76l206 -1456h-43q-31 -16 -58.5 -34.5t-50 -42t-34.5 -54.5t-14 -66q0 -35 19.5 -58.5t64.5 -23.5q39 0 86 17l2 -88q-39 -27 -88 -38t-88 -11q-70 0 -117 37.5t-47 113.5q4 84 63.5 148.5t145.5 99.5zM408 543h403l-59 440 q-2 37 -2 99.5t-2 115.5h-3l-92 -221z" />
<glyph unicode="&#x105;" horiz-adv-x="997" d="M848 403q-16 -76 -22.5 -153.5t-6.5 -145.5v-58q0 -28 4 -50h-55q-63 -33 -105 -80t-42 -113q0 -35 18 -58.5t66 -23.5q39 0 83 17l3 -88q-35 -27 -84.5 -38t-90.5 -11q-70 -2 -116.5 35.5t-46.5 113.5q0 43 15 80t44 68.5t76 63.5t117 52l-25 160h-8q-25 -35 -61 -70.5 t-79 -64.5t-92 -46.5t-104 -17.5q-244 0 -244 318q0 131 34 266t104.5 243.5t182 178.5t269.5 70q57 0 140 -13.5t155 -36.5zM383 106q49 0 94 24t85 58.5t71 74.5t49 75l115 553q-61 29 -156 29q-94 0 -166 -55.5t-121 -144.5t-73.5 -201.5t-24.5 -225.5q0 -78 30.5 -132.5 t96.5 -54.5z" />
<glyph unicode="&#x106;" horiz-adv-x="1114" d="M983 59q-70 -47 -147.5 -65.5t-180.5 -18.5q-121 0 -215 44t-159.5 123t-100.5 185.5t-35 233.5q0 231 68 400t178.5 280t248.5 164t280 53q117 0 190.5 -16.5t120.5 -38.5l-74 -150q-41 23 -107.5 38.5t-152.5 15.5q-115 0 -220.5 -50.5t-185 -144.5t-127 -229 t-47.5 -303q0 -98 26 -181.5t74 -143.5t118.5 -94t160.5 -34q96 0 160 21.5t115 50.5zM1094 1782h237l-10 -43l-358 -199h-150z" />
<glyph unicode="&#x107;" horiz-adv-x="860" d="M748 88q-31 -27 -71 -47.5t-82 -34.5t-83 -22.5t-78 -8.5q-100 0 -164.5 32t-101.5 81t-51.5 106.5t-14.5 108.5q0 174 47.5 312.5t126 234.5t181 147.5t211.5 51.5q78 0 128 -14.5t91 -33.5l-58 -127q-35 20 -86 32t-110 12q-70 0 -136.5 -47.5t-117.5 -124t-82 -176 t-31 -203.5q0 -133 55.5 -197t149.5 -64q61 0 129 28t109 56zM788 1475h172l-10 -43l-252 -263h-90z" />
<glyph unicode="&#x108;" horiz-adv-x="1114" d="M983 59q-70 -47 -147.5 -65.5t-180.5 -18.5q-121 0 -215 44t-159.5 123t-100.5 185.5t-35 233.5q0 231 68 400t178.5 280t248.5 164t280 53q117 0 190.5 -16.5t120.5 -38.5l-74 -150q-41 23 -107.5 38.5t-152.5 15.5q-115 0 -220.5 -50.5t-185 -144.5t-127 -229 t-47.5 -303q0 -98 26 -181.5t74 -143.5t118.5 -94t160.5 -34q96 0 160 21.5t115 50.5zM931 1782h99l203 -209l-9 -43h-139l-94 100l-21 72l-51 -70l-145 -102h-154l10 45z" />
<glyph unicode="&#x109;" horiz-adv-x="860" d="M748 88q-31 -27 -71 -47.5t-82 -34.5t-83 -22.5t-78 -8.5q-100 0 -164.5 32t-101.5 81t-51.5 106.5t-14.5 108.5q0 174 47.5 312.5t126 234.5t181 147.5t211.5 51.5q78 0 128 -14.5t91 -33.5l-58 -127q-35 20 -86 32t-110 12q-70 0 -136.5 -47.5t-117.5 -124t-82 -176 t-31 -203.5q0 -133 55.5 -197t149.5 -64q61 0 129 28t109 56zM688 1499h62l135 -373h-129l-49 136l-13 118l-69 -118l-117 -136h-139z" />
<glyph unicode="&#x10c;" horiz-adv-x="1114" d="M983 59q-70 -47 -147.5 -65.5t-180.5 -18.5q-121 0 -215 44t-159.5 123t-100.5 185.5t-35 233.5q0 231 68 400t178.5 280t248.5 164t280 53q117 0 190.5 -16.5t120.5 -38.5l-74 -150q-41 23 -107.5 38.5t-152.5 15.5q-115 0 -220.5 -50.5t-185 -144.5t-127 -229 t-47.5 -303q0 -98 26 -181.5t74 -143.5t118.5 -94t160.5 -34q96 0 160 21.5t115 50.5zM977 1528h-97l-198 211l6 43h137l94 -103l19 -69l49 67l145 105h156l-8 -45z" />
<glyph unicode="&#x10d;" horiz-adv-x="860" d="M748 88q-31 -27 -71 -47.5t-82 -34.5t-83 -22.5t-78 -8.5q-100 0 -164.5 32t-101.5 81t-51.5 106.5t-14.5 108.5q0 174 47.5 312.5t126 234.5t181 147.5t211.5 51.5q78 0 128 -14.5t91 -33.5l-58 -127q-35 20 -86 32t-110 12q-70 0 -136.5 -47.5t-117.5 -124t-82 -176 t-31 -203.5q0 -133 55.5 -197t149.5 -64q61 0 129 28t109 56zM672 1126h-71l-146 373h148l47 -135l14 -119l70 119l114 135h144z" />
<glyph unicode="&#x10e;" horiz-adv-x="1273" d="M387 1434q78 10 176.5 13t177.5 3q121 0 219.5 -32t167 -97.5t105.5 -165.5t37 -235q0 -90 -16.5 -196t-54.5 -209t-101.5 -199.5t-157.5 -171t-221 -118.5t-293 -44q-31 0 -81 1t-99 3q-143 8 -164 12zM729 1298q-25 0 -55 -1l-60 -2q-29 -1 -55.5 -3t-40.5 -4 l-242 -1147q8 -2 33 -3l52 -2l54 -2q26 -1 36 -1q178 0 300.5 74t199.5 186.5t112 247.5t35 256q0 92 -20.5 166t-64.5 126t-114 80.5t-170 28.5zM832 1528h-97l-198 211l6 43h137l94 -103l19 -69l49 67l145 105h156l-8 -45z" />
<glyph unicode="&#x10f;" horiz-adv-x="1042" d="M858 352q-16 -80 -24.5 -149.5t-8.5 -128.5q0 -23 1 -41.5t3 -36.5h-102l-29 178h-8q-25 -35 -61.5 -70.5t-81.5 -64.5t-95.5 -46.5t-103.5 -17.5q-113 0 -179.5 83t-66.5 264q0 121 35 248.5t102.5 232t169 172t234.5 67.5q37 0 63.5 -2t50 -6t44.5 -11l43 -15l90 426 h153zM406 106q43 0 88 24t84.5 58.5t71.5 74.5t50 75l115 532q-35 23 -79 32t-115 9q-82 0 -147.5 -50t-112 -134t-71 -192.5t-24.5 -223.5q0 -84 33 -144.5t107 -60.5zM1387 1434q-16 -59 -48 -122t-69 -116t-71 -94t-54 -60l-55 37q49 74 85 167t56 188h156z" />
<glyph unicode="&#x110;" horiz-adv-x="1282" d="M84 803h176l135 631q78 10 176.5 13t178.5 3q119 0 217 -32t166.5 -97.5t105.5 -165.5t37 -235q0 -90 -16.5 -196t-54.5 -209t-101.5 -199.5t-157.5 -171t-220 -118.5t-292 -44q-31 0 -81 1t-103 3q-139 8 -160 12l146 682h-179zM737 1298q-25 0 -55 -1l-59 -2 q-29 -1 -55.5 -3t-41.5 -4l-102 -485h281l-25 -123h-283l-112 -539q8 -2 32.5 -3t52.5 -2l53 -2q26 -1 36 -1q178 0 300 74t198.5 186.5t111.5 247.5t35 256q0 92 -20.5 166t-64.5 126t-114 80.5t-168 28.5z" />
<glyph unicode="&#x111;" horiz-adv-x="1042" d="M1057 1294h178l-25 -123h-178l-174 -819q-16 -80 -24.5 -149.5t-8.5 -128.5q0 -23 1 -41.5t3 -36.5h-102l-29 178h-8q-25 -35 -61.5 -70.5t-81.5 -64.5t-95.5 -46.5t-103.5 -17.5q-113 0 -179.5 83t-66.5 264q0 121 35 248.5t102.5 232t169 172t234.5 67.5q37 0 63.5 -2 t50 -6t44.5 -11l43 -15l35 163h-287l24 123h287l31 140h153zM406 106q43 0 88 24t84.5 58.5t71.5 74.5t50 75l115 532q-35 23 -79 32t-115 9q-82 0 -147.5 -50t-112 -134t-71 -192.5t-24.5 -223.5q0 -84 33 -144.5t107 -60.5z" />
<glyph unicode="&#x112;" horiz-adv-x="1044" d="M387 1434h739l-30 -152h-580l-100 -469h530l-31 -151h-530l-109 -510h590l-32 -152h-590h-162zM490 1726h614l-27 -127h-616z" />
<glyph unicode="&#x113;" horiz-adv-x="948" d="M797 100q-72 -61 -169.5 -93t-195.5 -32q-164 0 -247 94.5t-83 262.5t47.5 301t124 225t174 141.5t199.5 49.5q74 0 128 -20.5t89 -54.5t51.5 -78t16.5 -93q0 -145 -141.5 -228t-411.5 -83q-25 0 -51.5 1t-55.5 3q-8 -39 -12 -74t-4 -62q0 -113 51 -183.5t160 -70.5 q90 0 165 30t116 63zM623 918q-113 0 -196 -77t-126 -231q78 0 162 4t152.5 21.5t113.5 55.5t45 106q0 20 -7 41.5t-23.5 39t-46 29t-74.5 11.5zM396 1317h575l-27 -127h-577z" />
<glyph unicode="&#x116;" horiz-adv-x="1044" d="M387 1434h739l-30 -152h-580l-100 -469h530l-31 -151h-530l-109 -510h590l-32 -152h-590h-162zM676 1630q0 47 35 78t86 31q53 0 88 -31t35 -78q0 -45 -35 -75.5t-88 -30.5q-51 0 -86 30.5t-35 75.5z" />
<glyph unicode="&#x117;" horiz-adv-x="948" d="M797 100q-72 -61 -169.5 -93t-195.5 -32q-164 0 -247 94.5t-83 262.5t47.5 301t124 225t174 141.5t199.5 49.5q74 0 128 -20.5t89 -54.5t51.5 -78t16.5 -93q0 -145 -141.5 -228t-411.5 -83q-25 0 -51.5 1t-55.5 3q-8 -39 -12 -74t-4 -62q0 -113 51 -183.5t160 -70.5 q90 0 165 30t116 63zM623 918q-113 0 -196 -77t-126 -231q78 0 162 4t152.5 21.5t113.5 55.5t45 106q0 20 -7 41.5t-23.5 39t-46 29t-74.5 11.5zM594 1337q0 47 32 80t79 33t79.5 -33t32.5 -80t-32.5 -78.5t-79.5 -31.5t-79 31.5t-32 78.5z" />
<glyph unicode="&#x118;" horiz-adv-x="1044" d="M387 1434h739l-30 -152h-580l-100 -469h530l-31 -151h-530l-109 -510h590l-32 -152h-56q-63 -31 -110 -78t-47 -119q0 -35 19 -58.5t65 -23.5q39 0 86 17l2 -88q-37 -27 -86.5 -38t-90.5 -11q-72 0 -117.5 36.5t-45.5 112.5q0 90 61 152.5t145 97.5h-413h-164z" />
<glyph unicode="&#x119;" horiz-adv-x="948" d="M797 100q-70 -59 -166 -92q-61 -35 -110.5 -88t-53.5 -125q0 -35 21.5 -58.5t52.5 -21.5q45 2 92 21l2 -86q-35 -25 -86 -37t-92 -12q-76 0 -116 36.5t-42 100.5q-2 20 4 45q10 53 55 105.5t105 88.5l-31 -2q-164 0 -247 94.5t-83 262.5t47.5 301t124 225t174 141.5 t199.5 49.5q74 0 128 -20.5t89 -54.5t51.5 -78t16.5 -93q0 -145 -141.5 -228t-411.5 -83q-25 0 -52.5 1t-56.5 3q-8 -39 -11 -74t-3 -62q2 -113 52 -183.5t159 -70.5q90 0 165 30t116 63zM623 918q-113 0 -196 -77t-126 -231q78 0 162 4t152.5 21.5t113.5 55.5t45 106 q0 20 -7 41.5t-23.5 39t-46 29t-74.5 11.5z" />
<glyph unicode="&#x11a;" horiz-adv-x="1044" d="M387 1434h739l-30 -152h-580l-100 -469h530l-31 -151h-530l-109 -510h590l-32 -152h-590h-162zM807 1528h-97l-198 211l6 43h137l94 -103l19 -69l49 67l145 105h156l-8 -45z" />
<glyph unicode="&#x11b;" horiz-adv-x="948" d="M797 100q-72 -61 -169.5 -93t-195.5 -32q-164 0 -247 94.5t-83 262.5t47.5 301t124 225t174 141.5t199.5 49.5q74 0 128 -20.5t89 -54.5t51.5 -78t16.5 -93q0 -145 -141.5 -228t-411.5 -83q-25 0 -51.5 1t-55.5 3q-8 -39 -12 -74t-4 -62q0 -113 51 -183.5t160 -70.5 q90 0 165 30t116 63zM623 918q-113 0 -196 -77t-126 -231q78 0 162 4t152.5 21.5t113.5 55.5t45 106q0 20 -7 41.5t-23.5 39t-46 29t-74.5 11.5zM688 1126h-71l-146 373h148l47 -135l14 -119l70 119l114 135h144z" />
<glyph unicode="&#x11c;" horiz-adv-x="1193" d="M768 715h238h139l-133 -631q-145 -109 -361 -109q-102 0 -193 37t-161 110t-111 181.5t-41 253.5q0 252 74 424t189.5 277.5t255 152.5t270.5 47q117 0 193.5 -15.5t123.5 -37.5l-71 -150q-41 23 -110 37.5t-155 14.5q-119 0 -226 -46.5t-190 -138.5t-132.5 -228 t-49.5 -316q0 -92 22.5 -174t69 -143.5t115 -97.5t162.5 -36q66 0 113 13.5t94 37.5l84 400l-229 40zM954 1782h99l203 -209l-9 -43h-139l-94 100l-21 72l-51 -70l-145 -102h-154l10 45z" />
<glyph unicode="&#x11d;" horiz-adv-x="1034" d="M788 -47q-43 -201 -148 -294t-280 -93q-133 0 -219 33.5t-131 58.5l68 115q16 -8 39.5 -21.5t57.5 -26t82 -20.5t114 -8q102 0 171.5 73.5t104.5 231.5l37 172h-8q-29 -39 -62.5 -73.5t-74.5 -62.5t-89.5 -44.5t-105.5 -16.5q-111 0 -178.5 80t-67.5 228q0 137 38 272 t113 242.5t184.5 175t252.5 67.5q111 0 186.5 -18t133.5 -45zM401 109q51 0 101.5 26.5t92.5 68.5t76 91t56 92l104 494q-33 18 -79.5 24t-96.5 6q-84 0 -155.5 -49t-123.5 -132t-83 -191.5t-31 -227.5q0 -94 38 -148t101 -54zM747 1499h62l135 -373h-129l-49 136l-13 118 l-69 -118l-117 -136h-139z" />
<glyph unicode="&#x11e;" horiz-adv-x="1193" d="M768 715h238h139l-133 -631q-145 -109 -361 -109q-102 0 -193 37t-161 110t-111 181.5t-41 253.5q0 252 74 424t189.5 277.5t255 152.5t270.5 47q117 0 193.5 -15.5t123.5 -37.5l-71 -150q-41 23 -110 37.5t-155 14.5q-119 0 -226 -46.5t-190 -138.5t-132.5 -228 t-49.5 -316q0 -92 22.5 -174t69 -143.5t115 -97.5t162.5 -36q66 0 113 13.5t94 37.5l84 400l-229 40zM741 1784q23 -72 74 -110t131 -38q66 0 113 12.5t81.5 32t61 46t49.5 57.5l84 -39q-51 -123 -151.5 -186.5t-243.5 -63.5q-59 0 -108.5 19.5t-85.5 52t-57.5 77 t-27.5 91.5z" />
<glyph unicode="&#x11f;" horiz-adv-x="1034" d="M788 -47q-43 -201 -148 -294t-280 -93q-133 0 -219 33.5t-131 58.5l68 115q16 -8 39.5 -21.5t57.5 -26t82 -20.5t114 -8q102 0 171.5 73.5t104.5 231.5l37 172h-8q-29 -39 -62.5 -73.5t-74.5 -62.5t-89.5 -44.5t-105.5 -16.5q-111 0 -178.5 80t-67.5 228q0 137 38 272 t113 242.5t184.5 175t252.5 67.5q111 0 186.5 -18t133.5 -45zM401 109q51 0 101.5 26.5t92.5 68.5t76 91t56 92l104 494q-33 18 -79.5 24t-96.5 6q-84 0 -155.5 -49t-123.5 -132t-83 -191.5t-31 -227.5q0 -94 38 -148t101 -54zM551 1475q18 -74 56 -116t109 -42 q78 0 144.5 42t113.5 116l72 -37q-16 -49 -50 -97.5t-80 -85t-102.5 -59t-113.5 -22.5q-106 0 -175 68.5t-73 184.5z" />
<glyph unicode="&#x122;" horiz-adv-x="1193" d="M768 715h238h139l-133 -631q-145 -109 -361 -109q-102 0 -193 37t-161 110t-111 181.5t-41 253.5q0 252 74 424t189.5 277.5t255 152.5t270.5 47q117 0 193.5 -15.5t123.5 -37.5l-71 -150q-41 23 -110 37.5t-155 14.5q-119 0 -226 -46.5t-190 -138.5t-132.5 -228 t-49.5 -316q0 -92 22.5 -174t69 -143.5t115 -97.5t162.5 -36q66 0 113 13.5t94 37.5l84 400l-229 40zM520 -215q0 47 37 74.5t78 27.5q53 0 75.5 -32.5t22.5 -81.5q0 -59 -24.5 -106.5t-58.5 -82.5t-68.5 -57.5t-57.5 -28.5l-37 66q41 23 74 55.5t41 81.5q-41 0 -61.5 22.5 t-20.5 61.5z" />
<glyph unicode="&#x123;" horiz-adv-x="1034" d="M788 -47q-43 -201 -148 -294t-280 -93q-133 0 -219 33.5t-131 58.5l68 115q16 -8 39.5 -21.5t57.5 -26t82 -20.5t114 -8q102 0 171.5 73.5t104.5 231.5l37 172h-8q-29 -39 -62.5 -73.5t-74.5 -62.5t-89.5 -44.5t-105.5 -16.5q-111 0 -178.5 80t-67.5 228q0 137 38 272 t113 242.5t184.5 175t252.5 67.5q111 0 186.5 -18t133.5 -45zM401 109q51 0 101.5 26.5t92.5 68.5t76 91t56 92l104 494q-33 18 -79.5 24t-96.5 6q-84 0 -155.5 -49t-123.5 -132t-83 -191.5t-31 -227.5q0 -94 38 -148t101 -54zM835.018 1252.99 q0 -46.9971 -36.9971 -74.4961q-36.998 -27.498 -77.9951 -27.498q-52.9971 0 -75.4961 32.498q-22.498 32.498 -22.498 81.4951q0 58.9961 24.498 106.493q24.499 47.4971 58.4971 82.4951q33.9971 34.998 68.4951 57.4961q34.498 22.499 57.4971 28.499l36.9971 -65.9961 q-40.9971 -22.999 -73.9951 -55.4971t-40.9971 -81.4951q40.9971 0 61.4961 -22.498q20.498 -22.499 20.498 -61.4961z" />
<glyph unicode="&#x124;" horiz-adv-x="1308" d="M1034 657h-651l-137 -657h-164l303 1434h164l-131 -625h649l131 625h164l-303 -1434h-164zM911 1782h99l203 -209l-9 -43h-139l-94 100l-21 72l-51 -70l-145 -102h-154l10 45z" />
<glyph unicode="&#x125;" horiz-adv-x="1083" d="M698 0l123 584q12 61 20.5 109t8.5 85q0 76 -31 108t-96 32q-53 0 -108.5 -28t-106.5 -71t-91 -96t-61 -102l-129 -621h-153l303 1434h153l-127 -586h9q27 33 64.5 67.5t86.5 64.5t106.5 49.5t125.5 19.5q100 0 157.5 -48.5t57.5 -175.5q0 -86 -27 -207l-131 -618h-154z M759 1782h99l203 -209l-9 -43h-139l-94 100l-21 72l-51 -70l-145 -102h-154l10 45z" />
<glyph unicode="&#x126;" horiz-adv-x="1320" d="M193 1202h149l49 232h164l-49 -232h649l49 232h164l-49 -232h158l-27 -131h-160l-225 -1071h-164l139 657h-651l-137 -657h-164l225 1071h-149zM1073 809l55 262h-649l-55 -262h649z" />
<glyph unicode="&#x127;" horiz-adv-x="1085" d="M190 1294h156l31 140h153l-30 -140h311l-25 -123h-313l-70 -323h9q27 33 64.5 67.5t86.5 64.5t106.5 49.5t125.5 19.5q100 0 157.5 -48.5t57.5 -175.5q0 -86 -27 -207l-131 -618h-154l123 584q12 61 20.5 109t8.5 85q0 76 -31 108t-96 32q-53 0 -108.5 -28t-106.5 -71 t-91 -96t-61 -102l-129 -621h-153l248 1171h-158z" />
<glyph unicode="&#x12a;" horiz-adv-x="567" d="M430 1434h164l-303 -1434h-164zM250 1726h614l-27 -127h-616z" />
<glyph unicode="&#x12b;" horiz-adv-x="530" d="M328 1024h153l-217 -1024h-153zM183 1317h575l-27 -127h-577z" />
<glyph unicode="&#x12e;" horiz-adv-x="567" d="M430 1434h164l-303 -1434h-35q-59 -31 -106.5 -79t-47.5 -120q0 -35 19.5 -58.5t62.5 -23.5q39 0 86 17l2 -88q-37 -25 -86 -36t-90 -11q-70 0 -114.5 35.5t-47.5 113.5q0 86 61.5 150.5t143.5 99.5h-12z" />
<glyph unicode="&#x12f;" horiz-adv-x="532" d="M328 1024h153l-217 -1024h-33q-55 -33 -97 -78t-54 -102l-2 -25q0 -35 21.5 -57.5t70.5 -20.5q35 4 74 19l2 -88q-27 -20 -78 -33.5t-92 -13.5q-82 -2 -124 33.5t-42 99.5q0 88 62.5 158.5t150.5 107.5h-12zM362 1337q0 47 32 80t79 33t80 -33t33 -80t-33 -78.5 t-80 -31.5t-79 31.5t-32 78.5z" />
<glyph unicode="&#x130;" horiz-adv-x="567" d="M430 1434h164l-303 -1434h-164zM428 1630q0 47 35 78t86 31q53 0 88 -31t35 -78q0 -45 -35 -75.5t-88 -30.5q-51 0 -86 30.5t-35 75.5z" />
<glyph unicode="&#x131;" horiz-adv-x="530" d="M328 1024h153l-217 -1024h-153z" />
<glyph unicode="&#x134;" horiz-adv-x="569" d="M455 1434h163l-237 -1119q-18 -82 -44 -144t-66 -105t-98 -64.5t-140 -21.5q-16 0 -38 2t-44.5 6t-43 10t-32.5 14l62 146q39 -27 110 -27q43 0 71.5 15.5t49 45t34 70.5t23.5 94zM550 1782h99l203 -209l-9 -43h-139l-94 100l-21 72l-51 -70l-145 -102h-154l10 45z" />
<glyph unicode="&#x135;" horiz-adv-x="509" d="M303 1024h154l-219 -1026q-45 -244 -136.5 -334t-234.5 -90q-16 0 -31.5 1t-32.5 3l31 133q61 0 101 17.5t68 54.5t47.5 92t35.5 127zM463 1499h62l135 -373h-129l-49 136l-13 118l-69 -118l-117 -136h-139z" />
<glyph unicode="&#x136;" horiz-adv-x="1179" d="M489 664h-104l-139 -664h-164l303 1434h164l-143 -668l81 29l588 639h203l-586 -623l-94 -63l80 -82l358 -666h-186zM340 -215q0 47 37 74.5t78 27.5q53 0 75.5 -32.5t22.5 -81.5q0 -59 -24.5 -106.5t-58.5 -82.5t-68.5 -57.5t-57.5 -28.5l-37 66q41 23 74 55.5t41 81.5 q-41 0 -61.5 22.5t-20.5 61.5z" />
<glyph unicode="&#x137;" horiz-adv-x="919" d="M434 461h-110l-97 -461h-153l303 1434h153l-186 -873l88 23l369 440h188l-364 -416l-97 -67l78 -80l230 -461h-170zM236 -215q0 47 37 74.5t78 27.5q53 0 75.5 -32.5t22.5 -81.5q0 -59 -24.5 -106.5t-58.5 -82.5t-68.5 -57.5t-57.5 -28.5l-37 66q41 23 74 55.5t41 81.5 q-41 0 -61.5 22.5t-20.5 61.5z" />
<glyph unicode="&#x139;" horiz-adv-x="1007" d="M889 0h-647h-160l303 1434h164l-273 -1282h644zM721 1782h237l-10 -43l-358 -199h-150z" />
<glyph unicode="&#x13a;" horiz-adv-x="552" d="M272 244q-6 -35 -6 -58q0 -39 13.5 -56t35.5 -17q41 0 69 5t67 19v-117q-18 -10 -43 -17t-50.5 -11t-51 -7t-46.5 -3q-72 0 -115 32.5t-43 120.5q0 41 13 101l254 1198h153zM668 1782h237l-10 -43l-358 -199h-150z" />
<glyph unicode="&#x13b;" horiz-adv-x="1007" d="M889 0h-647h-160l303 1434h164l-273 -1282h644zM315 -215q0 47 37 74.5t78 27.5q53 0 75.5 -32.5t22.5 -81.5q0 -59 -24.5 -106.5t-58.5 -82.5t-68.5 -57.5t-57.5 -28.5l-37 66q41 23 74 55.5t41 81.5q-41 0 -61.5 22.5t-20.5 61.5z" />
<glyph unicode="&#x13c;" horiz-adv-x="552" d="M272 244q-6 -35 -6 -58q0 -39 13.5 -56t35.5 -17q41 0 69 5t67 19v-117q-18 -10 -43 -17t-50.5 -11t-51 -7t-46.5 -3q-72 0 -115 32.5t-43 120.5q0 41 13 101l254 1198h153zM86 -215q0 47 37 74.5t78 27.5q53 0 75.5 -32.5t22.5 -81.5q0 -59 -24.5 -106.5t-58.5 -82.5 t-68.5 -57.5t-57.5 -28.5l-37 66q41 23 74 55.5t41 81.5q-41 0 -61.5 22.5t-20.5 61.5z" />
<glyph unicode="&#x13d;" horiz-adv-x="1007" d="M889 0h-647h-160l303 1434h164l-273 -1282h644zM1057 1434q-16 -59 -48 -122t-69 -116t-71 -94t-54 -60l-55 37q49 74 85 167t56 188h156z" />
<glyph unicode="&#x13e;" horiz-adv-x="552" d="M272 244q-6 -35 -6 -58q0 -39 13.5 -56t35.5 -17q41 0 69 5t67 19v-117q-18 -10 -43 -17t-50.5 -11t-51 -7t-46.5 -3q-72 0 -115 32.5t-43 120.5q0 41 13 101l254 1198h153zM830 1434q-16 -59 -48 -122t-69 -116t-71 -94t-54 -60l-55 37q49 74 85 167t56 188h156z" />
<glyph unicode="&#x141;" horiz-adv-x="1009" d="M74 588l157 110l156 736h164l-129 -600l246 172l-35 -164l-244 -170l-110 -520h643l-31 -152h-643h-164l115 541l-158 -109z" />
<glyph unicode="&#x142;" horiz-adv-x="552" d="M39 584l176 123l154 727h153l-127 -600l238 167l-35 -163l-236 -164l-90 -430q-6 -35 -6 -58q0 -39 13.5 -56t35.5 -17q41 0 69 5t67 19v-117q-18 -10 -43 -17t-50.5 -11t-51 -7t-46.5 -3q-72 0 -115 32.5t-43 120.5q0 41 13 101l65 313l-174 -121z" />
<glyph unicode="&#x143;" horiz-adv-x="1314" d="M535 938l-70 211h-6l-25 -211l-198 -938h-154l309 1456h82l447 -958l67 -201h8l19 201l200 936h154l-309 -1457h-76zM1073 1782h237l-10 -43l-358 -199h-150z" />
<glyph unicode="&#x144;" horiz-adv-x="1069" d="M658 0l137 647q8 37 14.5 73t6.5 64q0 59 -28 96.5t-103 37.5q-53 0 -104.5 -25t-96.5 -62.5t-81 -84t-61 -91.5l-135 -655h-153l217 1024h106l-8 -176h8q27 33 64 68.5t83 64.5t103.5 48.5t126.5 19.5q102 0 161.5 -49.5t59.5 -172.5q0 -61 -18 -147l-146 -680h-153z M821 1475h172l-10 -43l-252 -263h-90z" />
<glyph unicode="&#x145;" horiz-adv-x="1314" d="M535 938l-70 211h-6l-25 -211l-198 -938h-154l309 1456h82l447 -958l67 -201h8l19 201l200 936h154l-309 -1457h-76zM420 -215q0 47 37 74.5t78 27.5q53 0 75.5 -32.5t22.5 -81.5q0 -59 -24.5 -106.5t-58.5 -82.5t-68.5 -57.5t-57.5 -28.5l-37 66q41 23 74 55.5t41 81.5 q-41 0 -61.5 22.5t-20.5 61.5z" />
<glyph unicode="&#x146;" horiz-adv-x="1069" d="M658 0l137 647q8 37 14.5 73t6.5 64q0 59 -28 96.5t-103 37.5q-53 0 -104.5 -25t-96.5 -62.5t-81 -84t-61 -91.5l-135 -655h-153l217 1024h106l-8 -176h8q27 33 64 68.5t83 64.5t103.5 48.5t126.5 19.5q102 0 161.5 -49.5t59.5 -172.5q0 -61 -18 -147l-146 -680h-153z M297 -215q0 47 37 74.5t78 27.5q53 0 75.5 -32.5t22.5 -81.5q0 -59 -24.5 -106.5t-58.5 -82.5t-68.5 -57.5t-57.5 -28.5l-37 66q41 23 74 55.5t41 81.5q-41 0 -61.5 22.5t-20.5 61.5z" />
<glyph unicode="&#x147;" horiz-adv-x="1314" d="M535 938l-70 211h-6l-25 -211l-198 -938h-154l309 1456h82l447 -958l67 -201h8l19 201l200 936h154l-309 -1457h-76zM943 1528h-97l-198 211l6 43h137l94 -103l19 -69l49 67l145 105h156l-8 -45z" />
<glyph unicode="&#x148;" horiz-adv-x="1069" d="M658 0l137 647q8 37 14.5 73t6.5 64q0 59 -28 96.5t-103 37.5q-53 0 -104.5 -25t-96.5 -62.5t-81 -84t-61 -91.5l-135 -655h-153l217 1024h106l-8 -176h8q27 33 64 68.5t83 64.5t103.5 48.5t126.5 19.5q102 0 161.5 -49.5t59.5 -172.5q0 -61 -18 -147l-146 -680h-153z M721 1126h-71l-146 373h148l47 -135l14 -119l70 119l114 135h144z" />
<glyph unicode="&#x14c;" horiz-adv-x="1333" d="M145 524q0 188 51.5 358.5t146.5 298.5t229.5 202.5t297.5 74.5q98 0 182.5 -29.5t144.5 -94t94 -167t34 -249.5q0 -193 -51 -364t-143.5 -300t-220.5 -204t-281 -75q-242 0 -363 140.5t-121 408.5zM317 526q0 -193 80 -298t236 -105q115 0 210 63.5t164.5 172t107.5 252 t38 302.5q0 119 -26.5 197t-70.5 122t-100.5 61.5t-113.5 17.5q-117 0 -213.5 -64.5t-165 -173t-107.5 -251t-39 -296.5zM639 1726h614l-27 -127h-616z" />
<glyph unicode="&#x14d;" horiz-adv-x="1019" d="M102 319q0 162 42 296.5t116 230.5t171 149.5t208 53.5q86 0 146.5 -28t98.5 -76t54 -110.5t16 -129.5q0 -154 -40 -287t-110.5 -231.5t-164.5 -155t-205 -56.5q-92 0 -154.5 30t-102.5 79t-57.5 110.5t-17.5 124.5zM266 356q0 -121 45 -185.5t144 -64.5q68 0 128 48.5 t106 130.5t74 187.5t28 219.5q0 104 -38 165t-145 61q-68 0 -129 -46.5t-109 -124t-76 -179t-28 -212.5zM416 1317h575l-27 -127h-577z" />
<glyph unicode="&#x150;" horiz-adv-x="1333" d="M145 524q0 188 51.5 358.5t146.5 298.5t229.5 202.5t297.5 74.5q98 0 182.5 -29.5t144.5 -94t94 -167t34 -249.5q0 -193 -51 -364t-143.5 -300t-220.5 -204t-281 -75q-242 0 -363 140.5t-121 408.5zM317 526q0 -193 80 -298t236 -105q115 0 210 63.5t164.5 172t107.5 252 t38 302.5q0 119 -26.5 197t-70.5 122t-100.5 61.5t-113.5 17.5q-117 0 -213.5 -64.5t-165 -173t-107.5 -251t-39 -296.5zM870 1741h181l-7 -33l-235 -190h-111zM1186 1741h190l-6 -33l-319 -190h-111z" />
<glyph unicode="&#x151;" horiz-adv-x="1019" d="M102 319q0 162 42 296.5t116 230.5t171 149.5t208 53.5q86 0 146.5 -28t98.5 -76t54 -110.5t16 -129.5q0 -154 -40 -287t-110.5 -231.5t-164.5 -155t-205 -56.5q-92 0 -154.5 30t-102.5 79t-57.5 110.5t-17.5 124.5zM266 356q0 -121 45 -185.5t144 -64.5q68 0 128 48.5 t106 130.5t74 187.5t28 219.5q0 104 -38 165t-145 61q-68 0 -129 -46.5t-109 -124t-76 -179t-28 -212.5zM615 1434h151l-6 -33l-186 -232h-82zM899 1434h166l-6 -33l-268 -232h-90z" />
<glyph unicode="&#x152;" horiz-adv-x="1818" d="M1124 1266q-47 23 -104 34t-154 11q-133 0 -235.5 -64.5t-172 -173t-104.5 -250t-35 -297.5q0 -61 12.5 -131.5t47.5 -131t98.5 -100.5t165.5 -40q29 0 55.5 1t55 4t61.5 10t76 20zM858 0q-53 -12 -100 -18.5t-123 -6.5q-96 0 -184.5 27t-156 90.5t-107.5 169t-40 262.5 q0 197 51.5 368t147.5 297t233.5 197.5t311.5 71.5q45 0 77.5 -1t62.5 -4t59.5 -8t70.5 -11h742l-33 -152h-578l-100 -469h528l-30 -151h-531l-106 -510h587l-30 -152h-752z" />
<glyph unicode="&#x153;" horiz-adv-x="1605" d="M266 356q0 -121 45 -185.5t144 -64.5q68 0 129 48.5t107 130.5t74 187.5t28 219.5q0 104 -39 165t-146 61q-68 0 -129 -46.5t-109 -124t-76 -179t-28 -212.5zM793 195q-59 -98 -156.5 -159t-202.5 -61q-92 0 -154.5 30t-102.5 79t-57.5 110.5t-17.5 124.5q0 162 42 296.5 t116 230.5t171 149.5t208 53.5q129 0 195.5 -62.5t89.5 -163.5q70 109 170 167.5t211 58.5q74 0 128 -20.5t88.5 -54.5t51 -78t16.5 -93q0 -145 -141 -228t-412 -83q-25 0 -51.5 1t-54.5 3q-8 -39 -11.5 -74t-3.5 -62q0 -113 50.5 -183.5t158.5 -70.5q90 0 165 30t116 63 l49 -99q-72 -61 -169 -93t-195 -32q-59 0 -108.5 17.5t-87.5 47.5t-63.5 70t-37.5 85zM1280 918q-113 0 -194.5 -77t-127.5 -231h33q66 0 142.5 4t143 21.5t111 55.5t44.5 106q0 20 -7.5 41.5t-24 39t-46 29t-74.5 11.5z" />
<glyph unicode="&#x154;" horiz-adv-x="1163" d="M383 1419q86 16 166 23.5t160 7.5q78 0 151.5 -19.5t130 -61.5t90 -109.5t33.5 -163.5q0 -180 -105.5 -300t-306.5 -155l74 -74l221 -567h-178l-246 618l-192 31l-135 -649h-164zM698 1303q-49 0 -98 -3.5t-82 -9.5l-112 -528h141q74 0 144.5 14.5t126.5 51t90 100 t34 159.5q0 37 -14.5 75t-43 70t-76 51.5t-110.5 19.5zM903 1782h237l-10 -43l-358 -199h-150z" />
<glyph unicode="&#x155;" horiz-adv-x="669" d="M741 889q-18 4 -37.5 6t-35.5 2q-104 0 -180 -65.5t-119 -159.5l-142 -672h-153l217 1024h106v-176h9q25 39 53 72.5t63 60.5t76 42t90 15q45 0 94 -14zM618 1475h172l-10 -43l-252 -263h-90z" />
<glyph unicode="&#x156;" horiz-adv-x="1163" d="M383 1419q86 16 166 23.5t160 7.5q78 0 151.5 -19.5t130 -61.5t90 -109.5t33.5 -163.5q0 -180 -105.5 -300t-306.5 -155l74 -74l221 -567h-178l-246 618l-192 31l-135 -649h-164zM698 1303q-49 0 -98 -3.5t-82 -9.5l-112 -528h141q74 0 144.5 14.5t126.5 51t90 100 t34 159.5q0 37 -14.5 75t-43 70t-76 51.5t-110.5 19.5zM340 -215q0 47 37 74.5t78 27.5q53 0 75.5 -32.5t22.5 -81.5q0 -59 -24.5 -106.5t-58.5 -82.5t-68.5 -57.5t-57.5 -28.5l-37 66q41 23 74 55.5t41 81.5q-41 0 -61.5 22.5t-20.5 61.5z" />
<glyph unicode="&#x157;" horiz-adv-x="669" d="M741 889q-18 4 -37.5 6t-35.5 2q-104 0 -180 -65.5t-119 -159.5l-142 -672h-153l217 1024h106v-176h9q25 39 53 72.5t63 60.5t76 42t90 15q45 0 94 -14zM45 -215q0 47 37 74.5t78 27.5q53 0 75.5 -32.5t22.5 -81.5q0 -59 -24.5 -106.5t-58.5 -82.5t-68.5 -57.5 t-57.5 -28.5l-37 66q41 23 74 55.5t41 81.5q-41 0 -61.5 22.5t-20.5 61.5z" />
<glyph unicode="&#x158;" horiz-adv-x="1163" d="M383 1419q86 16 166 23.5t160 7.5q78 0 151.5 -19.5t130 -61.5t90 -109.5t33.5 -163.5q0 -180 -105.5 -300t-306.5 -155l74 -74l221 -567h-178l-246 618l-192 31l-135 -649h-164zM698 1303q-49 0 -98 -3.5t-82 -9.5l-112 -528h141q74 0 144.5 14.5t126.5 51t90 100 t34 159.5q0 37 -14.5 75t-43 70t-76 51.5t-110.5 19.5zM775 1528h-97l-198 211l6 43h137l94 -103l19 -69l49 67l145 105h156l-8 -45z" />
<glyph unicode="&#x159;" horiz-adv-x="669" d="M741 889q-18 4 -37.5 6t-35.5 2q-104 0 -180 -65.5t-119 -159.5l-142 -672h-153l217 1024h106v-176h9q25 39 53 72.5t63 60.5t76 42t90 15q45 0 94 -14zM561 1126h-71l-146 373h148l47 -135l14 -119l70 119l114 135h144z" />
<glyph unicode="&#x15a;" horiz-adv-x="1034" d="M795 369q0 74 -38 125t-95.5 93t-124 81t-124 90t-95 120.5t-37.5 172.5q0 109 39.5 186.5t108.5 126.5t162 71.5t197 22.5q119 0 213.5 -18.5t147.5 -46.5l-82 -146q-41 23 -122 43.5t-187 20.5q-135 0 -220 -61.5t-85 -178.5q0 -76 37.5 -128t95 -94t124 -81t124 -89 t95.5 -120t38 -170q0 -199 -143.5 -306.5t-411.5 -107.5q-137 0 -232.5 24t-144.5 52l84 150q47 -27 128 -52.5t191 -25.5q63 0 127 11t115 40t83 76t32 119zM954 1782h237l-10 -43l-358 -199h-150z" />
<glyph unicode="&#x15b;" horiz-adv-x="815" d="M530 289q0 53 -26.5 90t-67.5 66.5t-88 58t-88 64.5t-67.5 84t-26.5 120q0 57 27.5 107.5t75.5 88.5t115 59.5t144 21.5q109 0 168.5 -14.5t106.5 -41.5l-51 -123q-82 47 -224 48q-86 0 -142 -36t-56 -110q0 -43 26.5 -74.5t67.5 -60.5t88 -58.5t88 -67.5t67.5 -89 t26.5 -121q0 -160 -107.5 -243t-287.5 -83q-92 0 -169 18.5t-124 47.5l57 129q41 -27 108 -45.5t138 -18.5q100 0 160.5 44.5t60.5 138.5zM673 1475h172l-10 -43l-252 -263h-90z" />
<glyph unicode="&#x15c;" horiz-adv-x="1034" d="M801 369q0 74 -38 125t-95.5 93t-124 81t-124 90t-95 120.5t-37.5 172.5q0 109 39.5 186.5t108.5 126.5t162 71.5t197 22.5q119 0 213.5 -18.5t147.5 -46.5l-82 -146q-41 23 -122 43.5t-187 20.5q-135 0 -220 -61.5t-85 -178.5q0 -76 37.5 -128t95 -94t124 -81t124 -89 t95.5 -120t38 -170q0 -199 -143.5 -306.5t-411.5 -107.5q-137 0 -232.5 24t-144.5 52l84 150q47 -27 128 -52.5t191 -25.5q63 0 127 11t115 40t83 76t32 119zM806 1782h99l203 -209l-9 -43h-139l-94 100l-21 72l-51 -70l-145 -102h-154l10 45z" />
<glyph unicode="&#x15d;" horiz-adv-x="815" d="M530 289q0 53 -26.5 90t-67.5 66.5t-88 58t-88 64.5t-67.5 84t-26.5 120q0 57 27.5 107.5t75.5 88.5t115 59.5t144 21.5q109 0 168.5 -14.5t106.5 -41.5l-51 -123q-82 47 -224 48q-86 0 -142 -36t-56 -110q0 -43 26.5 -74.5t67.5 -60.5t88 -58.5t88 -67.5t67.5 -89 t26.5 -121q0 -160 -107.5 -243t-287.5 -83q-92 0 -169 18.5t-124 47.5l57 129q41 -27 108 -45.5t138 -18.5q100 0 160.5 44.5t60.5 138.5zM610 1499h62l135 -373h-129l-49 136l-13 118l-69 -118l-117 -136h-139z" />
<glyph unicode="&#x15e;" horiz-adv-x="1034" d="M801 369q0 74 -38 125t-95.5 93t-124 81t-124 90t-95 120.5t-37.5 172.5q0 109 40 186.5t108.5 126.5t161.5 71.5t198 22.5q119 0 213 -18.5t147 -46.5l-82 -146q-41 23 -122 43.5t-187 20.5q-135 0 -220 -61.5t-85 -178.5q0 -76 38 -128t95 -94t123.5 -81t124 -89 t95.5 -120t38 -170q0 -182 -123 -288.5t-352 -123.5l-49 -65q55 -6 90.5 -42t35.5 -101q0 -86 -64.5 -141.5t-193.5 -55.5q-25 0 -52 3t-56 7l35 80q10 -2 21 -2h22q43 0 71.5 8t45 19.5t22.5 26t6 26.5q0 39 -43 57.5t-115 18.5l115 159q-127 4 -214 26t-134 50l84 150 q47 -27 128 -52.5t191 -25.5q63 0 127 11t115 40t83 76t32 119z" />
<glyph unicode="&#x15f;" horiz-adv-x="815" d="M530 289q0 53 -26.5 90t-67.5 66.5t-88 58t-88 64.5t-67.5 84t-26.5 120q0 57 27.5 107.5t75.5 88.5t115 59.5t144 21.5q109 0 168.5 -14.5t106.5 -41.5l-51 -123q-82 47 -224 48q-86 0 -142 -36t-56 -110q0 -43 26.5 -74.5t67.5 -60.5t88 -58.5t88 -67.5t67.5 -89 t26.5 -121q0 -147 -92 -230t-248 -96l-49 -63q55 -6 91 -42t36 -101q0 -86 -64.5 -141.5t-193.5 -55.5q-25 0 -52.5 3t-55.5 7l34 80q10 -2 22 -2h21q43 0 72 8t45 19.5t22.5 26t6.5 26.5q0 39 -43 57.5t-115 18.5l117 159q-78 4 -139.5 21.5t-102.5 44.5l57 129 q41 -27 108 -45.5t138 -18.5q100 0 160.5 44.5t60.5 138.5z" />
<glyph unicode="&#x160;" horiz-adv-x="1034" d="M795 369q0 74 -38 125t-95.5 93t-124 81t-124 90t-95 120.5t-37.5 172.5q0 109 39.5 186.5t108.5 126.5t162 71.5t197 22.5q119 0 213.5 -18.5t147.5 -46.5l-82 -146q-41 23 -122 43.5t-187 20.5q-135 0 -220 -61.5t-85 -178.5q0 -76 37.5 -128t95 -94t124 -81t124 -89 t95.5 -120t38 -170q0 -199 -143.5 -306.5t-411.5 -107.5q-137 0 -232.5 24t-144.5 52l84 150q47 -27 128 -52.5t191 -25.5q63 0 127 11t115 40t83 76t32 119zM863 1528h-97l-198 211l6 43h137l94 -103l19 -69l49 67l145 105h156l-8 -45z" />
<glyph unicode="&#x161;" horiz-adv-x="815" d="M530 289q0 53 -26.5 90t-67.5 66.5t-88 58t-88 64.5t-67.5 84t-26.5 120q0 57 27.5 107.5t75.5 88.5t115 59.5t144 21.5q109 0 168.5 -14.5t106.5 -41.5l-51 -123q-82 47 -224 48q-86 0 -142 -36t-56 -110q0 -43 26.5 -74.5t67.5 -60.5t88 -58.5t88 -67.5t67.5 -89 t26.5 -121q0 -160 -107.5 -243t-287.5 -83q-92 0 -169 18.5t-124 47.5l57 129q41 -27 108 -45.5t138 -18.5q100 0 160.5 44.5t60.5 138.5zM579 1126h-71l-146 373h148l47 -135l14 -119l70 119l114 135h144z" />
<glyph unicode="&#x162;" horiz-adv-x="1081" d="M1233 1282h-424l-270 -1282h-164l270 1282h-420l31 152h1008zM299 -215q0 47 37 74.5t78 27.5q53 0 75.5 -32.5t22.5 -81.5q0 -59 -24.5 -106.5t-58.5 -82.5t-68.5 -57.5t-57.5 -28.5l-37 66q41 23 74 55.5t41 81.5q-41 0 -61.5 22.5t-20.5 61.5z" />
<glyph unicode="&#x21a;" horiz-adv-x="1081" d="M1233 1282h-424l-270 -1282h-164l270 1282h-420l31 152h1008zM299 -215q0 47 37 74.5t78 27.5q53 0 75.5 -32.5t22.5 -81.5q0 -59 -24.5 -106.5t-58.5 -82.5t-68.5 -57.5t-57.5 -28.5l-37 66q41 23 74 55.5t41 81.5q-41 0 -61.5 22.5t-20.5 61.5z" />
<glyph unicode="&#x163;" horiz-adv-x="641" d="M145 1024h152l43 203l164 47l-53 -250h268l-31 -131h-266l-129 -619l-7 -45t-3 -36q0 -49 22.5 -68t67.5 -19q49 0 90 12.5t82 37.5v-125q-43 -25 -110.5 -40.5t-129.5 -15.5q-186 0 -186 170q0 35 10 86l139 662h-153zM123 -215q0 47 37 74.5t78 27.5q53 0 75.5 -32.5 t22.5 -81.5q0 -59 -24.5 -106.5t-58.5 -82.5t-68.5 -57.5t-57.5 -28.5l-37 66q41 23 74 55.5t41 81.5q-41 0 -61.5 22.5t-20.5 61.5z" />
<glyph unicode="&#x21b;" horiz-adv-x="641" d="M145 1024h152l43 203l164 47l-53 -250h268l-31 -131h-266l-129 -619l-7 -45t-3 -36q0 -49 22.5 -68t67.5 -19q49 0 90 12.5t82 37.5v-125q-43 -25 -110.5 -40.5t-129.5 -15.5q-186 0 -186 170q0 35 10 86l139 662h-153zM123 -215q0 47 37 74.5t78 27.5q53 0 75.5 -32.5 t22.5 -81.5q0 -59 -24.5 -106.5t-58.5 -82.5t-68.5 -57.5t-57.5 -28.5l-37 66q41 23 74 55.5t41 81.5q-41 0 -61.5 22.5t-20.5 61.5z" />
<glyph unicode="&#x164;" horiz-adv-x="1081" d="M1233 1282h-424l-270 -1282h-164l270 1282h-420l31 152h1008zM828 1528h-97l-198 211l6 43h137l94 -103l19 -69l49 67l145 105h156l-8 -45z" />
<glyph unicode="&#x165;" horiz-adv-x="641" d="M145 1024h152l43 203l164 47l-53 -250h268l-31 -131h-266l-129 -619l-7 -45t-3 -36q0 -49 22.5 -68t67.5 -19q49 0 90 12.5t82 37.5v-125q-43 -25 -110.5 -40.5t-129.5 -15.5q-186 0 -186 170q0 35 10 86l139 662h-153zM826 1463q-16 -59 -48 -122t-69 -116t-71 -94 t-54 -60l-55 37q49 74 85 167t56 188h156z" />
<glyph unicode="&#x16a;" horiz-adv-x="1265" d="M1174 1434h155l-201 -957q-29 -131 -71.5 -225t-107 -153.5t-154.5 -88t-209 -28.5q-113 0 -191 25.5t-126 71.5t-69.5 112.5t-21.5 146.5q0 84 23 190l190 906h164l-190 -908q-23 -90 -23 -164q0 -129 67.5 -179t200.5 -50q80 0 140.5 22.5t104.5 69.5t73.5 121 t52.5 178zM600 1726h614l-27 -127h-616z" />
<glyph unicode="&#x16b;" horiz-adv-x="1046" d="M436 1024l-143 -682q-12 -55 -12 -102q0 -57 22.5 -95.5t81.5 -38.5q49 0 99.5 25t96.5 63.5t83.5 86t62.5 92.5l137 651h154l-129 -608q-8 -35 -16.5 -85t-15.5 -105.5t-11 -107.5t-4 -91v-27h-121v195h-8q-31 -41 -71 -80t-88 -70t-103.5 -50.5t-116.5 -19.5 q-45 0 -83 10.5t-66.5 36t-45 67.5t-16.5 108q0 72 20 161l140 666h153zM422 1317h575l-27 -127h-577z" />
<glyph unicode="&#x16c;" horiz-adv-x="1265" d="M1174 1434h155l-201 -957q-29 -131 -71.5 -225t-107 -153.5t-154.5 -88t-209 -28.5q-113 0 -191 25.5t-126 71.5t-69.5 112.5t-21.5 146.5q0 84 23 190l190 906h164l-190 -908q-23 -90 -23 -164q0 -129 67.5 -179t200.5 -50q80 0 140.5 22.5t104.5 69.5t73.5 121 t52.5 178zM651 1784q23 -72 74 -110t131 -38q66 0 113 12.5t81.5 32t61 46t49.5 57.5l84 -39q-51 -123 -151.5 -186.5t-243.5 -63.5q-59 0 -108.5 19.5t-85.5 52t-57.5 77t-27.5 91.5z" />
<glyph unicode="&#x16d;" horiz-adv-x="1046" d="M436 1024l-143 -682q-12 -55 -12 -102q0 -57 22.5 -95.5t81.5 -38.5q49 0 99.5 25t96.5 63.5t83.5 86t62.5 92.5l137 651h154l-129 -608q-8 -35 -16.5 -85t-15.5 -105.5t-11 -107.5t-4 -91v-27h-121v195h-8q-31 -41 -71 -80t-88 -70t-103.5 -50.5t-116.5 -19.5 q-45 0 -83 10.5t-66.5 36t-45 67.5t-16.5 108q0 72 20 161l140 666h153zM535 1475q18 -74 56 -116t109 -42q78 0 144.5 42t113.5 116l72 -37q-16 -49 -50 -97.5t-80 -85t-102.5 -59t-113.5 -22.5q-106 0 -175 68.5t-73 184.5z" />
<glyph unicode="&#x16e;" horiz-adv-x="1265" d="M1174 1434h155l-201 -957q-29 -131 -71.5 -225t-107 -153.5t-154.5 -88t-209 -28.5q-113 0 -191 25.5t-126 71.5t-69.5 112.5t-21.5 146.5q0 84 23 190l190 906h164l-190 -908q-23 -90 -23 -164q0 -129 67.5 -179t200.5 -50q80 0 140.5 22.5t104.5 69.5t73.5 121 t52.5 178zM677 1573q0 76 51.5 125t164.5 49q102 0 159.5 -44t57.5 -130q0 -74 -54.5 -122t-162.5 -48q-104 0 -160 46t-56 124zM802 1573q0 -35 21.5 -58.5t69.5 -23.5q45 0 68.5 22.5t23.5 59.5q0 39 -22.5 62.5t-69.5 23.5q-45 0 -68 -23.5t-23 -62.5z" />
<glyph unicode="&#x16f;" horiz-adv-x="1046" d="M436 1024l-143 -682q-12 -55 -12 -102q0 -57 22.5 -95.5t81.5 -38.5q49 0 99.5 25t96.5 63.5t83.5 86t62.5 92.5l137 651h154l-129 -608q-8 -35 -16.5 -85t-15.5 -105.5t-11 -107.5t-4 -91v-27h-121v195h-8q-31 -41 -71 -80t-88 -70t-103.5 -50.5t-116.5 -19.5 q-45 0 -83 10.5t-66.5 36t-45 67.5t-16.5 108q0 72 20 161l140 666h153zM504 1317q0 86 54 136t145 50q86 0 143 -45t57 -141q0 -80 -57 -132t-143 -52t-142.5 48t-56.5 136zM615 1317q0 -41 27.5 -63.5t60.5 -22.5q39 0 64.5 20.5t25.5 65.5t-28 66.5t-62 21.5 q-35 0 -61.5 -20.5t-26.5 -67.5z" />
<glyph unicode="&#x170;" horiz-adv-x="1265" d="M1174 1434h155l-201 -957q-29 -131 -71.5 -225t-107 -153.5t-154.5 -88t-209 -28.5q-113 0 -191 25.5t-126 71.5t-69.5 112.5t-21.5 146.5q0 84 23 190l190 906h164l-190 -908q-23 -90 -23 -164q0 -129 67.5 -179t200.5 -50q80 0 140.5 22.5t104.5 69.5t73.5 121 t52.5 178zM815 1741h181l-7 -33l-235 -190h-111zM1131 1741h190l-6 -33l-319 -190h-111z" />
<glyph unicode="&#x171;" horiz-adv-x="1046" d="M436 1024l-143 -682q-12 -55 -12 -102q0 -57 22.5 -95.5t81.5 -38.5q49 0 99.5 25t96.5 63.5t83.5 86t62.5 92.5l137 651h154l-129 -608q-8 -35 -16.5 -85t-15.5 -105.5t-11 -107.5t-4 -91v-27h-121v195h-8q-31 -41 -71 -80t-88 -70t-103.5 -50.5t-116.5 -19.5 q-45 0 -83 10.5t-66.5 36t-45 67.5t-16.5 108q0 72 20 161l140 666h153zM623 1434h151l-6 -33l-186 -232h-82zM907 1434h166l-6 -33l-268 -232h-90z" />
<glyph unicode="&#x172;" horiz-adv-x="1265" d="M1174 1434h155l-201 -957q-41 -199 -119.5 -312.5t-213.5 -156.5q-70 -33 -117 -83t-49 -122q0 -35 17.5 -58.5t64.5 -23.5q39 0 86 17l2 -90q-37 -25 -86 -36t-90 -11q-68 0 -114 36.5t-48 112.5q0 76 47 135.5t115 98.5q-10 0 -18.5 -1t-18.5 -1q-113 0 -191 25.5 t-126 71.5t-69.5 112.5t-21.5 146.5q0 84 23 190l190 906h164l-190 -908q-23 -90 -23 -164q0 -129 67.5 -179t200.5 -50q80 0 140.5 22.5t104.5 69.5t73.5 121t52.5 178z" />
<glyph unicode="&#x173;" horiz-adv-x="1046" d="M436 1024l-143 -682q-12 -55 -12 -102q0 -57 22.5 -95.5t81.5 -38.5q49 0 99.5 25t96.5 63.5t83.5 86t62.5 92.5l137 651h154l-129 -608q-8 -35 -16.5 -85t-15.5 -105.5t-11 -107.5t-4 -91v-27h-33q-29 -14 -57.5 -34.5t-52 -46t-41 -56.5t-17.5 -66t19.5 -57.5 t64.5 -22.5q35 0 82 21l2 -90q-35 -23 -86 -36t-92 -11q-74 0 -114 33.5t-44 101.5q-2 51 19.5 94t57.5 77t79 59.5t92 41.5v187h-8q-31 -41 -71 -80t-88 -70t-103.5 -50.5t-116.5 -19.5q-45 0 -83 10.5t-66.5 36t-45 67.5t-16.5 108q0 72 20 161l140 666h153z" />
<glyph unicode="&#x178;" horiz-adv-x="1087" d="M494 569l-273 865h178l183 -627l6 -125h2l61 129l445 623h184l-623 -863l-120 -571h-164zM516 1626q0 41 28.5 68.5t75.5 27.5t75 -27.5t28 -68.5t-28 -67.5t-75 -26.5t-75.5 26.5t-28.5 67.5zM891 1626q0 41 27.5 68.5t74.5 27.5t75.5 -27.5t28.5 -68.5t-28.5 -67.5 t-75.5 -26.5t-74.5 26.5t-27.5 67.5z" />
<glyph unicode="&#x179;" d="M29 154l891 1046l100 82h-750l31 152h916l-31 -154l-897 -1053l-96 -75h751l-31 -152h-915zM922 1782h237l-10 -43l-358 -199h-150z" />
<glyph unicode="&#x17a;" horiz-adv-x="878" d="M23 141l575 654l113 88h-529l31 141h690l-31 -141l-581 -660l-111 -82h535l-29 -141h-690zM688 1475h172l-10 -43l-252 -263h-90z" />
<glyph unicode="&#x17b;" d="M29 154l891 1046l100 82h-750l31 152h916l-31 -154l-897 -1053l-96 -75h751l-31 -152h-915zM676 1630q0 47 35 78t86 31q53 0 88 -31t35 -78q0 -45 -35 -75.5t-88 -30.5q-51 0 -86 30.5t-35 75.5z" />
<glyph unicode="&#x17c;" horiz-adv-x="878" d="M23 141l575 654l113 88h-529l31 141h690l-31 -141l-581 -660l-111 -82h535l-29 -141h-690zM475 1337q0 47 32 80t79 33t79.5 -33t32.5 -80t-32.5 -78.5t-79.5 -31.5t-79 31.5t-32 78.5z" />
<glyph unicode="&#x17d;" d="M29 154l891 1046l100 82h-750l31 152h916l-31 -154l-897 -1053l-96 -75h751l-31 -152h-915zM793 1528h-97l-198 211l6 43h137l94 -103l19 -69l49 67l145 105h156l-8 -45z" />
<glyph unicode="&#x17e;" horiz-adv-x="878" d="M23 141l575 654l113 88h-529l31 141h690l-31 -141l-581 -660l-111 -82h535l-29 -141h-690zM592 1126h-71l-146 373h148l47 -135l14 -119l70 119l114 135h144z" />
<glyph unicode="&#x17f;" horiz-adv-x="561" d="M295 893h-156l27 131h158l12 57q20 94 49 164t71 114t100 65.5t136 21.5q63 0 108.5 -8t92.5 -31l-62 -121q-41 20 -79.5 24.5t-73.5 4.5q-51 0 -85 -20.5t-56.5 -59.5t-36 -92t-25.5 -119l-176 -1024q-18 -113 -43 -192.5t-60.5 -132t-89 -77t-129.5 -24.5q-61 0 -113 9 t-97 32l45 115q41 -14 74.5 -19.5t82.5 -5.5q78 0 117 81t61 214z" />
<glyph unicode="&#x192;" d="M653 883l-149 -883q-25 -145 -47.5 -209.5t-60.5 -113t-92 -76t-132 -27.5q-59 0 -122.5 14.5t-112.5 34.5l43 133q47 -20 89 -30.5t91 -10.5q78 0 117.5 70t66.5 215l139 883h-174v141h197l22 137q25 152 89.5 224.5t211.5 72.5q68 0 132.5 -14t115.5 -37l-47 -131 q-98 41 -188 41q-76 0 -104.5 -47t-47.5 -162l-14 -84h246v-141h-269z" />
<glyph unicode="&#x1f4;" horiz-adv-x="1193" d="M768 715h238h139l-133 -631q-145 -109 -361 -109q-102 0 -193 37t-161 110t-111 181.5t-41 253.5q0 252 74 424t189.5 277.5t255 152.5t270.5 47q117 0 193.5 -15.5t123.5 -37.5l-71 -150q-41 23 -110 37.5t-155 14.5q-119 0 -226 -46.5t-190 -138.5t-132.5 -228 t-49.5 -316q0 -92 22.5 -174t69 -143.5t115 -97.5t162.5 -36q66 0 113 13.5t94 37.5l84 400l-229 40zM1114 1782h237l-10 -43l-358 -199h-150z" />
<glyph unicode="&#x1f5;" horiz-adv-x="1034" d="M788 -47q-43 -201 -148 -294t-280 -93q-133 0 -219 33.5t-131 58.5l68 115q16 -8 39.5 -21.5t57.5 -26t82 -20.5t114 -8q102 0 171.5 73.5t104.5 231.5l37 172h-8q-29 -39 -62.5 -73.5t-74.5 -62.5t-89.5 -44.5t-105.5 -16.5q-111 0 -178.5 80t-67.5 228q0 137 38 272 t113 242.5t184.5 175t252.5 67.5q111 0 186.5 -18t133.5 -45zM401 109q51 0 101.5 26.5t92.5 68.5t76 91t56 92l104 494q-33 18 -79.5 24t-96.5 6q-84 0 -155.5 -49t-123.5 -132t-83 -191.5t-31 -227.5q0 -94 38 -148t101 -54zM811 1475h172l-10 -43l-252 -263h-90z" />
<glyph unicode="&#x218;" horiz-adv-x="1034" d="M801 369q0 74 -38 125t-95.5 93t-124 81t-124 90t-95 120.5t-37.5 172.5q0 109 39.5 186.5t108.5 126.5t162 71.5t197 22.5q119 0 213.5 -18.5t147.5 -46.5l-82 -146q-41 23 -122 43.5t-187 20.5q-135 0 -220 -61.5t-85 -178.5q0 -76 37.5 -128t95 -94t124 -81t124 -89 t95.5 -120t38 -170q0 -199 -143.5 -306.5t-411.5 -107.5q-137 0 -232.5 24t-144.5 52l84 150q47 -27 128 -52.5t191 -25.5q63 0 127 11t115 40t83 76t32 119zM283 -215q0 47 37 74.5t78 27.5q53 0 75.5 -32.5t22.5 -81.5q0 -59 -24.5 -106.5t-58.5 -82.5t-68.5 -57.5 t-57.5 -28.5l-37 66q41 23 74 55.5t41 81.5q-41 0 -61.5 22.5t-20.5 61.5z" />
<glyph unicode="&#x219;" horiz-adv-x="815" d="M530 289q0 53 -26.5 90t-67.5 66.5t-88 58t-88 64.5t-67.5 84t-26.5 120q0 57 27.5 107.5t75.5 88.5t115 59.5t144 21.5q109 0 168.5 -14.5t106.5 -41.5l-51 -123q-82 47 -224 48q-86 0 -142 -36t-56 -110q0 -43 26.5 -74.5t67.5 -60.5t88 -58.5t88 -67.5t67.5 -89 t26.5 -121q0 -160 -107.5 -243t-287.5 -83q-92 0 -169 18.5t-124 47.5l57 129q41 -27 108 -45.5t138 -18.5q100 0 160.5 44.5t60.5 138.5zM156 -215q0 47 37 74.5t78 27.5q53 0 75.5 -32.5t22.5 -81.5q0 -59 -24.5 -106.5t-58.5 -82.5t-68.5 -57.5t-57.5 -28.5l-37 66 q41 23 74 55.5t41 81.5q-41 0 -61.5 22.5t-20.5 61.5z" />
<glyph unicode="&#x237;" horiz-adv-x="509" d="M303 1024h154l-219 -1026q-45 -244 -136.5 -334t-234.5 -90q-16 0 -31.5 1t-32.5 3l31 133q61 0 101 17.5t68 54.5t47.5 92t35.5 127z" />
<glyph unicode="&#x2bc;" horiz-adv-x="378" d="M360 1348q0 25 11.5 44t28 31.5t35.5 19.5t38 7q61 0 82.5 -30.5t21.5 -88.5q0 -70 -26.5 -123t-63.5 -91t-75.5 -61.5t-63.5 -31.5l-33 70q47 25 82 63.5t45 93.5q-82 5 -82 97z" />
<glyph unicode="&#x2c6;" horiz-adv-x="882" d="M944 1499h62l135 -373h-129l-49 136l-13 118l-69 -118l-117 -136h-139z" />
<glyph unicode="&#x2c7;" horiz-adv-x="882" d="M905 1126h-71l-146 373h148l47 -135l14 -119l70 119l114 135h144z" />
<glyph unicode="&#x2d8;" horiz-adv-x="583" d="M662 1475q18 -74 56 -116t109 -42q78 0 144.5 42t113.5 116l72 -37q-16 -49 -50 -97.5t-80 -85t-102.5 -59t-113.5 -22.5q-106 0 -175 68.5t-73 184.5z" />
<glyph unicode="&#x2d9;" horiz-adv-x="544" d="M641 1337q0 47 32 80t79 33t79.5 -33t32.5 -80t-32.5 -78.5t-79.5 -31.5t-79 31.5t-32 78.5z" />
<glyph unicode="&#x2da;" horiz-adv-x="821" d="M807 1317q0 86 54 136t145 50q86 0 143 -45t57 -141q0 -80 -57 -132t-143 -52t-142.5 48t-56.5 136zM918 1317q0 -41 27.5 -63.5t60.5 -22.5q39 0 64.5 20.5t25.5 65.5t-28 66.5t-62 21.5q-35 0 -61.5 -20.5t-26.5 -67.5z" />
<glyph unicode="&#x2db;" horiz-adv-x="782" d="M862 20q-37 -16 -71.5 -36.5t-63.5 -46t-46 -59.5t-17 -75q0 -35 19 -58.5t67 -23.5q39 0 86 17l2 -88q-37 -27 -86.5 -38t-89.5 -11q-70 0 -116 36.5t-46 112.5q0 51 22.5 95t58 78t82 58.5t95.5 38.5h104z" />
<glyph unicode="&#x2dc;" horiz-adv-x="714" d="M666 1343q66 68 113.5 93.5t84.5 25.5q31 0 55.5 -13t48 -28.5t47 -28t52.5 -12.5q47 0 111 50l30 -89q-59 -59 -102 -81.5t-78 -22.5q-31 0 -55.5 12.5t-48 27.5t-48 27.5t-55.5 12.5q-27 0 -57.5 -13.5t-71.5 -46.5z" />
<glyph unicode="&#x2dd;" horiz-adv-x="972" d="M842 1434h151l-6 -33l-186 -232h-82zM1126 1434h166l-6 -33l-268 -232h-90z" />
<glyph unicode="&#x301;" horiz-adv-x="4" d="M-136 1475h172l-10 -43l-252 -263h-90z" />
<glyph unicode="&#x394;" horiz-adv-x="1165" d="M25 0v76l520 1380h69l525 -1380v-76h-1114zM213 147h727l-317 826l-50 215h-2l-57 -219z" />
<glyph unicode="&#x2206;" horiz-adv-x="1165" d="M25 0v76l520 1380h69l525 -1380v-76h-1114zM213 147h727l-317 826l-50 215h-2l-57 -219z" />
<glyph unicode="&#x3a9;" horiz-adv-x="1644" d="M184 143h238l192 -20v53l-110 21q-66 31 -124 85t-101 126.5t-69 164t-26 197.5q0 160 47.5 287t133.5 216t208.5 137t274.5 48q160 0 283.5 -51t209.5 -143.5t130.5 -220.5t44.5 -281q0 -111 -29 -201t-75 -160.5t-102.5 -121t-111.5 -80.5l-117 -23v-53l197 20h238 v-143h-588v256q61 12 131.5 45t132 93.5t102.5 153.5t41 224q0 98 -27.5 193.5t-87 171t-152.5 123t-222 47.5q-231 0 -356 -136.5t-125 -404.5q0 -129 37.5 -220t97 -152.5t131 -94.5t139.5 -43v-256h-586v143z" />
<glyph unicode="&#x2126;" horiz-adv-x="1644" d="M184 143h238l192 -20v53l-110 21q-66 31 -124 85t-101 126.5t-69 164t-26 197.5q0 160 47.5 287t133.5 216t208.5 137t274.5 48q160 0 283.5 -51t209.5 -143.5t130.5 -220.5t44.5 -281q0 -111 -29 -201t-75 -160.5t-102.5 -121t-111.5 -80.5l-117 -23v-53l197 20h238 v-143h-588v256q61 12 131.5 45t132 93.5t102.5 153.5t41 224q0 98 -27.5 193.5t-87 171t-152.5 123t-222 47.5q-231 0 -356 -136.5t-125 -404.5q0 -129 37.5 -220t97 -152.5t131 -94.5t139.5 -43v-256h-586v143z" />
<glyph unicode="&#x3c0;" horiz-adv-x="1294" d="M936 238q-6 -29 -6 -45q0 -57 47 -58q20 0 45 4t43 8l14 -110q-35 -14 -83 -29.5t-107 -15.5q-70 0 -98.5 30.5t-28.5 90.5q0 23 4 49t10 55l144 662h-373l-187 -879h-153l188 879h-28q-41 0 -73 -22.5t-67 -68.5l-90 66q53 78 119 124t168 46h842l-31 -145h-162z" />
<glyph unicode="&#x401;" horiz-adv-x="1044" d="M387 1434h739l-30 -152h-580l-100 -469h530l-31 -151h-530l-109 -510h590l-32 -152h-590h-162zM492 1626q0 41 28.5 68.5t75.5 27.5t75 -27.5t28 -68.5t-28 -67.5t-75 -26.5t-75.5 26.5t-28.5 67.5zM867 1626q0 41 27.5 68.5t74.5 27.5t75.5 -27.5t28.5 -68.5 t-28.5 -67.5t-75.5 -26.5t-74.5 26.5t-27.5 67.5z" />
<glyph unicode="&#x402;" horiz-adv-x="1419" d="M539 0h-164l272 1282h-422l31 152h1008l-31 -152h-424l-90 -432q25 10 91.5 26.5t170.5 16.5q98 0 165.5 -27.5t110.5 -76t61.5 -112t18.5 -132.5q0 -119 -35.5 -221.5t-106.5 -178t-176.5 -118.5t-242.5 -43q-63 0 -97 1t-48 5l33 147q23 -4 48 -5t83 -1q88 0 157.5 31 t116.5 84t71.5 123.5t24.5 150.5q0 121 -62.5 173t-187.5 52q-35 0 -70.5 -5t-66 -12t-56.5 -15l-38 -13z" />
<glyph unicode="&#x403;" horiz-adv-x="860" d="M1083 1282h-567l-270 -1282h-164l305 1434h727zM893 1782h237l-10 -43l-358 -199h-150z" />
<glyph unicode="&#x404;" horiz-adv-x="1138" d="M1006 59q-72 -47 -160 -65.5t-191 -18.5q-121 0 -215 44t-159.5 123t-100.5 185.5t-35 233.5q0 231 68 400t178.5 280t248.5 164t280 53q117 0 201.5 -16.5t131.5 -38.5l-73 -150q-41 23 -119 38.5t-164 15.5q-94 0 -181 -34t-161 -97.5t-128 -154.5t-83 -208h614 l-32 -151h-607q-2 -23 -2 -41v-41q0 -98 26 -181.5t74 -143.5t118.5 -94t160.5 -34q96 0 171 21.5t124 50.5z" />
<glyph unicode="&#x405;" horiz-adv-x="1034" d="M795 369q0 74 -38 125t-95.5 93t-124 81t-124 90t-95 120.5t-37.5 172.5q0 109 39.5 186.5t108.5 126.5t162 71.5t197 22.5q119 0 213.5 -18.5t147.5 -46.5l-82 -146q-41 23 -122 43.5t-187 20.5q-135 0 -220 -61.5t-85 -178.5q0 -76 37.5 -128t95 -94t124 -81t124 -89 t95.5 -120t38 -170q0 -199 -143.5 -306.5t-411.5 -107.5q-137 0 -232.5 24t-144.5 52l84 150q47 -27 128 -52.5t191 -25.5q63 0 127 11t115 40t83 76t32 119z" />
<glyph unicode="&#x406;" horiz-adv-x="567" d="M430 1434h164l-303 -1434h-164z" />
<glyph unicode="&#x407;" horiz-adv-x="567" d="M319 1624q0 41 27 69.5t72 28.5t71.5 -28.5t26.5 -69.5t-26.5 -68.5t-71.5 -27.5t-72 27.5t-27 68.5zM571 1624q0 41 27 69.5t72 28.5t71.5 -28.5t26.5 -69.5t-26.5 -68.5t-71.5 -27.5t-72 27.5t-27 68.5zM430 1434h164l-303 -1434h-164z" />
<glyph unicode="&#x408;" horiz-adv-x="569" d="M455 1434h163l-237 -1119q-18 -82 -44 -144t-66 -105t-98 -64.5t-140 -21.5q-16 0 -38 2t-44.5 6t-43 10t-32.5 14l62 146q39 -27 110 -27q43 0 71.5 15.5t49 45t34 70.5t23.5 94z" />
<glyph unicode="&#x409;" horiz-adv-x="1804" d="M1075 1282h-401q-94 -408 -181 -679t-184 -425q-63 -100 -131.5 -144t-144.5 -44q-35 0 -65.5 5t-53.5 15l55 148q20 -6 45 -6q39 0 79 24.5t81 85.5q37 55 80 147.5t90 232.5t98.5 334.5t106.5 457.5h164h559l-117 -557q10 2 31.5 5t47.5 6t54.5 4t50.5 1 q86 0 164 -20.5t137.5 -64.5t94 -113.5t34.5 -170.5q0 -139 -49 -241.5t-136 -169t-203.5 -98t-252.5 -31.5q-43 0 -91 2t-66 4q-51 4 -78 7t-49.5 8t-36.5 9zM1167 131q84 0 162 21.5t137.5 67.5t95 117t35.5 171q0 123 -82.5 180t-218.5 57q-16 0 -42 -2l-51 -4 q-26 -2 -48 -6t-35 -6l-121 -584q25 -6 72 -9t96 -3z" />
<glyph unicode="&#x40a;" horiz-adv-x="1896" d="M1044 686h-653l-145 -686h-164l303 1434h164l-127 -596h653l125 596h164l-125 -596q29 6 88 11t107 5q92 0 170.5 -22.5t135 -66.5t89.5 -111.5t33 -157.5q0 -254 -166 -383t-477 -129q-27 0 -67 1t-87 5q-45 2 -87 8t-77 14zM1260 131q225 0 327.5 94t102.5 256 q0 129 -83 177.5t-221 48.5q-18 0 -45 -2l-53 -5q-27 -2 -49 -6l-33 -6l-114 -545q25 -6 72 -9t96 -3z" />
<glyph unicode="&#x40b;" horiz-adv-x="1458" d="M539 0h-164l270 1282h-420l31 152h1008l-31 -152h-424l-98 -473q61 35 145 63.5t193 28.5q63 0 120.5 -16.5t98.5 -52t65.5 -92t24.5 -134.5q0 -61 -15 -127l-98 -479h-164l99 457q12 57 14 104q-2 188 -199 189q-92 0 -171 -27t-148 -68z" />
<glyph unicode="&#x40c;" horiz-adv-x="1179" d="M489 664h-104l-139 -664h-164l303 1434h164l-143 -668l81 29l588 639h203l-586 -623l-94 -63l80 -82l358 -666h-186zM944 1782h237l-10 -43l-358 -199h-150z" />
<glyph unicode="&#x40e;" horiz-adv-x="1077" d="M602 678l12 -182h9l77 188l420 750h180l-542 -932l-146 -244q-61 -98 -113.5 -157.5t-102.5 -85t-113 -25.5q-66 0 -105 13t-67 32l79 141q33 -20 58.5 -27.5t54.5 -7.5q53 0 104.5 67.5t110.5 172.5l-278 1053h174zM625 1782q0 -76 38 -117t105 -41q86 0 141.5 42 t77.5 114l150 -35q-37 -111 -133.5 -175.5t-243.5 -64.5q-139 0 -204.5 68.5t-69.5 167.5z" />
<glyph unicode="&#x40f;" horiz-adv-x="1284" d="M82 0l303 1434h164l-273 -1282h629l271 1282h163l-305 -1434h-407l-68 -367h-151l90 367h-416z" />
<glyph unicode="&#x410;" horiz-adv-x="1140" d="M827 397h-499l-222 -397h-174l828 1456h76l206 -1456h-157zM408 545h403l-59 436l-4 217h-3l-92 -221z" />
<glyph unicode="&#x411;" horiz-adv-x="1073" d="M383 1434h737l-30 -152h-578l-90 -430q35 6 84 12t96 6q203 0 310.5 -93t107.5 -259q0 -150 -54.5 -252t-141.5 -164.5t-196.5 -90t-219.5 -27.5q-33 0 -74 1t-94 5q-41 4 -82 9t-76 15zM459 131q70 0 139.5 20.5t124.5 63.5t90 111.5t35 165.5q0 125 -79 178t-214 53 q-16 0 -41 -2l-48 -4q-24 -2 -44.5 -5t-30.5 -5l-119 -564q25 -8 81.5 -10t105.5 -2z" />
<glyph unicode="&#x412;" horiz-adv-x="1138" d="M1149 1128q0 -80 -24.5 -145t-69.5 -114.5t-105.5 -79t-130.5 -39.5v-9q45 -10 86 -33.5t72 -58.5t49 -81t18 -101q0 -143 -56 -236.5t-143 -148.5t-194.5 -76.5t-212.5 -21.5h-79q-46 0 -117 4q-123 12 -160 22l299 1411q78 12 175 20.5t210 8.5q76 0 145.5 -19.5 t121.5 -58.5t84 -100.5t32 -143.5zM483 131q72 0 141.5 17.5t125 54.5t89 96t33.5 145q0 63 -30.5 105.5t-79.5 67t-111.5 33.5t-126.5 9h-143l-109 -514q12 -4 38 -6t55.5 -4t61 -3t56.5 -1zM518 799q35 0 82 1t80 5q47 10 100.5 28.5t97.5 52.5t71.5 86t27.5 130 q0 57 -17.5 95t-51.5 61.5t-81 34t-104 10.5q-66 0 -123 -3.5t-86 -9.5l-104 -491h108z" />
<glyph unicode="&#x413;" horiz-adv-x="860" d="M1083 1282h-567l-270 -1282h-164l305 1434h727z" />
<glyph unicode="&#x414;" horiz-adv-x="1304" d="M1108 -264h-113l27 264h-954l-86 -264h-111l86 416h137q20 23 73.5 102.5t121 232t140.5 386t132 561.5h154h573l-272 -1282h180zM854 152l240 1130h-410q-100 -449 -205.5 -723t-199.5 -407h575z" />
<glyph unicode="&#x415;" horiz-adv-x="1044" d="M387 1434h739l-30 -152h-580l-100 -469h530l-31 -151h-530l-109 -510h590l-32 -152h-590h-162z" />
<glyph unicode="&#x416;" horiz-adv-x="1570" d="M913 1434h154l-141 -668l75 29l527 639h198l-524 -623l-96 -66l82 -83l295 -662h-180l-297 664h-103l-139 -664h-154l146 688l-76 -26l-565 -662h-205l563 641l109 78l-70 72l-272 643h180l258 -643h98z" />
<glyph unicode="&#x417;" horiz-adv-x="1054" d="M336 678l31 141h28q37 0 91.5 3t86.5 7q55 6 112.5 25.5t104 54.5t76 86.5t29.5 120.5q0 92 -65.5 143.5t-178.5 51.5q-104 0 -173.5 -17.5t-127.5 -38.5l-16 134q47 23 142 46t220 23q78 0 145.5 -19.5t118 -56t79 -92t28.5 -129.5q0 -88 -27.5 -155.5t-73.5 -116.5 t-107.5 -79t-129.5 -40v-8q43 -10 85 -31.5t76 -58.5t54.5 -91.5t20.5 -129.5q0 -135 -55.5 -226.5t-143.5 -146.5t-195.5 -79t-214.5 -24q-129 0 -212 15.5t-132 38.5l74 149q41 -23 117 -39t190 -16q70 0 141.5 17.5t129 56.5t93.5 101t36 153q0 61 -21.5 102t-58.5 67.5 t-84 39t-97 16.5q-23 2 -45 2h-45h-106z" />
<glyph unicode="&#x418;" horiz-adv-x="1327" d="M1116 958l49 166h-6l-121 -172l-852 -952h-104l305 1434h164l-207 -975l-51 -156h8l121 168l854 963h104l-303 -1434h-164z" />
<glyph unicode="&#x419;" horiz-adv-x="1327" d="M1116 958l49 166h-6l-121 -172l-852 -952h-104l305 1434h164l-207 -975l-51 -156h8l121 168l854 963h104l-303 -1434h-164zM785 1782q0 -76 38 -117t105 -41q86 0 141.5 42t77.5 114l150 -35q-37 -111 -133.5 -175.5t-243.5 -64.5q-139 0 -204.5 68.5t-69.5 167.5z" />
<glyph unicode="&#x41a;" horiz-adv-x="1179" d="M489 664h-104l-139 -664h-164l303 1434h164l-143 -668l81 29l588 639h203l-586 -623l-94 -63l80 -82l358 -666h-186z" />
<glyph unicode="&#x41b;" horiz-adv-x="1216" d="M1075 1282h-401q-94 -408 -181 -679t-184 -425q-63 -100 -131.5 -144t-144.5 -44q-35 0 -65.5 5t-53.5 15l55 148q20 -6 45 -6q39 0 79 24.5t81 85.5q37 55 80 147.5t90 232.5t98.5 334.5t106.5 457.5h160h561l-303 -1434h-164z" />
<glyph unicode="&#x41c;" horiz-adv-x="1544" d="M1333 963l64 215h-8l-115 -197l-492 -647h-49l-235 647l-31 197h-8l-17 -213l-204 -965h-156l305 1434h113l266 -734l31 -159h2l94 164l559 729h145l-305 -1434h-164z" />
<glyph unicode="&#x41d;" horiz-adv-x="1308" d="M1034 657h-651l-137 -657h-164l303 1434h164l-131 -625h649l131 625h164l-303 -1434h-164z" />
<glyph unicode="&#x41e;" horiz-adv-x="1333" d="M145 524q0 188 51.5 358.5t146.5 298.5t229.5 202.5t297.5 74.5q98 0 182.5 -29.5t144.5 -94t94 -167t34 -249.5q0 -193 -51 -364t-143.5 -300t-220.5 -204t-281 -75q-242 0 -363 140.5t-121 408.5zM317 526q0 -193 80 -298t236 -105q115 0 210 63.5t164.5 172t107.5 252 t38 302.5q0 119 -26.5 197t-70.5 122t-100.5 61.5t-113.5 17.5q-117 0 -213.5 -64.5t-165 -173t-107.5 -251t-39 -296.5z" />
<glyph unicode="&#x41f;" horiz-adv-x="1284" d="M1143 1282h-627l-270 -1282h-164l305 1434h950l-303 -1434h-164z" />
<glyph unicode="&#x420;" horiz-adv-x="1089" d="M383 1419q78 18 164 24.5t170 6.5q94 0 175 -20.5t140.5 -65.5t93 -115.5t33.5 -169.5q0 -156 -56 -260t-147.5 -166.5t-206 -89t-231.5 -26.5h-32q-22 0 -46 1t-46.5 3t-33.5 4l-114 -545h-164zM682 1303q-47 0 -91 -3.5t-73 -9.5l-125 -596q8 -4 27.5 -5t41 -3t42.5 -2 h31q88 0 169.5 18.5t144 63.5t100.5 116.5t38 180.5q0 74 -24.5 121t-66.5 72.5t-97.5 36t-116.5 10.5z" />
<glyph unicode="&#x421;" horiz-adv-x="1114" d="M983 59q-70 -47 -147.5 -65.5t-180.5 -18.5q-121 0 -215 44t-159.5 123t-100.5 185.5t-35 233.5q0 231 68 400t178.5 280t248.5 164t280 53q117 0 190.5 -16.5t120.5 -38.5l-74 -150q-41 23 -107.5 38.5t-152.5 15.5q-115 0 -220.5 -50.5t-185 -144.5t-127 -229 t-47.5 -303q0 -98 26 -181.5t74 -143.5t118.5 -94t160.5 -34q96 0 160 21.5t115 50.5z" />
<glyph unicode="&#x422;" horiz-adv-x="1081" d="M1233 1282h-424l-270 -1282h-164l270 1282h-420l31 152h1008z" />
<glyph unicode="&#x423;" horiz-adv-x="1077" d="M602 678l12 -182h9l77 188l420 750h180l-542 -932l-146 -244q-61 -98 -113.5 -157.5t-102.5 -85t-113 -25.5q-66 0 -105 13t-67 32l79 141q33 -20 58.5 -27.5t54.5 -7.5q53 0 104.5 67.5t110.5 172.5l-278 1053h174z" />
<glyph unicode="&#x424;" horiz-adv-x="1519" d="M633 164q-35 -8 -69 -11t-81 -3q-55 0 -117.5 19t-114.5 68.5t-87 131.5t-35 206q0 168 44 303.5t126 230.5t196.5 146.5t254.5 51.5q27 0 65.5 -2t58.5 -7l39 177h158l-39 -183q39 10 78 12.5t70 2.5q74 0 139 -23.5t113.5 -73t76 -128t27.5 -189.5q0 -180 -49 -318.5 t-132 -232.5t-193.5 -143t-233.5 -49q-27 0 -70 3t-65 11l-45 -205h-158zM1133 1165q-27 0 -66 -2t-68 -12l-182 -854q20 -4 52 -5t61 -1q106 0 187 48t136.5 129t83 185.5t27.5 216.5q0 160 -63.5 227.5t-167.5 67.5zM537 291q20 0 60 1t69 11l180 854q-23 4 -55.5 6 t-61.5 2q-96 0 -175 -43t-135.5 -119.5t-87 -183t-30.5 -233.5q0 -84 20.5 -140.5t54.5 -91.5t76 -49t85 -14z" />
<glyph unicode="&#x425;" horiz-adv-x="1204" d="M592 733l-266 701h178l176 -486l25 -117l69 117l391 486h199l-571 -695l290 -739h-178l-196 514l-29 123l-78 -123l-418 -514h-198z" />
<glyph unicode="&#x426;" horiz-adv-x="1339" d="M1143 -264h-111l25 264h-37h-166h-604h-168l305 1434h164l-272 -1282h610l270 1282h164l-270 -1282h178z" />
<glyph unicode="&#x427;" horiz-adv-x="1179" d="M526 1434l-98 -461q-6 -29 -10 -56.5t-4 -50.5q0 -188 192 -188q92 0 177 25.5t145 68.5l141 662h164l-303 -1434h-164l131 618q-59 -35 -142 -63.5t-200 -28.5q-61 0 -117.5 15.5t-99.5 51.5t-67.5 92t-24.5 138q0 61 14 127l102 484h164z" />
<glyph unicode="&#x428;" horiz-adv-x="1710" d="M852 0h-164h-442h-164l305 1434h164l-272 -1282h444l270 1282h164l-272 -1282h444l270 1282h164l-305 -1434h-164h-442z" />
<glyph unicode="&#x429;" horiz-adv-x="1777" d="M246 0h-164l305 1434h164l-272 -1282h444l270 1282h164l-272 -1282h444l270 1282h164l-272 -1282h180l-88 -416h-113l27 264h-39h-164h-442h-164h-442z" />
<glyph unicode="&#x42a;" horiz-adv-x="1224" d="M498 1282h-310l31 152h473l-119 -557q12 2 35 5t49.5 6t54 4t50.5 1q84 0 161.5 -19.5t137 -63.5t94.5 -113.5t35 -170.5q0 -139 -48 -241.5t-134 -169t-204 -99t-257 -32.5q-27 0 -67 1t-93 5q-41 2 -82 8t-76 16zM586 131q92 0 171 23.5t137 70.5t91 118t33 163 q0 68 -24.5 114t-65.5 73.5t-95.5 39.5t-113.5 12q-18 0 -44 -2l-52 -4q-27 -2 -49.5 -6t-32.5 -6l-123 -584q27 -6 73 -9t95 -3z" />
<glyph unicode="&#x42b;" horiz-adv-x="1501" d="M1391 1434h163l-303 -1434h-164zM383 1434h164l-117 -557q33 6 79 11t93 5q84 0 156.5 -22.5t126 -67.5t83 -111.5t29.5 -154.5q0 -147 -52 -253t-139 -172.5t-200.5 -97t-234.5 -30.5q-49 0 -129 4q-92 8 -160 26zM416 131q80 0 154.5 24.5t131 71.5t90 119t33.5 168 q0 119 -71.5 175t-210.5 56q-35 0 -80 -6t-68 -12l-121 -584q29 -6 62 -9t80 -3z" />
<glyph unicode="&#x42c;" horiz-adv-x="1079" d="M383 1434h164l-117 -557q10 2 31.5 5t47.5 6t54.5 4t50.5 1q86 0 164 -20.5t137.5 -64.5t94 -113.5t34.5 -170.5q0 -139 -49 -241.5t-136 -169t-203.5 -98t-252.5 -31.5q-27 0 -66.5 1t-94.5 5q-39 2 -81 8t-79 16zM442 131q84 0 162 21.5t137.5 67.5t95 117t35.5 171 q0 123 -82.5 180t-218.5 57q-16 0 -42 -2l-52 -4q-27 -2 -49 -6l-33 -6l-121 -584q25 -6 72 -9t96 -3z" />
<glyph unicode="&#x42d;" horiz-adv-x="1134" d="M393 803h570q2 23 3 47t1 47q0 195 -88 304.5t-281 109.5q-92 0 -161.5 -20.5t-121.5 -47.5l-12 135q70 37 151 58.5t183 21.5q147 0 242.5 -49t150.5 -126t77.5 -172t22.5 -187q0 -201 -48 -374t-146 -300t-249.5 -201t-360.5 -74q-94 0 -174 14.5t-129 37.5l75 149 q41 -23 112 -38t148 -15q104 0 199.5 35t174.5 103.5t133.5 167.5t76.5 228h-577z" />
<glyph unicode="&#x42e;" horiz-adv-x="1763" d="M418 809h239q96 334 268.5 491.5t389.5 157.5q203 0 321.5 -117.5t118.5 -357.5q0 -203 -48 -386t-140 -321.5t-225.5 -219.5t-303.5 -81q-109 0 -186.5 38t-127.5 105.5t-73.5 161t-23.5 203.5q0 84 12 174h-256l-137 -657h-164l303 1434h164zM795 477q0 -72 14 -136.5 t48 -112.5t88 -76.5t136 -28.5q109 0 201 68.5t158.5 183t104.5 267.5t38 321q0 158 -70.5 253t-203.5 95q-113 0 -207 -67.5t-163 -181.5t-106.5 -265.5t-37.5 -319.5z" />
<glyph unicode="&#x42f;" horiz-adv-x="1112" d="M866 0h-164l132 623l-199 -43l-465 -580h-197l410 514l137 90q-39 12 -83 39t-81 69t-61.5 102t-24.5 144q0 141 54.5 235.5t140.5 152t193.5 81t213.5 23.5q66 0 146 -6t147 -25zM834 1303q-72 0 -141.5 -16.5t-125 -54.5t-90.5 -102.5t-35 -158.5q0 -117 73 -182.5 t206 -65.5h133l121 567q-25 6 -58.5 9.5t-82.5 3.5z" />
<glyph unicode="&#x430;" horiz-adv-x="997" d="M848 403q-16 -76 -22.5 -153.5t-6.5 -145.5v-58q0 -28 4 -50h-114l-29 178h-8q-25 -35 -61 -70.5t-79 -64.5t-92 -46.5t-104 -17.5q-244 0 -244 318q0 131 34 266t104.5 243.5t182 178.5t269.5 70q57 0 140 -13.5t155 -36.5zM383 106q49 0 94 24t85 58.5t71 74.5t49 75 l115 553q-61 29 -156 29q-94 0 -166 -55.5t-121 -144.5t-73.5 -201.5t-24.5 -225.5q0 -78 30.5 -132.5t96.5 -54.5z" />
<glyph unicode="&#x431;" horiz-adv-x="1021" d="M315 782q86 127 181.5 182.5t218.5 55.5q141 0 202.5 -80t61.5 -223q0 -170 -44 -307.5t-118 -233.5t-169 -148.5t-199 -52.5q-90 0 -153 31t-100.5 82t-55 118.5t-17.5 143.5q0 217 42 403.5t114.5 327t171 225.5t213.5 103q86 12 157 19l129 14q57 6 97 15t63 28 l-6 -144q-33 -25 -109.5 -42t-230.5 -29q-70 -6 -134.5 -24.5t-124 -70t-110.5 -145.5t-94 -248h14zM287 373q0 -53 6 -100.5t26.5 -82t57.5 -54t98 -19.5t121.5 40t109 113.5t79 178t30.5 233.5q0 39 -7 74t-25.5 62.5t-50.5 44t-83 16.5q-68 0 -133 -40t-116.5 -110 t-82 -161t-30.5 -195z" />
<glyph unicode="&#x432;" horiz-adv-x="933" d="M141 584q51 229 176 341.5t310 112.5q78 0 129 -14t81.5 -40t43 -60.5t12.5 -77.5q0 -109 -70.5 -188.5t-187.5 -112.5l-4 -8q98 -4 150.5 -49.5t52.5 -120.5q0 -94 -38 -165t-101.5 -119t-145.5 -72.5t-170 -24.5q-59 0 -111.5 14t-90.5 48t-59.5 92.5t-21.5 144.5 q0 31 2 57.5t7.5 59l13.5 77t22 105.5zM264 455q-10 -55 -15 -93t-5 -69q0 -176 164 -176q53 0 101 14t85 44t58.5 73t21.5 102q0 53 -44 86t-149 33h-15q-9 0 -30.5 -2t-62.5 -4t-109 -8zM473 592q31 2 76 16.5t87 40t70.5 62.5t28.5 86q0 55 -28.5 82.5t-110.5 27.5 q-117 0 -188.5 -73.5t-106.5 -210.5l-12 -50z" />
<glyph unicode="&#x433;" horiz-adv-x="841" d="M55 246q0 98 43 159.5t108.5 102.5t141.5 67.5t141.5 54t108.5 63.5t43 95q0 66 -36 92.5t-124 26.5q-78 0 -134 -17.5t-101 -39.5l-31 121q66 35 143.5 51t163.5 16q82 0 136.5 -18.5t87 -49t46 -71.5t13.5 -86q0 -98 -43 -158.5t-108.5 -98.5t-141.5 -62.5t-141.5 -53 t-108.5 -68.5t-43 -108q0 -72 46 -115t122 -43t149.5 27t114.5 55l41 -100q-63 -53 -152 -83t-163 -30q-100 0 -162.5 28t-98.5 69t-48.5 88t-12.5 86z" />
<glyph unicode="&#x434;" horiz-adv-x="1013" d="M625 1034q70 0 109.5 -13t68.5 -34h10q-10 156 -113.5 248t-281.5 92l28 131q150 0 250.5 -45t162 -123t87 -182t25.5 -223q0 -215 -42 -384t-116 -286t-173 -178.5t-214 -61.5q-166 0 -244 102.5t-78 282.5q0 129 36 250t103.5 215.5t164 151.5t217.5 57zM612 903 q-66 0 -127 -41t-109 -114.5t-78 -177t-30 -226.5q0 -100 41 -169t133 -69q100 0 170 72t113 179.5t62.5 233.5t19.5 234q-35 41 -79 59.5t-116 18.5z" />
<glyph unicode="&#x435;" horiz-adv-x="948" d="M797 100q-72 -61 -169.5 -93t-195.5 -32q-164 0 -247 94.5t-83 262.5t47.5 301t124 225t174 141.5t199.5 49.5q74 0 128 -20.5t89 -54.5t51.5 -78t16.5 -93q0 -145 -141.5 -228t-411.5 -83q-25 0 -51.5 1t-55.5 3q-8 -39 -12 -74t-4 -62q0 -113 51 -183.5t160 -70.5 q90 0 165 30t116 63zM623 918q-113 0 -196 -77t-126 -231q78 0 162 4t152.5 21.5t113.5 55.5t45 106q0 20 -7 41.5t-23.5 39t-46 29t-74.5 11.5z" />
<glyph unicode="&#x436;" horiz-adv-x="1441" d="M459 461q-37 -137 -81 -227.5t-93 -144.5t-103.5 -76.5t-109.5 -22.5q-25 0 -50.5 4t-50.5 10l41 139q25 -6 49 -6q82 0 154 87t113 294q10 59 16 105.5t6 85.5q0 109 -37 148.5t-94 39.5q-10 0 -20.5 -1t-20.5 -3l-18 127q29 4 53.5 7t46.5 3q115 0 172 -66.5t57 -213.5 q0 -37 -4 -79t-12 -89h201l94 442h154l-97 -442h187q35 131 76.5 217t90 138t100.5 73.5t105 21.5q45 0 89 -12l-35 -131q-10 2 -20.5 3t-20.5 1q-37 0 -71 -16.5t-63.5 -56.5t-56 -105.5t-51.5 -163.5q-12 -51 -19.5 -100.5t-7.5 -96.5q0 -98 32 -166.5t102 -68.5 q23 0 53 10l22 -125q-33 -10 -61.5 -13t-54.5 -3q-70 0 -116 27.5t-73.5 73.5t-39 106.5t-11.5 126.5q0 35 3 69.5t7 69.5h-190l-96 -461h-154l98 461h-190z" />
<glyph unicode="&#x437;" horiz-adv-x="856" d="M246 459l26 127h136q35 0 74.5 16t73.5 45t56.5 65t22.5 76q0 66 -39 92.5t-143 26.5q-74 0 -128.5 -16.5t-101.5 -38.5l-33 121q66 35 145 50t181 15q152 0 217.5 -54t65.5 -157q0 -53 -18.5 -98t-50.5 -81t-72 -60.5t-83 -38.5v-8q88 -16 124 -66.5t36 -116.5 q0 -90 -36.5 -159.5t-99 -117.5t-147.5 -73.5t-184 -25.5q-82 0 -157.5 20.5t-118.5 52.5l65 123q41 -27 102.5 -46t135.5 -19q119 0 199.5 60t80.5 165q0 61 -49 91t-168 30h-112z" />
<glyph unicode="&#x438;" horiz-adv-x="1046" d="M436 1024l-143 -682q-12 -55 -12 -102q0 -57 22.5 -95.5t81.5 -38.5q49 0 99.5 25t96.5 63.5t83.5 86t62.5 92.5l137 651h154l-129 -608q-8 -35 -16.5 -85t-15.5 -105.5t-11 -107.5t-4 -91v-27h-121v195h-8q-31 -41 -71 -80t-88 -70t-103.5 -50.5t-116.5 -19.5 q-45 0 -83 10.5t-66.5 36t-45 67.5t-16.5 108q0 72 20 161l140 666h153z" />
<glyph unicode="&#x439;" horiz-adv-x="1046" d="M436 1024l-143 -682q-12 -55 -12 -102q0 -57 22.5 -95.5t81.5 -38.5q49 0 99.5 25t96.5 63.5t83.5 86t62.5 92.5l137 651h154l-129 -608q-8 -35 -16.5 -85t-15.5 -105.5t-11 -107.5t-4 -91v-27h-121v195h-8q-31 -41 -71 -80t-88 -70t-103.5 -50.5t-116.5 -19.5 q-45 0 -83 10.5t-66.5 36t-45 67.5t-16.5 108q0 72 20 161l140 666h153zM555 1438q0 -96 40 -132t101 -36q63 0 119.5 39t91.5 127l111 -39q-41 -119 -138.5 -182.5t-211.5 -63.5q-51 0 -97.5 12.5t-81 39t-55 68.5t-20.5 99v19z" />
<glyph unicode="&#x43a;" horiz-adv-x="950" d="M432 461h-110l-97 -461h-153l217 1024h153l-98 -463l84 27l381 436h184l-375 -412l-94 -67l82 -82l230 -463h-172z" />
<glyph unicode="&#x43b;" horiz-adv-x="1003" d="M795 893h-275q-53 -219 -100 -387t-101.5 -281.5t-120 -173t-157.5 -59.5q-35 0 -62.5 4t-46.5 14l48 131q25 -6 47 -6q45 0 85 33t83 129t93 270t118 457h569l-217 -1024h-154z" />
<glyph unicode="&#x43c;" horiz-adv-x="1271" d="M1004 608l51 195h-8l-105 -158l-319 -401h-54l-159 401l-31 158h-8l-27 -193l-129 -610h-143l217 1024h141l174 -459l31 -119h4l84 123l352 455h168l-217 -1024h-152z" />
<glyph unicode="&#x43d;" horiz-adv-x="1067" d="M764 451h-442l-97 -451h-153l217 1024h153l-90 -426h443l90 426h153l-217 -1024h-153z" />
<glyph unicode="&#x43e;" horiz-adv-x="1019" d="M102 319q0 162 42 296.5t116 230.5t171 149.5t208 53.5q86 0 146.5 -28t98.5 -76t54 -110.5t16 -129.5q0 -154 -40 -287t-110.5 -231.5t-164.5 -155t-205 -56.5q-92 0 -154.5 30t-102.5 79t-57.5 110.5t-17.5 124.5zM266 356q0 -121 45 -185.5t144 -64.5q68 0 128 48.5 t106 130.5t74 187.5t28 219.5q0 104 -38 165t-145 61q-68 0 -129 -46.5t-109 -124t-76 -179t-28 -212.5z" />
<glyph unicode="&#x43f;" horiz-adv-x="1069" d="M658 0l137 647q8 37 14.5 73t6.5 64q0 59 -28 96.5t-103 37.5q-53 0 -104.5 -25t-96.5 -62.5t-81 -84t-61 -91.5l-135 -655h-153l217 1024h106l-8 -176h8q27 33 64 68.5t83 64.5t103.5 48.5t126.5 19.5q102 0 161.5 -49.5t59.5 -172.5q0 -61 -18 -147l-146 -680h-153z " />
<glyph unicode="&#x440;" horiz-adv-x="1040" d="M295 1024h106l-10 -176h8q29 37 65 72.5t79 64.5t94 46.5t111 17.5q49 0 92 -15.5t75.5 -51.5t52 -95.5t19.5 -145.5q0 -180 -49 -322.5t-129 -240.5t-179.5 -150.5t-197.5 -52.5q-72 0 -126 13.5t-73 27.5l-90 -426h-153zM690 918q-55 0 -105 -29t-92 -71t-75 -90 t-53 -89l-101 -485q35 -27 72 -37.5t80 -10.5q80 0 152.5 44.5t130 126t91 196.5t33.5 256q0 82 -33.5 135.5t-99.5 53.5z" />
<glyph unicode="&#x441;" horiz-adv-x="860" d="M748 88q-31 -27 -71 -47.5t-82 -34.5t-83 -22.5t-78 -8.5q-100 0 -164.5 32t-101.5 81t-51.5 106.5t-14.5 108.5q0 174 47.5 312.5t126 234.5t181 147.5t211.5 51.5q78 0 128 -14.5t91 -33.5l-58 -127q-35 20 -86 32t-110 12q-70 0 -136.5 -47.5t-117.5 -124t-82 -176 t-31 -203.5q0 -133 55.5 -197t149.5 -64q61 0 129 28t109 56z" />
<glyph unicode="&#x442;" horiz-adv-x="1562" d="M625 0l123 580q16 72 24 127t8 96q0 55 -20.5 85t-69.5 30q-51 0 -100 -27t-92 -67t-79 -85t-57 -82l-135 -657h-153l217 1024h108l-12 -176h8l71 68q38 36 84 65t100.5 48.5t119.5 19.5q92 0 124 -57.5t32 -160.5q31 39 71.5 78t89 70t101.5 50.5t106 19.5 q94 0 144.5 -44t50.5 -163q0 -86 -31 -228l-129 -614h-153l129 616q12 59 19 106.5t7 82.5q0 55 -22.5 84t-75.5 29q-43 0 -91 -28t-93 -69t-81 -88t-57 -88l-133 -645h-153z" />
<glyph unicode="&#x443;" horiz-adv-x="899" d="M397 360l11 -196h10l78 198l340 662h163l-483 -913l-105 -196q-52 -95 -107.5 -170t-115 -120t-122.5 -45q-35 0 -60.5 4t-46.5 15l49 141q23 -8 49 -8q59 0 119 61.5t133 206.5l-176 1024h164z" />
<glyph unicode="&#x444;" horiz-adv-x="1394" d="M528 -8q-29 -8 -51 -12.5t-51 -4.5q-168 0 -252 91.5t-84 236.5q0 174 45 311.5t123 232.5t180.5 144t218.5 49q53 0 93 -8l84 402h147l-86 -404q37 6 64.5 8t54.5 2q160 0 242.5 -89t82.5 -232q0 -193 -50 -333t-130 -231.5t-180 -135.5t-201 -44q-18 0 -52 3.5 t-52 11.5l-84 -400h-148zM954 909q-25 0 -43 -3t-47 -9l-166 -782q20 -4 42 -6.5t44 -2.5q66 0 135.5 37t126 111t93.5 185.5t37 262.5q-1 207 -222 207zM457 106q23 0 47 4.5t53 8.5l166 780q-23 4 -43.5 7t-48.5 3q-61 0 -128 -37.5t-122 -111.5t-91 -180.5t-36 -243.5 q0 -102 51.5 -166t151.5 -64z" />
<glyph unicode="&#x445;" horiz-adv-x="991" d="M416 524l-219 500h174l121 -283l36 -116l84 116l248 283h187l-435 -492l244 -532h-174l-139 311l-41 123l-86 -123l-275 -311h-186z" />
<glyph unicode="&#x446;" horiz-adv-x="1085" d="M854 0h-6q-72 0 -106.5 35t-34.5 100q0 29 6 60h-8q-29 -39 -68 -78t-86 -71t-101.5 -51.5t-115.5 -19.5q-45 0 -83 10.5t-66.5 36t-45 67.5t-16.5 108q0 72 20 161l140 666h153l-143 -682q-12 -55 -12 -102q0 -57 22.5 -95.5t81.5 -38.5q49 0 99.5 25t96.5 63.5t83.5 86 t62.5 92.5l137 651h154l-70 -325l-47 -220l-30 -139q-11 -51 -16 -79t-6 -40t-1 -24q0 -66 55 -66h113l-107 -391h-123z" />
<glyph unicode="&#x447;" horiz-adv-x="962" d="M379 1024l-60 -279q-14 -72 -14 -122q0 -59 27.5 -95t103.5 -36q90 0 149.5 25.5t94.5 49.5l98 457h156l-217 -1024h-156l90 430q-35 -20 -100.5 -45t-163.5 -25q-55 0 -100 11.5t-77 37t-50.5 68.5t-18.5 107q-6 74 82 440h156z" />
<glyph unicode="&#x448;" horiz-adv-x="1523" d="M965 1024l-121 -580q-14 -68 -23.5 -123t-9.5 -96q0 -57 20.5 -88t67.5 -31q35 0 79 26t87 65t81 84t58 86l137 657h154l-152 -715q-16 -78 -25 -157.5t-13 -151.5h-117l-6 174h-8q-68 -86 -153 -142.5t-202 -56.5q-76 0 -115.5 56.5t-39.5 152.5v6q-31 -41 -69 -78.5 t-83 -68.5t-96 -49.5t-107 -18.5q-92 0 -140 43t-48 162q0 88 31 230l129 614h153l-129 -616q-25 -111 -24 -183q0 -119 79 -119q49 0 97.5 27t90.5 68t74.5 89t53.5 89l135 645h154z" />
<glyph unicode="&#x449;" horiz-adv-x="1564" d="M1186 195q-70 -102 -160 -161t-207 -59q-76 0 -115.5 56.5t-39.5 152.5v6q-31 -41 -69 -78.5t-83 -68.5t-96 -49.5t-107 -18.5q-92 0 -140 43t-48 162q0 88 31 230l129 614h153l-129 -616q-10 -53 -17 -98.5t-7 -80.5q0 -59 19 -91t60 -32q49 0 97.5 27t90.5 68t74.5 89 t53.5 89l135 645h154l-121 -580q-14 -68 -23.5 -123t-9.5 -96q0 -57 20.5 -88t67.5 -31q35 0 79 26t87 65t81 84t58 86l137 657h154l-61 -291l-41 -196l-24.5 -120t-13.5 -63.5t-7 -29t-2 -11.5q-4 -25 -10.5 -56.5t-6.5 -59.5q0 -66 55 -66h111l-104 -391h-125l69 260h-6 q-74 0 -107.5 35t-33.5 98q0 27 6 62h-8z" />
<glyph unicode="&#x44a;" horiz-adv-x="972" d="M342 276q-8 -33 -8 -63q0 -94 106 -94q63 0 118.5 20.5t96.5 57t63.5 85t22.5 103.5q0 59 -31.5 97t-123.5 38q-20 0 -47 -3t-54.5 -8t-54.5 -13.5t-45 -20.5zM414 610q49 16 106.5 26.5t116.5 10.5q119 0 193.5 -54t74.5 -171q0 -96 -39 -176t-108.5 -137.5t-162.5 -89 t-200 -31.5q-117 0 -168 53t-51 137q0 20 2 42t8 44l154 619h-234l29 141h389z" />
<glyph unicode="&#x44b;" horiz-adv-x="1308" d="M285 240q-2 -10 -3 -18.5t-1 -16.5q0 -39 21.5 -62.5t70.5 -23.5q61 0 115.5 19.5t95.5 55t64.5 85t23.5 108.5q0 63 -35 98t-137 35q-84 0 -162 -33zM367 621q35 10 92 18t104 8q150 0 211.5 -60.5t61.5 -158.5q0 -106 -44 -188t-115 -138.5t-159 -85t-178 -28.5 q-113 0 -165 47t-52 127q0 39 8 71l178 791h154zM1126 1024h154l-217 -1024h-154z" />
<glyph unicode="&#x44c;" horiz-adv-x="917" d="M287 270q-6 -29 -6 -49q0 -47 29.5 -74.5t95.5 -27.5q57 0 107 19.5t89 54t61.5 84t22.5 110.5q0 72 -38 102.5t-136 30.5q-53 0 -94 -11t-78 -24zM369 621q4 0 5 1t5 1q41 10 86 17t100 7q90 0 145.5 -18.5t86 -49t42 -71.5t11.5 -84q0 -109 -40 -189.5t-106.5 -136 t-152.5 -83t-178 -27.5q-72 0 -119 16t-77 44t-42 63.5t-12 72.5q0 29 6 60l182 780h154z" />
<glyph unicode="&#x44d;" horiz-adv-x="901" d="M254 580h408q4 20 6 41.5t2 46.5q0 129 -51.5 189.5t-145.5 60.5t-156.5 -22t-103.5 -46l-41 106q70 45 153 69t185 24q84 0 144.5 -25t100.5 -69t59.5 -103t19.5 -129q0 -209 -47.5 -352.5t-125 -230.5t-177 -126t-201.5 -39q-207 0 -301 64l67 125q39 -27 103.5 -42.5 t128.5 -15.5q141 0 236 88.5t134 260.5h-424z" />
<glyph unicode="&#x44e;" horiz-adv-x="1392" d="M543 592q29 104 75 188t107 143.5t135 92.5t160 33q88 0 146.5 -28t94 -76t51 -110.5t15.5 -129.5q0 -154 -40 -287t-109.5 -231.5t-162.5 -155t-198 -56.5q-92 0 -151.5 30t-94 79t-48 110.5t-13.5 124.5q0 37 3 72t7 70h-198l-97 -461h-153l217 1024h153l-90 -432h191z M664 356q0 -121 36.5 -185.5t135.5 -64.5q63 0 122.5 48.5t104.5 130.5t72.5 187.5t27.5 219.5q0 104 -33.5 165t-138.5 61q-68 0 -127 -46.5t-104 -124t-70.5 -179t-25.5 -212.5z" />
<glyph unicode="&#x44f;" horiz-adv-x="954" d="M653 422l-157 -25l-330 -397h-199l299 350l101 76q-82 14 -137.5 68.5t-55.5 152.5q0 94 39 169t104.5 126t152.5 79t183 28q41 0 82 -5.5t78 -12.5t66 -16l47 -16l-209 -999h-154zM756 891q-10 10 -45 18.5t-95 8.5q-123 0 -200.5 -69t-77.5 -183q0 -150 213 -150h7h17 q12 0 35 1t64 3z" />
<glyph unicode="&#x451;" horiz-adv-x="948" d="M797 100q-72 -61 -169.5 -93t-195.5 -32q-164 0 -247 94.5t-83 262.5t47.5 301t124 225t174 141.5t199.5 49.5q74 0 128 -20.5t89 -54.5t51.5 -78t16.5 -93q0 -145 -141.5 -228t-411.5 -83q-25 0 -51.5 1t-55.5 3q-8 -39 -12 -74t-4 -62q0 -113 51 -183.5t160 -70.5 q90 0 165 30t116 63zM623 918q-113 0 -196 -77t-126 -231q78 0 162 4t152.5 21.5t113.5 55.5t45 106q0 20 -7 41.5t-23.5 39t-46 29t-74.5 11.5zM409 1298q0 45 26 75t69 30t69.5 -30t26.5 -75q0 -41 -26.5 -70.5t-69.5 -29.5t-69 29.5t-26 70.5zM784 1300q0 43 25.5 73 t68.5 30q45 0 71 -30t26 -73t-26 -72.5t-71 -29.5q-43 0 -68.5 29.5t-25.5 72.5z" />
<glyph unicode="&#x452;" horiz-adv-x="1007" d="M139 1024h154l88 410h154l-89 -410h314l-25 -123h-315l-74 -344h8q31 31 69 62.5t84 58.5t101.5 43t120.5 16q102 0 151.5 -50t49.5 -167q0 -23 -3 -52.5t-12.5 -85.5t-27.5 -148l-49 -234q-35 -217 -121 -325.5t-234 -108.5q-14 0 -28.5 1t-28.5 3l31 143q55 0 91 16.5 t60.5 52.5t42 90t33.5 128l59 274q12 59 19.5 107.5t7.5 87.5q0 66 -25.5 101.5t-91.5 35.5q-49 0 -102 -24.5t-102.5 -63.5t-89.5 -88t-60 -98l-68 -332h-153l190 901h-155z" />
<glyph unicode="&#x453;" horiz-adv-x="841" d="M55 246q0 98 43 159.5t108.5 102.5t141.5 67.5t141.5 54t108.5 63.5t43 95q0 66 -36 92.5t-124 26.5q-78 0 -134 -17.5t-101 -39.5l-31 121q66 35 143.5 51t163.5 16q82 0 136.5 -18.5t87 -49t46 -71.5t13.5 -86q0 -98 -43 -158.5t-108.5 -98.5t-141.5 -62.5t-141.5 -53 t-108.5 -68.5t-43 -108q0 -72 46 -115t122 -43t149.5 27t114.5 55l41 -100q-63 -53 -152 -83t-163 -30q-100 0 -162.5 28t-98.5 69t-48.5 88t-12.5 86zM669 1475h172l-10 -43l-252 -263h-90z" />
<glyph unicode="&#x454;" horiz-adv-x="888" d="M799 88q-74 -59 -164 -86t-180 -27q-84 0 -149.5 28t-110.5 77t-69 114.5t-24 143.5q0 180 51.5 314t134.5 222.5t188.5 131.5t215.5 43q92 0 140.5 -15.5t82.5 -32.5l-57 -118q-43 18 -81 26.5t-97 8.5q-133 0 -235.5 -88.5t-149.5 -237.5h463l-29 -131h-459 q-4 -20 -4 -40v-40q0 -55 11.5 -105.5t40 -87t77.5 -59.5t127 -23q72 0 135.5 28t104.5 56z" />
<glyph unicode="&#x455;" horiz-adv-x="815" d="M530 289q0 53 -26.5 90t-67.5 66.5t-88 58t-88 64.5t-67.5 84t-26.5 120q0 57 27.5 107.5t75.5 88.5t115 59.5t144 21.5q109 0 168.5 -14.5t106.5 -41.5l-51 -123q-82 47 -224 48q-86 0 -142 -36t-56 -110q0 -43 26.5 -74.5t67.5 -60.5t88 -58.5t88 -67.5t67.5 -89 t26.5 -121q0 -160 -107.5 -243t-287.5 -83q-92 0 -169 18.5t-124 47.5l57 129q41 -27 108 -45.5t138 -18.5q100 0 160.5 44.5t60.5 138.5z" />
<glyph unicode="&#x456;" horiz-adv-x="530" d="M328 1024h153l-217 -1024h-153zM360 1337q0 47 32 80t79 33t80 -33t33 -80t-33 -78.5t-80 -31.5t-79 31.5t-32 78.5z" />
<glyph unicode="&#x457;" horiz-adv-x="534" d="M227 1298q0 43 24.5 72t67.5 29t68 -29t25 -72t-25 -71.5t-68 -28.5t-67.5 28.5t-24.5 71.5zM471 1298q0 43 24.5 72t67.5 29t67.5 -29t24.5 -72t-24.5 -71.5t-67.5 -28.5t-67.5 28.5t-24.5 71.5zM299 1024h154l-217 -1024h-154z" />
<glyph unicode="&#x458;" horiz-adv-x="509" d="M303 1024h154l-230 -1079q-41 -190 -127 -280.5t-233 -90.5q-16 0 -31.5 1t-32.5 3l31 133q61 0 101 17.5t68 54.5t47.5 92t35.5 131zM336 1337q0 47 31.5 80t78.5 33t80 -33t33 -80t-32.5 -78.5t-80.5 -31.5q-47 0 -78.5 31.5t-31.5 78.5z" />
<glyph unicode="&#x459;" horiz-adv-x="1423" d="M848 485q-23 -88 -34 -136l-17 -73q-6 -25 -7.5 -35t-1.5 -20q0 -47 30 -74.5t95 -27.5q57 0 107.5 19.5t88.5 55t60.5 86t22.5 111.5q0 72 -37 100.5t-135 28.5q-53 0 -94 -11.5t-78 -23.5zM782 893h-262q-53 -219 -100 -387t-101.5 -281.5t-120 -173t-157.5 -59.5 q-35 0 -62.5 4t-46.5 14l48 131q25 -6 47 -6q45 0 85 33t83 129t93 270t118 457h559l-88 -403q41 10 89 18t107 8q90 0 145.5 -18.5t86 -49t41 -71.5t10.5 -84q0 -109 -40 -189.5t-106.5 -136t-152.5 -83t-178 -27.5q-72 0 -119 16t-77 44t-42 63.5t-12 72.5q0 31 6 60z" />
<glyph unicode="&#x45a;" horiz-adv-x="1488" d="M934 618q39 10 93 19.5t110 9.5q90 0 146 -18.5t87 -49t41 -71.5t10 -84q0 -109 -40 -189.5t-106.5 -136t-152.5 -83t-178 -27.5q-72 0 -119 16t-76.5 44t-42 63.5t-12.5 72.5q0 31 6 62l48 215h-424l-99 -461h-153l217 1024h153l-92 -432h424l92 432h154zM858 270 q-6 -29 -6 -49q0 -47 29.5 -74.5t95.5 -27.5q57 0 107.5 19.5t89 55t61 86t22.5 111.5q0 72 -37.5 100.5t-136.5 28.5q-53 0 -94 -11t-78 -24z" />
<glyph unicode="&#x45b;" horiz-adv-x="1003" d="M139 1024h154l88 410h154l-89 -410h314l-25 -123h-313l-70 -326h8q66 63 153 112.5t216 49.5q92 0 144.5 -47t52.5 -176q0 -84 -25 -207l-65 -307h-154l59 276q12 59 19.5 108.5t7.5 88.5q0 66 -25.5 99.5t-89.5 33.5q-59 0 -113.5 -23.5t-100.5 -61.5t-81.5 -84 t-56.5 -89l-70 -348h-153l190 901h-155z" />
<glyph unicode="&#x45c;" horiz-adv-x="950" d="M432 461h-110l-97 -461h-153l217 1024h153l-98 -463l84 27l381 436h184l-375 -412l-94 -67l82 -82l230 -463h-172zM737 1475h172l-10 -43l-252 -263h-90z" />
<glyph unicode="&#x45e;" horiz-adv-x="899" d="M397 360l11 -196h10l78 198l340 662h163l-483 -913l-105 -196q-52 -95 -107.5 -170t-115 -120t-122.5 -45q-35 0 -60.5 4t-46.5 15l49 141q23 -8 49 -8q59 0 119 61.5t133 206.5l-176 1024h164zM504 1438q0 -96 40 -132t101 -36q63 0 119.5 39t91.5 127l111 -39 q-41 -119 -138.5 -182.5t-211.5 -63.5q-51 0 -97.5 12.5t-81 39t-55 68.5t-20.5 99v19z" />
<glyph unicode="&#x45f;" horiz-adv-x="1046" d="M539 -80l-50 -330h-161l84 330h127zM436 1024l-143 -682q-12 -55 -12 -102q0 -57 22.5 -95.5t81.5 -38.5q49 0 99.5 25t96.5 63.5t83.5 86t62.5 92.5l137 651h154l-129 -608q-8 -35 -16.5 -85t-15.5 -105.5t-11 -107.5t-4 -91v-27h-121v195h-8q-31 -41 -71 -80t-88 -70 t-103.5 -50.5t-116.5 -19.5q-45 0 -83 10.5t-66.5 36t-45 67.5t-16.5 108q0 72 20 161l140 666h153z" />
<glyph unicode="&#x462;" horiz-adv-x="1210" d="M193 1270h286l45 207h164l-45 -207h406l-31 -144h-404l-53 -252q10 2 31.5 5.5t47.5 5.5l54.5 4t50.5 2q90 0 169 -21.5t136.5 -66.5t90.5 -115t33 -166q0 -133 -47.5 -234.5t-131.5 -169t-201.5 -101t-258.5 -33.5q-29 0 -69 1t-85 4t-89 9t-79 16l236 1112h-287z M573 131q82 0 160 21.5t137.5 67.5t95 117t35.5 169q0 129 -83.5 183t-217.5 54q-16 0 -41.5 -1t-51 -4t-47 -6t-32.5 -5l-122 -584q27 -6 73.5 -9t93.5 -3z" />
<glyph unicode="&#x463;" horiz-adv-x="1378" d="M748 270q-6 -29 -7 -49q0 -47 30 -74.5t95 -27.5q57 0 107.5 19.5t89.5 55t61.5 86t22.5 111.5q0 72 -38 100.5t-136 28.5q-53 0 -94 -11t-78 -24zM684 647q12 53 19.5 96t7.5 74q0 100 -82 101q-35 0 -72 -25t-72.5 -62.5t-66.5 -84t-56 -91.5l-135 -655h-153l217 1024 h106l-10 -160h8q20 31 49 62.5t66 59.5t84 45.5t102 17.5q84 0 128 -42t44 -145q0 -76 -24 -182l-15 -59q41 10 89.5 18t107.5 8q90 0 145.5 -18.5t86 -49t42 -71.5t11.5 -84q0 -109 -40 -189.5t-107.5 -136t-153.5 -83t-179 -27.5q-72 0 -118.5 16t-76.5 44t-42 63.5 t-12 72.5q0 31 6 60z" />
<glyph unicode="&#x472;" horiz-adv-x="1333" d="M147 524q0 188 50.5 358.5t143.5 298.5t226 202.5t297 74.5q98 0 183.5 -29.5t146.5 -94t96 -167t35 -249.5q0 -193 -49 -364t-140.5 -300t-217 -204t-279.5 -75q-242 0 -367 140.5t-125 408.5zM319 526q0 -193 84 -298t240 -105q90 0 168 40t139.5 110.5t106.5 168 t69 211.5h-800q-7 -66 -7 -127zM836 1311q-90 0 -168 -39t-139.5 -106.5t-107.5 -161t-71 -203.5h797q6 55 6 112q0 119 -28.5 197t-73.5 122t-101.5 61.5t-113.5 17.5z" />
<glyph unicode="&#x473;" horiz-adv-x="1019" d="M102 319q0 162 42 296.5t116 230.5t171 149.5t208 53.5q86 0 146.5 -28t98.5 -76t54 -110.5t16 -129.5q0 -154 -40 -287t-110.5 -231.5t-164.5 -155t-205 -56.5q-92 0 -154.5 30t-102.5 79t-57.5 110.5t-17.5 124.5zM608 918q-51 0 -98 -27t-89 -73t-74 -109.5 t-52 -137.5h487q4 29 6.5 60t2.5 61q0 104 -38.5 165t-144.5 61zM266 356q0 -121 45 -185.5t144 -64.5q49 0 94 26t84 72t70.5 108.5t52.5 136.5h-486q-2 -23 -3 -46.5t-1 -46.5z" />
<glyph unicode="&#x474;" horiz-adv-x="1161" d="M510 -23h-76l-221 1457h168l137 -983v-218h4l80 220l260 524q72 147 128.5 239.5t107.5 143.5t103 69.5t118 18.5q63 0 105 -13.5t71 -31.5l-78 -143q-57 37 -117 36q-57 0 -108 -53t-117 -178z" />
<glyph unicode="&#x475;" horiz-adv-x="976" d="M387 -23h-65l-199 1047h164l106 -600l13 -195h4l88 199l90 152l57 99l38 64l28 45q76 119 146.5 184.5t164.5 65.5q35 0 62.5 -4t50.5 -14l-52 -137l-28 8q-14 4 -31 4q-35 0 -78 -33t-104 -133z" />
<glyph unicode="&#x48a;" horiz-adv-x="1343" d="M1116 958l49 166h-6l-121 -172l-852 -952h-104l305 1434h164l-207 -975l-51 -156h8l121 168l854 963h104l-272 -1291h201l-11 -45l-254 -362h-104l145 264h-172zM774 1782q0 -76 38 -117t106 -41q86 0 141 42t78 114l149 -35q-37 -111 -133 -175.5t-244 -64.5 q-139 0 -204.5 68.5t-69.5 167.5z" />
<glyph unicode="&#x48b;" horiz-adv-x="1095" d="M436 1024l-143 -682q-12 -55 -12 -102q0 -57 22.5 -95.5t81.5 -38.5q49 0 99.5 25t96.5 63.5t83.5 86t62.5 92.5l137 651h154l-129 -608q-10 -47 -22.5 -124t-18.5 -149h205l-11 -45l-254 -362h-104l145 264h-108v195h-8q-31 -41 -71 -80t-88 -70t-103.5 -50.5 t-116.5 -19.5q-45 0 -83 10.5t-66.5 36t-45 67.5t-16.5 108q0 72 20 161l140 666h153zM537 1438q0 -96 39.5 -132t101.5 -36q63 0 119.5 39t91.5 127l110 -39q-41 -119 -138 -182.5t-212 -63.5q-51 0 -97 12.5t-81 39t-55.5 68.5t-20.5 99v19z" />
<glyph unicode="&#x48c;" horiz-adv-x="1093" d="M221 1434h176l35 163h162l-35 -163h283l-27 -127h-283l-90 -430q10 2 32 5t47.5 5t54 4t51.5 2q86 0 164.5 -19.5t137 -63.5t93.5 -114.5t35 -171.5q0 -150 -54.5 -252t-143.5 -166.5t-204.5 -93t-238.5 -28.5q-27 0 -67 1t-84 4t-88 9t-81 16l275 1293h-178zM461 131 q96 0 174 26.5t133 76t86 118t31 150.5q0 131 -84 187t-217 56q-16 0 -42 -2l-53 -4q-27 -2 -48 -6l-31 -6l-123 -584q25 -6 75 -9t99 -3z" />
<glyph unicode="&#x48d;" horiz-adv-x="917" d="M463 1024h381l-29 -127h-381l-65 -276q43 10 90 18t106 8q90 0 145.5 -18.5t86 -49t42 -71.5t11.5 -84q0 -109 -40 -189.5t-106.5 -136t-152.5 -83t-178 -27.5q-72 0 -119 16t-77 44t-42 63.5t-12 72.5q0 29 6 60l152 653h-146l31 127h145l97 410h153zM287 270 q-6 -29 -6 -49q0 -47 29.5 -74.5t95.5 -27.5q57 0 107 19.5t89 55t61.5 86t22.5 111.5q0 72 -38 100.5t-136 28.5q-53 0 -94 -11t-78 -24z" />
<glyph unicode="&#x48e;" horiz-adv-x="1089" d="M383 1419q78 18 164 24.5t170 6.5q94 0 175 -20.5t140.5 -65.5t93 -115.5t33.5 -169.5q0 -98 -23.5 -176t-65.5 -137t-98.5 -102t-121.5 -70l94 -193l-108 -55l-103 213q-53 -12 -107.5 -17t-107.5 -5h-32q-22 0 -46 1t-46.5 3t-33.5 4l-114 -545h-164zM680 940l98 -213 q92 39 150.5 120t58.5 216q0 74 -24.5 121t-66.5 72.5t-97.5 36t-116.5 10.5q-47 0 -91 -3.5t-73 -9.5l-125 -596q8 -4 27.5 -5t41 -3t42.5 -2h31q76 0 143 12l-92 197z" />
<glyph unicode="&#x48f;" horiz-adv-x="1040" d="M295 1024h106l-10 -176h8q29 37 65 72.5t79 64.5t94 46.5t111 17.5q49 0 92 -15.5t75.5 -51.5t52 -95.5t19.5 -145.5q0 -233 -80 -400t-196 -261l80 -131l-99 -78l-86 143q-90 -39 -174 -39q-72 0 -126 13.5t-73 27.5l-90 -426h-153zM555 330l78 -131q84 78 137 214 t53 316q0 82 -33.5 135.5t-99.5 53.5q-55 0 -105 -29t-92 -71t-75 -90t-53 -89l-101 -485q35 -27 72 -37.5t80 -10.5q66 0 127 31l-78 129z" />
<glyph unicode="&#x490;" horiz-adv-x="860" d="M1083 1282h-567l-270 -1282h-164l305 1434h586l88 274h110l-57 -274z" />
<glyph unicode="&#x491;" horiz-adv-x="776" d="M414 893l-189 -893h-153l217 1024h426l88 274h110l-57 -274l-29 -131h-413z" />
<glyph unicode="&#x492;" horiz-adv-x="940" d="M1124 1282h-567l-104 -494h417l-28 -135h-418l-137 -653h-164l139 653h-188l30 135h187l137 646h727z" />
<glyph unicode="&#x493;" horiz-adv-x="815" d="M858 893h-409l-70 -322h358l-26 -122h-357l-94 -449h-156l95 449h-146l27 122h145l97 453h565z" />
<glyph unicode="&#x494;" horiz-adv-x="1124" d="M246 0h-164l305 1434h727l-31 -152h-567l-117 -555q29 10 94.5 26.5t174.5 16.5q166 0 264 -89t98 -284q0 -131 -36 -249.5t-108.5 -210t-183 -145.5t-258.5 -54q-66 0 -98.5 1t-48.5 5l33 152q23 -4 54.5 -5.5t86.5 -1.5q100 0 173 42t121 111t70.5 159t22.5 186 q0 125 -64.5 180.5t-187.5 55.5q-35 0 -70.5 -4.5t-68.5 -11.5t-59.5 -15t-40.5 -14z" />
<glyph unicode="&#x495;" horiz-adv-x="950" d="M227 0h-153l217 1024h565l-29 -131h-411l-80 -377q25 6 89 24.5t181 18.5q135 0 211 -70.5t76 -201.5q0 -190 -45 -325.5t-123 -221.5t-181.5 -126t-219.5 -40q-59 0 -89 4t-45 8l31 127q23 -4 52.5 -6t88.5 -2q68 0 133.5 32t118 97.5t84 167.5t31.5 242q0 96 -49 140 t-127 44q-98 0 -161.5 -16.5t-86.5 -26.5z" />
<glyph unicode="&#x496;" horiz-adv-x="1595" d="M913 1434h154l-141 -668l75 29l527 639h198l-524 -623l-96 -66l82 -83l225 -510h143l-88 -416h-112l26 264h-79l-297 664h-103l-139 -664h-154l146 688l-76 -26l-565 -662h-205l563 641l109 78l-70 72l-272 643h180l258 -643h98z" />
<glyph unicode="&#x497;" horiz-adv-x="1445" d="M459 461q-37 -137 -81 -227.5t-93 -144.5t-103.5 -76.5t-109.5 -22.5q-25 0 -50.5 4t-50.5 10l41 139q25 -6 49 -6q82 0 154 87t113 294q10 59 16 105.5t6 85.5q0 109 -37 149.5t-94 40.5q-10 0 -20 -2l-21 -4l-18 127q29 4 53.5 7t46.5 3q115 0 172 -66.5t57 -213.5 q0 -37 -4 -79t-12 -89h201l94 442h154l-97 -442h187q35 131 76.5 217t90 138t100.5 73.5t105 21.5q45 0 89 -12l-35 -131q-10 2 -20.5 3t-20.5 1q-37 0 -71 -16.5t-63.5 -56.5t-56 -105.5t-51.5 -163.5q-12 -51 -19.5 -100.5t-7.5 -96.5q0 -98 32 -166.5t102 -68.5 q25 0 49 8l53 -37l-92 -350h-123l63 248q-68 2 -111.5 29.5t-70 73.5t-38 105.5t-11.5 125.5q0 35 3 69.5t7 69.5h-190l-96 -461h-154l98 461h-190z" />
<glyph unicode="&#x498;" horiz-adv-x="1054" d="M336 678l31 141h28q37 0 91.5 3t86.5 7q55 6 112.5 25.5t104 54.5t76 86.5t29.5 120.5q0 92 -65.5 143.5t-178.5 51.5q-104 0 -173.5 -17.5t-127.5 -38.5l-16 134q47 23 142 46t220 23q78 0 145.5 -19.5t118 -56t79 -92t28.5 -129.5q0 -88 -27.5 -155.5t-73.5 -116.5 t-107.5 -79t-129.5 -40v-8q43 -10 85 -31.5t76 -58.5t54.5 -91.5t20.5 -129.5q0 -125 -48.5 -213t-125 -144.5t-174 -84t-195.5 -34.5l-64 -342h-151l84 342q-100 4 -169 18.5t-110 35.5l74 149q41 -23 117 -39t190 -16q70 0 141.5 17.5t129 56.5t93.5 101t36 153 q0 61 -21.5 102t-58.5 67.5t-84 39t-97 16.5q-23 2 -45 2h-45h-106z" />
<glyph unicode="&#x499;" horiz-adv-x="856" d="M246 459l26 127h136q35 0 74.5 16t73.5 45t56.5 65t22.5 76q0 66 -39 92.5t-143 26.5q-74 0 -128.5 -16.5t-101.5 -38.5l-33 121q66 35 145 50t181 15q152 0 217.5 -54t65.5 -157q0 -53 -18.5 -98t-50.5 -81t-72 -60.5t-83 -38.5v-8q88 -16 124 -66.5t36 -116.5 q0 -80 -28.5 -143t-80 -111.5t-122 -78t-152.5 -37.5l-65 -355h-152l86 351q-70 6 -131 24.5t-98 46.5l65 123q41 -27 102.5 -45t135.5 -18q119 0 199.5 59t80.5 164q0 61 -49 91t-168 30h-112z" />
<glyph unicode="&#x49a;" horiz-adv-x="1193" d="M489 664h-104l-139 -664h-164l303 1434h164l-143 -668l81 29l588 639h203l-586 -623l-94 -63l80 -82l276 -514h176l-88 -416h-112l28 264h-108z" />
<glyph unicode="&#x49b;" horiz-adv-x="952" d="M432 461h-110l-97 -461h-153l217 1024h153l-98 -463l84 27l381 436h184l-375 -412l-94 -67l82 -82l164 -332h162l-107 -391h-125l70 260h-106z" />
<glyph unicode="&#x49c;" horiz-adv-x="1337" d="M481 664h-96l-139 -664h-164l305 1434h162l-143 -668l100 10l55 258h129l-53 -243l37 4l551 639h200l-548 -619l-97 -67l80 -80l322 -668h-183l-313 664h-76l-55 -265h-129z" />
<glyph unicode="&#x49d;" horiz-adv-x="1081" d="M420 461h-98l-97 -461h-153l217 1024h153l-98 -463l98 10l56 252h123l-52 -239l49 6l340 434h172l-321 -412l-111 -67l82 -82l172 -463h-168l-170 461h-71l-56 -260h-122z" />
<glyph unicode="&#x49e;" horiz-adv-x="1296" d="M195 1303h266l28 131h164l-26 -131h235l-28 -136h-238l-82 -401l84 29l584 639h200l-579 -623l-101 -63l82 -82l355 -666h-185l-356 664h-109l-139 -664h-164l244 1163h-266z" />
<glyph unicode="&#x49f;" horiz-adv-x="919" d="M180 1255h158l39 179h153l-38 -179h309l-25 -122h-311l-121 -572l88 23l369 440h188l-364 -416l-97 -67l78 -80l230 -461h-170l-232 461h-110l-97 -461h-153l239 1133h-159z" />
<glyph unicode="&#x4a0;" horiz-adv-x="1337" d="M498 1282h-310l33 152h473l-141 -668l78 29l590 639h202l-581 -621l-99 -65l80 -80l359 -668h-185l-360 664h-107l-139 -664h-164z" />
<glyph unicode="&#x4a1;" horiz-adv-x="993" d="M397 561l76 29l404 434h184l-387 -412l-96 -67l81 -82l228 -463h-174l-228 461h-110l-96 -461h-154l190 893h-215l27 131h369z" />
<glyph unicode="&#x4a2;" horiz-adv-x="1368" d="M1034 657h-651l-137 -657h-164l303 1434h164l-131 -625h649l131 625h164l-270 -1282h176l-88 -416h-111l25 264h-35h-164z" />
<glyph unicode="&#x4a3;" horiz-adv-x="1071" d="M766 451h-442l-97 -451h-153l217 1024h153l-90 -426h443l90 426h153l-190 -893h145l-106 -391h-125l70 260h-11h-153z" />
<glyph unicode="&#x4a4;" horiz-adv-x="1673" d="M1896 1282h-567l-270 -1282h-164l139 657h-651l-137 -657h-164l303 1434h164l-131 -625h649l131 625h729z" />
<glyph unicode="&#x4a5;" horiz-adv-x="1370" d="M762 451h-438l-97 -451h-153l217 1024h153l-90 -426h441l90 426h565l-29 -139h-413l-187 -885h-153z" />
<glyph unicode="&#x4a6;" horiz-adv-x="1900" d="M1034 0h-164l271 1282h-627l-268 -1282h-164l305 1434h950l-149 -707q23 8 94.5 25.5t177.5 17.5q162 0 260.5 -88t98.5 -272q0 -143 -37 -266.5t-111 -213.5t-183.5 -141t-254.5 -51q-66 0 -99.5 1t-46.5 5l33 152q23 -4 53.5 -5.5t90.5 -1.5q102 0 174.5 42t119 112 t68 160t21.5 186q0 131 -68 182.5t-180 51.5q-35 0 -73 -5.5t-71.5 -12.5t-59.5 -14t-38 -13z" />
<glyph unicode="&#x4a7;" horiz-adv-x="1564" d="M831 0h-153l137 647q8 39 13.5 74t5.5 63q0 59 -27 96.5t-102 37.5q-53 0 -104.5 -25t-96.5 -62.5t-81 -84t-61 -91.5l-135 -655h-153l217 1024h106l-8 -176h8q27 33 64 68.5t83 64.5t103.5 48.5t126.5 19.5q102 0 160.5 -49.5t58.5 -172.5q0 -31 -3 -67.5t-13 -79.5 l-33 -164l82 25.5t139 17.5q174 0 254 -75.5t80 -223.5q0 -180 -45 -308t-121 -210t-175 -121t-206 -39q-47 0 -84 5t-53 10l31 131q45 -14 139 -15q70 0 133.5 33t111.5 95.5t76.5 152.5t28.5 205q0 66 -10 109.5t-35.5 70.5t-68.5 38t-107 11q-63 0 -120 -18l-81 -27z" />
<glyph unicode="&#x4a8;" horiz-adv-x="1581" d="M872 1311q-117 -2 -218 -59.5t-176 -160t-117 -241.5t-42 -303q0 -219 92.5 -321.5t252.5 -102.5q23 0 49 4t49 12q-20 14 -48 50t-52.5 92.5t-42 132t-17.5 170.5q0 207 55.5 359.5t141.5 251.5t191.5 148.5t207.5 49.5q59 0 122.5 -17.5t116 -63.5t85 -130t32.5 -215 q0 -129 -35.5 -258t-99 -243t-151.5 -204t-193 -139q10 -2 21 -2h20q72 0 133.5 16.5t102.5 44.5l20 -133q-43 -31 -102.5 -52.5t-161.5 -21.5q-61 0 -118.5 15.5t-98.5 46.5q-57 -35 -124 -48.5t-134 -13.5q-147 0 -242.5 52.5t-149 133.5t-74 177t-20.5 186q0 244 68 420 t176.5 291t242.5 169t269 54zM780 600q0 -33 4 -87t20.5 -114.5t49.5 -120t90 -98.5q98 51 179 132t138.5 182.5t89 219t31.5 240.5q0 61 -8 114.5t-30.5 92.5t-61.5 61.5t-100 22.5q-63 0 -134 -40t-130.5 -120.5t-98.5 -201.5t-39 -283z" />
<glyph unicode="&#x4a9;" horiz-adv-x="1298" d="M631 907q-68 0 -133.5 -38t-116.5 -107.5t-83 -165.5t-32 -213q0 -141 65.5 -204.5t170.5 -63.5q23 0 46 3t46 15q-18 25 -32.5 62.5t-24 79.5t-14.5 85t-5 78q0 113 33 217.5t93.5 186.5t145 131t187.5 49q66 0 114 -21.5t78.5 -58.5t46 -86t15.5 -104 q0 -115 -40 -224.5t-101.5 -202t-135 -159t-141.5 -92.5q53 -47 104.5 -61.5t114.5 -14.5l-33 -117q-14 -4 -28.5 -6t-30.5 -2q-78 0 -153.5 37t-118.5 102q-45 -23 -99.5 -30t-97.5 -7q-172 0 -270.5 106.5t-98.5 295.5q0 131 42 252t116 214t176.5 149.5t222.5 56.5z M676 428q0 -53 14.5 -125t46.5 -125q45 20 102.5 73.5t108.5 126.5t85 162t34 185q0 88 -29.5 123t-89.5 35q-59 0 -109.5 -38t-86 -100.5t-56 -145.5t-20.5 -171z" />
<glyph unicode="&#x4aa;" horiz-adv-x="1114" d="M983 59q-63 -41 -133 -60t-158 -24l-63 -342h-152l86 351q-98 14 -176 64t-132 126t-82 174t-28 213q0 231 68 400t178.5 280t248.5 164t280 53q117 0 190.5 -16.5t120.5 -38.5l-74 -150q-41 23 -107.5 38.5t-152.5 15.5q-115 0 -220.5 -50.5t-185 -144.5t-127 -229 t-47.5 -303q0 -98 26 -181.5t74 -143.5t118.5 -94t160.5 -34q96 0 160 21.5t115 50.5z" />
<glyph unicode="&#x4ab;" horiz-adv-x="860" d="M748 88q-53 -43 -124 -70.5t-137 -37.5l-63 -347h-152l84 349q-76 12 -125 45.5t-77.5 80t-40 98.5t-11.5 97q0 174 47.5 312.5t126 234.5t181 147.5t211.5 51.5q78 0 128 -14.5t91 -33.5l-58 -127q-35 20 -86 32t-110 12q-70 0 -136.5 -47.5t-117.5 -124t-82 -176 t-31 -203.5q0 -133 55.5 -193.5t149.5 -60.5q61 0 129 24.5t109 52.5z" />
<glyph unicode="&#x4ac;" horiz-adv-x="1081" d="M1233 1282h-424l-238 -1130h177l-89 -416h-110l24 264h-34h-164l270 1282h-420l31 152h1008z" />
<glyph unicode="&#x4ad;" horiz-adv-x="1585" d="M1176 0l129 616q12 59 19 106.5t7 82.5q0 55 -22.5 84t-75.5 29q-43 0 -91 -28t-93 -69t-81 -88t-57 -88l-133 -645h-153l123 580q16 72 24 127t8 96q0 55 -20.5 85t-69.5 30q-51 0 -100 -27t-92 -67t-79 -85t-57 -82l-135 -657h-153l217 1024h108l-12 -176h8l71 68 q38 36 84 65t100.5 48.5t119.5 19.5q92 0 124 -57.5t32 -160.5q31 39 71.5 78t89 70t101.5 50.5t106 19.5q94 0 144.5 -44t50.5 -163q0 -86 -31 -228l-102 -483h164l-107 -391h-125l70 260h-29h-153z" />
<glyph unicode="&#x4ae;" horiz-adv-x="1087" d="M494 569l-273 865h178l183 -627l6 -125h2l61 129l445 623h184l-623 -863l-120 -571h-164z" />
<glyph unicode="&#x4af;" horiz-adv-x="915" d="M123 1024h168l96 -664v-37q0 -34 2 -75q2 -47 4 -105h2l99 222l354 659h178l-586 -1024l-86 -410h-153l88 410z" />
<glyph unicode="&#x4b0;" horiz-adv-x="1087" d="M205 584h284l-268 850h178l183 -627l6 -125h2l61 129l445 623h184l-614 -850h286l-26 -127h-293l-96 -457h-164l96 457h-291z" />
<glyph unicode="&#x4b1;" horiz-adv-x="942" d="M76 0h239l-165 1024h167l97 -664v-37q0 -34 2 -75q2 -47 4 -105h2l98 222l354 659h179l-586 -1024h229l-24 -123h-232l-59 -287h-154l62 287h-240z" />
<glyph unicode="&#x4b2;" horiz-adv-x="1247" d="M592 733l-266 701h178l176 -486l25 -117l69 117l391 486h199l-571 -695l231 -587h170l-88 -416h-113l27 264h-115l-196 514l-29 123l-78 -123l-418 -514h-198z" />
<glyph unicode="&#x4b3;" horiz-adv-x="991" d="M543 311l-41 123l-86 -123l-275 -311h-186l461 524l-219 500h174l121 -283l36 -116l84 116l248 283h187l-435 -492l183 -401h139l-107 -391h-125l70 260h-90z" />
<glyph unicode="&#x4b4;" horiz-adv-x="1632" d="M1436 -264h-111l25 264h-37h-164h-612h-162l270 1282h-420l31 152h938l-31 -152h-354l-238 -1130h611l270 1282h164l-270 -1282h178z" />
<glyph unicode="&#x4b5;" horiz-adv-x="1085" d="M854 0h-6q-72 0 -106.5 35t-34.5 100q0 29 6 60h-8q-29 -39 -68 -78t-86 -71t-101.5 -51.5t-115.5 -19.5q-45 0 -83 10.5t-66.5 36t-45 67.5t-16.5 108q0 72 20 161l140 666h153l-143 -682q-12 -55 -12 -102q0 -57 22.5 -95.5t81.5 -38.5q49 0 99.5 25t96.5 63.5t83.5 86 t62.5 92.5l137 651h154l-70 -325l-47 -220l-30 -139q-11 -51 -16 -79t-6 -40t-1 -24q0 -66 55 -66h113l-107 -391h-123zM412 1317h575l-27 -127h-577z" />
<glyph unicode="&#x4b6;" horiz-adv-x="1241" d="M526 1434l-98 -461q-6 -29 -10 -56.5t-4 -50.5q0 -188 192 -188q92 0 177 25.5t145 68.5l141 662h164l-270 -1282h178l-88 -416h-111l25 264h-35h-166l131 618q-59 -35 -142 -63.5t-200 -28.5q-61 0 -117.5 15.5t-99.5 51.5t-67.5 92t-24.5 138q0 61 14 127l102 484h164z " />
<glyph unicode="&#x4b7;" horiz-adv-x="966" d="M651 430q-35 -20 -100.5 -45t-163.5 -25q-55 0 -100 11.5t-77 37t-50.5 68.5t-18.5 107q0 59 15 129l67 311h156l-60 -279q-14 -72 -14 -122q0 -59 27.5 -95t103.5 -36q90 0 149.5 25.5t94.5 49.5l98 457h156l-191 -893h144l-107 -391h-125l70 260h-164z" />
<glyph unicode="&#x4b8;" horiz-adv-x="1193" d="M530 1434l-98 -461q-10 -59 -10 -107q-2 -176 166 -188l53 254h129l-53 -246q66 10 125 32.5t102 53.5l139 662h164l-303 -1434h-164l131 618q-41 -25 -98 -48t-129 -35l-51 -238h-127l49 229q-63 2 -118.5 18.5t-97.5 51.5t-65.5 90t-23.5 135q0 63 14 129l103 484h163z " />
<glyph unicode="&#x4b9;" horiz-adv-x="972" d="M385 360q-53 0 -98 11.5t-78 37t-51.5 68.5t-18.5 107q0 51 17 129l67 311h156l-64 -295q-16 -70 -16 -115q0 -53 24.5 -84.5t88.5 -37.5l59 272h123l-55 -262q53 10 91 29.5t62 37.5l99 455h153l-217 -1024h-154l91 430q-23 -14 -62 -30.5t-92 -26.5l-49 -234h-123z" />
<glyph unicode="&#x4ba;" horiz-adv-x="1179" d="M788 0l99 463q12 57 12 106q0 186 -194 187q-92 0 -176.5 -29t-143.5 -65l-139 -662h-164l305 1434h164l-133 -619q57 31 142 61.5t198 30.5q61 0 117.5 -16.5t98.5 -51t67.5 -91t25.5 -138.5q0 -59 -14 -125l-101 -485h-164z" />
<glyph unicode="&#x4bb;" horiz-adv-x="1083" d="M698 0l123 584q12 61 20.5 109t8.5 85q0 76 -31 108t-96 32q-53 0 -108.5 -28t-106.5 -71t-91 -96t-61 -102l-129 -621h-153l303 1434h153l-127 -586h9q27 33 64.5 67.5t86.5 64.5t106.5 49.5t125.5 19.5q100 0 157.5 -48.5t57.5 -175.5q0 -86 -27 -207l-131 -618h-154z " />
<glyph unicode="&#x4bc;" horiz-adv-x="1507" d="M596 649q-6 -59 -6 -112q0 -94 19.5 -170t61.5 -130.5t107.5 -84t155.5 -29.5q43 0 88 8t86 21.5t77 30t60 34.5l15 -137q-66 -43 -145 -74t-200 -31q-236 0 -360.5 138.5t-124.5 412.5q0 57 6 123h-74q-111 0 -175 55.5t-64 167.5q0 70 26.5 118t55.5 71h157 q-35 -27 -60.5 -65t-25.5 -78q0 -16 2.5 -37t16.5 -40.5t48 -32.5t95 -13h19q37 178 105.5 304t156.5 205.5t192.5 116.5t214.5 37q98 0 172 -32.5t123 -92t73 -140.5t24 -175q0 -86 -18.5 -178t-55.5 -191h-848zM1321 797q18 55 29.5 112.5t11.5 114.5t-13.5 109.5 t-43 92.5t-76.5 62.5t-117 22.5q-180 0 -305 -129t-184 -385h698z" />
<glyph unicode="&#x4bd;" horiz-adv-x="1103" d="M950 100q-72 -61 -169 -93t-195 -32q-164 0 -247 94.5t-83 262.5q0 86 12 164h-12q-68 0 -113 19.5t-71.5 50t-37.5 68.5t-11 73q0 76 39.5 134t91.5 89h155q-23 -14 -49.5 -33.5t-49 -45.5t-36.5 -56.5t-14 -67.5q0 -43 26.5 -79t110.5 -36q33 104 86 185.5t119.5 136.5 t143.5 85t155 30q74 0 128 -20.5t89 -54.5t51 -78t16 -93q0 -145 -141 -228t-412 -83q-25 0 -51 1t-55 3q-8 -39 -12 -74t-4 -62q2 -113 52 -183.5t159 -70.5q90 0 164.5 30t115.5 63zM776 918q-113 0 -195.5 -77t-125.5 -231q78 0 161.5 4t152.5 21.5t114 55.5t45 106 q0 20 -7.5 41.5t-23.5 39t-46 29t-75 11.5z" />
<glyph unicode="&#x4be;" horiz-adv-x="1507" d="M596 649q-6 -59 -6 -112q0 -94 19.5 -170t61.5 -130.5t107.5 -84t155.5 -29.5q43 0 88 8t86 21.5t77 30t60 34.5l15 -137q-66 -43 -144 -73t-194 -32l-64 -342h-151l86 353q-178 33 -270.5 168t-92.5 372q0 57 6 123h-74q-111 0 -175 55.5t-64 167.5q0 70 26.5 118 t55.5 71h157q-35 -27 -60.5 -65t-25.5 -78q0 -16 2.5 -37t16.5 -40.5t48 -32.5t95 -13h19q37 178 105.5 304t156.5 205.5t192.5 116.5t214.5 37q98 0 172 -32.5t123 -92t73 -140.5t24 -175q0 -86 -18.5 -178t-55.5 -191h-848zM1321 797q18 55 29.5 112.5t11.5 114.5 t-13.5 109.5t-43 92.5t-76.5 62.5t-117 22.5q-180 0 -305 -129t-184 -385h698z" />
<glyph unicode="&#x4bf;" horiz-adv-x="1103" d="M950 100q-63 -53 -144 -86.5t-167 -42.5l-64 -338h-151l86 342q-127 23 -190.5 116t-63.5 241q0 86 12 164h-12q-68 0 -113 19.5t-71.5 50t-37.5 68.5t-11 73q0 76 39.5 134t91.5 89h155q-23 -14 -49.5 -33.5t-49 -45.5t-36.5 -56.5t-14 -67.5q0 -43 26.5 -79t110.5 -36 q33 104 86 185.5t119.5 136.5t143.5 85t155 30q74 0 128 -20.5t89 -54.5t51 -78t16 -93q0 -145 -141 -228t-412 -83q-25 0 -51 1t-57 3q-8 -39 -11 -74t-3 -62q2 -113 52 -183.5t159 -70.5q90 0 164.5 30t115.5 63zM776 918q-113 0 -195.5 -77t-125.5 -231q78 0 161.5 4 t152.5 21.5t114 55.5t45 106q0 20 -7.5 41.5t-23.5 39t-46 29t-75 11.5z" />
<glyph unicode="&#x4c0;" horiz-adv-x="567" d="M430 1434h164l-303 -1434h-164z" />
<glyph unicode="&#x4c3;" horiz-adv-x="1169" d="M829 379q0 92 -22.5 147.5t-66.5 86t-111.5 41t-155.5 10.5h-88l-139 -664h-164l303 1434h164l-143 -668l81 29l588 639h203l-555 -586l-127 -78h121q43 -4 92 -20.5t92 -56.5t71.5 -106.5t28.5 -168.5v-47q0 -154 -37.5 -298.5t-110.5 -256t-181.5 -179t-249.5 -67.5 h-23l33 151q102 2 177 58.5t124 148.5t72.5 210t23.5 241z" />
<glyph unicode="&#x4c4;" horiz-adv-x="960" d="M631 33q10 47 15 87t5 75q0 129 -61.5 188t-177.5 59h-93l-92 -442h-153l217 1024h153l-104 -481l80 28l409 453h183l-394 -430l-86 -53l84 -13q53 -12 90 -43.5t59.5 -74.5t33 -95.5t10.5 -105.5q0 -70 -16 -141l-9 -35q-27 -125 -71.5 -213t-101 -144.5t-124 -82 t-141.5 -25.5q-33 0 -70 6l31 131q10 -2 18 -2h15q104 0 181 85t110 245z" />
<glyph unicode="&#x4c5;" horiz-adv-x="1228" d="M1075 1282h-401q-94 -408 -181 -679t-184 -425q-63 -100 -131.5 -144t-144.5 -44q-35 0 -65.5 5t-53.5 15l55 148q20 -6 45 -6q39 0 79 24.5t81 85.5q37 55 80 147.5t90 232.5t98.5 334.5t106.5 457.5h160h561l-273 -1291h197l-10 -45l-254 -362h-105l146 264h-168z" />
<glyph unicode="&#x4c6;" horiz-adv-x="1036" d="M795 893h-275q-53 -219 -100 -387t-101.5 -281.5t-120 -173t-157.5 -59.5q-35 0 -62.5 4t-46.5 14l48 131q25 -6 47 -6q45 0 85 33t83 129t93 270t118 457h143h426l-187 -881h205l-10 -45l-254 -362h-104l145 264h-12h-154z" />
<glyph unicode="&#x4c7;" horiz-adv-x="1308" d="M1059 2q-49 -252 -126 -344t-216 -92h-34q-17 0 -36 4l31 143h14q53 0 86 17.5t53.5 53.5t33.5 90l30 126l139 657h-651l-137 -657h-164l303 1434h164l-131 -625h649l131 625h164z" />
<glyph unicode="&#x4c8;" horiz-adv-x="1069" d="M766 451h-442l-97 -451h-153l217 1024h153l-90 -426h443l90 426h153l-217 -1024q-16 -86 -38.5 -155.5t-53.5 -123.5q-47 -80 -108.5 -117.5t-153.5 -37.5q-14 0 -28.5 1t-28.5 3l30 141q55 0 91 17.5t60.5 52.5t42 90t34.5 129z" />
<glyph unicode="&#x4c9;" horiz-adv-x="1320" d="M1034 657h-651l-137 -657h-164l303 1434h164l-131 -625h649l131 625h164l-272 -1291h194l-10 -45l-254 -362h-105l146 264h-166z" />
<glyph unicode="&#x4ca;" horiz-adv-x="1093" d="M764 451h-442l-97 -451h-153l217 1024h153l-90 -426h443l90 426h153l-186 -881h199l-11 -45l-254 -362h-104l145 264h-159z" />
<glyph unicode="&#x4cb;" horiz-adv-x="1179" d="M526 1434l-98 -461q-6 -29 -10 -56.5t-4 -50.5q0 -188 192 -188q92 0 177 25.5t145 68.5l141 662h164l-303 -1434h-164h-29l-86 -264h-110l86 416h172l98 466q-59 -35 -142 -63.5t-200 -28.5q-61 0 -117.5 15.5t-99.5 51.5t-67.5 92t-24.5 138q0 61 14 127l102 484h164z " />
<glyph unicode="&#x4cc;" horiz-adv-x="962" d="M653 434q-35 -20 -101.5 -43.5t-174.5 -23.5q-115 0 -175.5 45t-60.5 163q0 31 3 66t14 76l65 307h156l-57 -274q-16 -70 -17 -121q0 -59 28.5 -95t104.5 -36q90 0 150.5 26.5t95.5 50.5l94 449h156l-217 -1024h-154h-20l-64 -260h-145l104 397h152z" />
<glyph unicode="&#x4cd;" horiz-adv-x="1554" d="M1333 963l64 215h-8l-115 -197l-492 -647h-49l-235 647l-31 197h-8l-17 -213l-204 -965h-156l305 1434h113l266 -734l31 -159h2l94 164l559 729h145l-274 -1291h195l-11 -45l-254 -362h-104l145 264h-166z" />
<glyph unicode="&#x4ce;" horiz-adv-x="1298" d="M1004 608q0 2 8 34t18 67l25 94h-8l-105 -158l-319 -401h-54l-159 401l-31 158h-8l-27 -193l-129 -610h-143l217 1024h141l174 -459l31 -119h4l84 123l352 455h168l-186 -881h198l-10 -45l-254 -362h-104l145 264h-158z" />
<glyph unicode="&#x4cf;" horiz-adv-x="485" d="M377 1434h155l-303 -1434h-155z" />
<glyph unicode="&#x4d0;" horiz-adv-x="1140" d="M827 397h-499l-222 -397h-174l828 1456h76l206 -1456h-157zM408 545h403l-59 436l-4 217h-3l-92 -221zM674 1782q0 -76 38 -117t105 -41q86 0 141.5 42t77.5 114l150 -35q-37 -111 -133.5 -175.5t-243.5 -64.5q-139 0 -204.5 68.5t-69.5 167.5z" />
<glyph unicode="&#x4d1;" horiz-adv-x="997" d="M848 403q-16 -76 -22.5 -153.5t-6.5 -145.5v-58q0 -28 4 -50h-114l-29 178h-8q-25 -35 -61 -70.5t-79 -64.5t-92 -46.5t-104 -17.5q-244 0 -244 318q0 131 34 266t104.5 243.5t182 178.5t269.5 70q57 0 140 -13.5t155 -36.5zM383 106q49 0 94 24t85 58.5t71 74.5t49 75 l115 553q-61 29 -156 29q-94 0 -166 -55.5t-121 -144.5t-73.5 -201.5t-24.5 -225.5q0 -78 30.5 -132.5t96.5 -54.5zM559 1438q0 -96 40 -132t101 -36q63 0 119.5 39t91.5 127l111 -39q-41 -119 -138.5 -182.5t-211.5 -63.5q-51 0 -97.5 12.5t-81 39t-55 68.5t-20.5 99v19z " />
<glyph unicode="&#x4d2;" horiz-adv-x="1140" d="M827 397h-499l-222 -397h-174l828 1456h76l206 -1456h-157zM408 545h403l-59 436l-4 217h-3l-92 -221zM537 1626q0 41 28.5 68.5t75.5 27.5t75 -27.5t28 -68.5t-28 -67.5t-75 -26.5t-75.5 26.5t-28.5 67.5zM912 1626q0 41 27.5 68.5t74.5 27.5t75.5 -27.5t28.5 -68.5 t-28.5 -67.5t-75.5 -26.5t-74.5 26.5t-27.5 67.5z" />
<glyph unicode="&#x4d3;" horiz-adv-x="997" d="M848 403q-16 -76 -22.5 -153.5t-6.5 -145.5v-58q0 -28 4 -50h-114l-29 178h-8q-25 -35 -61 -70.5t-79 -64.5t-92 -46.5t-104 -17.5q-244 0 -244 318q0 131 34 266t104.5 243.5t182 178.5t269.5 70q57 0 140 -13.5t155 -36.5zM383 106q49 0 94 24t85 58.5t71 74.5t49 75 l115 553q-61 29 -156 29q-94 0 -166 -55.5t-121 -144.5t-73.5 -201.5t-24.5 -225.5q0 -78 30.5 -132.5t96.5 -54.5zM413 1298q0 45 26 75t69 30t69.5 -30t26.5 -75q0 -41 -26.5 -70.5t-69.5 -29.5t-69 29.5t-26 70.5zM788 1300q0 43 25.5 73t68.5 30q45 0 71 -30t26 -73 t-26 -72.5t-71 -29.5q-43 0 -68.5 29.5t-25.5 72.5z" />
<glyph unicode="&#x4d4;" horiz-adv-x="1648" d="M940 1227l-104 -207l-357 -469h322l145 676h-6zM772 403h-407l-304 -403h-188l1108 1434h750l-31 -150h-580l-100 -471h530l-32 -149h-529l-110 -514h589l-30 -150h-588h-164z" />
<glyph unicode="&#x4d5;" horiz-adv-x="1544" d="M360 115q55 0 105.5 26.5t91.5 62.5t70.5 71.5t44.5 58.5l16 139q-23 2 -47.5 3t-46.5 1q-78 0 -146.5 -12t-118.5 -39t-79 -67t-29 -97q0 -78 35.5 -112.5t103.5 -34.5zM680 178q-66 -80 -163 -137t-214 -57q-63 0 -109.5 20.5t-77 54t-45 77.5t-14.5 91q0 104 45 175 t122 113t179.5 60.5t214.5 18.5h47q24 0 46 -2q41 133 41 199t-39 92t-129 26q-33 0 -73 -5t-81 -15t-79 -23.5t-68 -27.5l-25 123q86 47 187.5 63t205.5 16q98 0 160.5 -34.5t77.5 -100.5q66 76 159 110t179 34q152 0 225.5 -67t73.5 -165q0 -109 -50.5 -174t-140.5 -102 t-217 -50.5t-278 -15.5q-6 -35 -10.5 -65.5t-4.5 -59.5q0 -113 57.5 -178.5t194.5 -65.5q66 0 136.5 26t113.5 56l35 -110q-70 -49 -165 -76t-193 -27q-119 0 -200 54.5t-110 148.5h-14zM1202 918q-125 0 -209 -82t-129 -236q100 0 191.5 5t161 24.5t110.5 58.5t41 107 q0 51 -34 87t-132 36z" />
<glyph unicode="&#x4d6;" horiz-adv-x="1044" d="M387 1434h739l-30 -152h-580l-100 -469h530l-31 -151h-530l-109 -510h590l-32 -152h-590h-162zM627 1782q0 -76 38 -117t105 -41q86 0 141.5 42t77.5 114l150 -35q-37 -111 -133.5 -175.5t-243.5 -64.5q-139 0 -204.5 68.5t-69.5 167.5z" />
<glyph unicode="&#x4d7;" horiz-adv-x="948" d="M797 100q-72 -61 -169.5 -93t-195.5 -32q-164 0 -247 94.5t-83 262.5t47.5 301t124 225t174 141.5t199.5 49.5q74 0 128 -20.5t89 -54.5t51.5 -78t16.5 -93q0 -145 -141.5 -228t-411.5 -83q-25 0 -51.5 1t-55.5 3q-8 -39 -12 -74t-4 -62q0 -113 51 -183.5t160 -70.5 q90 0 165 30t116 63zM623 918q-113 0 -196 -77t-126 -231q78 0 162 4t152.5 21.5t113.5 55.5t45 106q0 20 -7 41.5t-23.5 39t-46 29t-74.5 11.5zM553 1438q0 -96 40 -132t101 -36q63 0 119.5 39t91.5 127l111 -39q-41 -119 -138.5 -182.5t-211.5 -63.5q-51 0 -97.5 12.5 t-81 39t-55 68.5t-20.5 99v19z" />
<glyph unicode="&#x4d8;" horiz-adv-x="1222" d="M309 655q-27 -100 -26 -200q0 -70 14 -130.5t47 -105.5t84 -70.5t123 -25.5q94 0 171 39t135 109.5t97 169t60 214.5h-705zM1038 803q2 25 3 49.5t1 46.5q0 88 -16 164t-54 131t-98.5 86t-148.5 31q-43 0 -90 -8.5t-90 -21.5t-80 -28.5t-62 -29.5l-12 137q66 37 152 67.5 t207 30.5q82 0 164.5 -22.5t149 -83t108.5 -165t42 -269.5q0 -186 -43 -356.5t-126.5 -300.5t-210.5 -208t-295 -78q-104 0 -182 33t-131.5 94.5t-80 146.5t-26.5 189q0 82 15.5 173t49.5 192h854z" />
<glyph unicode="&#x4d9;" horiz-adv-x="991" d="M217 952q70 47 148.5 72t199.5 25q98 0 167 -31t112 -81t62.5 -112.5t19.5 -126.5q0 -164 -38 -298t-109.5 -228t-174 -145.5t-231.5 -51.5q-66 0 -122 20.5t-96 55.5t-62.5 83t-22.5 102q0 176 123.5 260t363.5 84q96 0 207 -13q4 29 6 53.5t2 49.5q0 68 -18.5 114.5 t-52 76.5t-77.5 43.5t-94 13.5q-96 0 -163.5 -28t-108.5 -54zM406 106q109 0 197.5 85t129.5 249q-41 8 -87 12.5t-93 4.5q-61 0 -119.5 -9.5t-104.5 -32t-74 -60.5t-28 -93q0 -57 41.5 -106.5t137.5 -49.5z" />
<glyph unicode="&#x4da;" horiz-adv-x="1222" d="M309 655q-27 -100 -26 -200q0 -70 14 -130.5t47 -105.5t84 -70.5t123 -25.5q94 0 171 39t135 109.5t97 169t60 214.5h-705zM1038 803q2 25 3 49.5t1 46.5q0 88 -16 164t-54 131t-98.5 86t-148.5 31q-43 0 -90 -8.5t-90 -21.5t-80 -28.5t-62 -29.5l-12 137q66 37 152 67.5 t207 30.5q82 0 164.5 -22.5t149 -83t108.5 -165t42 -269.5q0 -186 -43 -356.5t-126.5 -300.5t-210.5 -208t-295 -78q-104 0 -182 33t-131.5 94.5t-80 146.5t-26.5 189q0 82 15.5 173t49.5 192h854zM549 1626q0 41 28.5 68.5t75.5 27.5t75 -27.5t28 -68.5t-28 -67.5 t-75 -26.5t-75.5 26.5t-28.5 67.5zM924 1626q0 41 27.5 68.5t74.5 27.5t75.5 -27.5t28.5 -68.5t-28.5 -67.5t-75.5 -26.5t-74.5 26.5t-27.5 67.5z" />
<glyph unicode="&#x4db;" horiz-adv-x="991" d="M217 952q70 47 148.5 72t199.5 25q98 0 167 -31t112 -81t62.5 -112.5t19.5 -126.5q0 -164 -38 -298t-109.5 -228t-174 -145.5t-231.5 -51.5q-66 0 -122 20.5t-96 55.5t-62.5 83t-22.5 102q0 176 123.5 260t363.5 84q96 0 207 -13q4 29 6 53.5t2 49.5q0 68 -18.5 114.5 t-52 76.5t-77.5 43.5t-94 13.5q-96 0 -163.5 -28t-108.5 -54zM406 106q109 0 197.5 85t129.5 249q-41 8 -87 12.5t-93 4.5q-61 0 -119.5 -9.5t-104.5 -32t-74 -60.5t-28 -93q0 -57 41.5 -106.5t137.5 -49.5zM331 1298q0 45 26 75t69 30t69.5 -30t26.5 -75q0 -41 -26.5 -70.5 t-69.5 -29.5t-69 29.5t-26 70.5zM706 1300q0 43 25.5 73t68.5 30q45 0 71 -30t26 -73t-26 -72.5t-71 -29.5q-43 0 -68.5 29.5t-25.5 72.5z" />
<glyph unicode="&#x4dc;" horiz-adv-x="1570" d="M913 1434h154l-141 -668l75 29l527 639h198l-524 -623l-96 -66l82 -83l295 -662h-180l-297 664h-103l-139 -664h-154l146 688l-76 -26l-565 -662h-205l563 641l109 78l-70 72l-272 643h180l258 -643h98zM746 1626q0 41 28.5 68.5t75.5 27.5t75 -27.5t28 -68.5t-28 -67.5 t-75 -26.5t-75.5 26.5t-28.5 67.5zM1121 1626q0 41 27.5 68.5t74.5 27.5t75.5 -27.5t28.5 -68.5t-28.5 -67.5t-75.5 -26.5t-74.5 26.5t-27.5 67.5z" />
<glyph unicode="&#x4dd;" horiz-adv-x="1441" d="M459 461q-37 -137 -81 -227.5t-93 -144.5t-103.5 -76.5t-109.5 -22.5q-25 0 -50.5 4t-50.5 10l41 139q25 -6 49 -6q82 0 154 87t113 294q10 59 16 105.5t6 85.5q0 109 -37 148.5t-94 39.5q-10 0 -20.5 -1t-20.5 -3l-18 127q29 4 53.5 7t46.5 3q115 0 172 -66.5t57 -213.5 q0 -37 -4 -79t-12 -89h201l94 442h154l-97 -442h187q35 131 76.5 217t90 138t100.5 73.5t105 21.5q45 0 89 -12l-35 -131q-10 2 -20.5 3t-20.5 1q-37 0 -71 -16.5t-63.5 -56.5t-56 -105.5t-51.5 -163.5q-12 -51 -19.5 -100.5t-7.5 -96.5q0 -98 32 -166.5t102 -68.5 q23 0 53 10l22 -125q-33 -10 -61.5 -13t-54.5 -3q-70 0 -116 27.5t-73.5 73.5t-39 106.5t-11.5 126.5q0 35 3 69.5t7 69.5h-190l-96 -461h-154l98 461h-190zM620 1298q0 45 26 75t69 30t69.5 -30t26.5 -75q0 -41 -26.5 -70.5t-69.5 -29.5t-69 29.5t-26 70.5zM995 1300 q0 43 25.5 73t68.5 30q45 0 71 -30t26 -73t-26 -72.5t-71 -29.5q-43 0 -68.5 29.5t-25.5 72.5z" />
<glyph unicode="&#x4de;" horiz-adv-x="1054" d="M336 678l31 141h28q37 0 91.5 3t86.5 7q55 6 112.5 25.5t104 54.5t76 86.5t29.5 120.5q0 92 -65.5 143.5t-178.5 51.5q-104 0 -173.5 -17.5t-127.5 -38.5l-16 134q47 23 142 46t220 23q78 0 145.5 -19.5t118 -56t79 -92t28.5 -129.5q0 -88 -27.5 -155.5t-73.5 -116.5 t-107.5 -79t-129.5 -40v-8q43 -10 85 -31.5t76 -58.5t54.5 -91.5t20.5 -129.5q0 -135 -55.5 -226.5t-143.5 -146.5t-195.5 -79t-214.5 -24q-129 0 -212 15.5t-132 38.5l74 149q41 -23 117 -39t190 -16q70 0 141.5 17.5t129 56.5t93.5 101t36 153q0 61 -21.5 102t-58.5 67.5 t-84 39t-97 16.5q-23 2 -45 2h-45h-106zM441 1626q0 41 28.5 68.5t75.5 27.5t75 -27.5t28 -68.5t-28 -67.5t-75 -26.5t-75.5 26.5t-28.5 67.5zM816 1626q0 41 27.5 68.5t74.5 27.5t75.5 -27.5t28.5 -68.5t-28.5 -67.5t-75.5 -26.5t-74.5 26.5t-27.5 67.5z" />
<glyph unicode="&#x4df;" horiz-adv-x="856" d="M246 459l26 127h136q35 0 74.5 16t73.5 45t56.5 65t22.5 76q0 66 -39 92.5t-143 26.5q-74 0 -128.5 -16.5t-101.5 -38.5l-33 121q66 35 145 50t181 15q152 0 217.5 -54t65.5 -157q0 -53 -18.5 -98t-50.5 -81t-72 -60.5t-83 -38.5v-8q88 -16 124 -66.5t36 -116.5 q0 -90 -36.5 -159.5t-99 -117.5t-147.5 -73.5t-184 -25.5q-82 0 -157.5 20.5t-118.5 52.5l65 123q41 -27 102.5 -46t135.5 -19q119 0 199.5 60t80.5 165q0 61 -49 91t-168 30h-112zM274 1298q0 45 26 75t69 30t69.5 -30t26.5 -75q0 -41 -26.5 -70.5t-69.5 -29.5t-69 29.5 t-26 70.5zM649 1300q0 43 25.5 73t68.5 30q45 0 71 -30t26 -73t-26 -72.5t-71 -29.5q-43 0 -68.5 29.5t-25.5 72.5z" />
<glyph unicode="&#x4e0;" horiz-adv-x="1097" d="M408 123q117 0 198.5 32.5t131.5 83t74 112t24 118.5t-15.5 100t-51.5 72t-95.5 43t-149.5 14h-190l10 56l455 458l104 88l-123 -18h-461l31 152h807l-12 -62l-488 -489l-84 -60v-6l74 17q82 0 149.5 -25t113.5 -68t72 -102t26 -129q0 -115 -38 -213t-116 -170 t-195.5 -112t-275.5 -40q-43 0 -92 5.5t-95 15.5t-85 22.5t-60 28.5l74 150q18 -12 51 -25.5t72 -25t81 -17.5t79 -6z" />
<glyph unicode="&#x4e1;" horiz-adv-x="839" d="M145 -303q78 0 153 26.5t133 75.5t93 119t35 156q0 119 -71.5 168t-241.5 49h-99l11 51l379 461l122 106l-127 -16h-387l29 131h696l-12 -59l-414 -496l-77 -59v-4l63 12q59 0 112.5 -22.5t93.5 -63.5t63.5 -98.5t23.5 -124.5q0 -133 -52.5 -233.5t-135 -170.5 t-186 -104.5t-208.5 -34.5q-88 0 -154.5 15.5t-115.5 41.5l63 125q41 -25 99.5 -38t111.5 -13z" />
<glyph unicode="&#x4e2;" horiz-adv-x="1327" d="M1116 958l49 166h-6l-121 -172l-852 -952h-104l305 1434h164l-207 -975l-51 -156h8l121 168l854 963h104l-303 -1434h-164zM633 1726h614l-27 -127h-616z" />
<glyph unicode="&#x4e3;" horiz-adv-x="1046" d="M436 1024l-143 -682q-12 -55 -12 -102q0 -57 22.5 -95.5t81.5 -38.5q49 0 99.5 25t96.5 63.5t83.5 86t62.5 92.5l137 651h154l-129 -608q-8 -35 -16.5 -85t-15.5 -105.5t-11 -107.5t-4 -91v-27h-121v195h-8q-31 -41 -71 -80t-88 -70t-103.5 -50.5t-116.5 -19.5 q-45 0 -83 10.5t-66.5 36t-45 67.5t-16.5 108q0 72 20 161l140 666h153zM412 1317h575l-27 -127h-577z" />
<glyph unicode="&#x4e4;" horiz-adv-x="1327" d="M1116 958l49 166h-6l-121 -172l-852 -952h-104l305 1434h164l-207 -975l-51 -156h8l121 168l854 963h104l-303 -1434h-164zM627 1626q0 41 28.5 68.5t75.5 27.5t75 -27.5t28 -68.5t-28 -67.5t-75 -26.5t-75.5 26.5t-28.5 67.5zM1002 1626q0 41 27.5 68.5t74.5 27.5 t75.5 -27.5t28.5 -68.5t-28.5 -67.5t-75.5 -26.5t-74.5 26.5t-27.5 67.5z" />
<glyph unicode="&#x4e5;" horiz-adv-x="1046" d="M436 1024l-143 -682q-12 -55 -12 -102q0 -57 22.5 -95.5t81.5 -38.5q49 0 99.5 25t96.5 63.5t83.5 86t62.5 92.5l137 651h154l-129 -608q-8 -35 -16.5 -85t-15.5 -105.5t-11 -107.5t-4 -91v-27h-121v195h-8q-31 -41 -71 -80t-88 -70t-103.5 -50.5t-116.5 -19.5 q-45 0 -83 10.5t-66.5 36t-45 67.5t-16.5 108q0 72 20 161l140 666h153zM432 1298q0 45 26 75t69 30t69.5 -30t26.5 -75q0 -41 -26.5 -70.5t-69.5 -29.5t-69 29.5t-26 70.5zM807 1300q0 43 25.5 73t68.5 30q45 0 71 -30t26 -73t-26 -72.5t-71 -29.5q-43 0 -68.5 29.5 t-25.5 72.5z" />
<glyph unicode="&#x4e6;" horiz-adv-x="1333" d="M145 524q0 188 51.5 358.5t146.5 298.5t229.5 202.5t297.5 74.5q98 0 182.5 -29.5t144.5 -94t94 -167t34 -249.5q0 -193 -51 -364t-143.5 -300t-220.5 -204t-281 -75q-242 0 -363 140.5t-121 408.5zM317 526q0 -193 80 -298t236 -105q115 0 210 63.5t164.5 172t107.5 252 t38 302.5q0 119 -26.5 197t-70.5 122t-100.5 61.5t-113.5 17.5q-117 0 -213.5 -64.5t-165 -173t-107.5 -251t-39 -296.5zM633 1626q0 41 28.5 68.5t75.5 27.5t75 -27.5t28 -68.5t-28 -67.5t-75 -26.5t-75.5 26.5t-28.5 67.5zM1008 1626q0 41 27.5 68.5t74.5 27.5t75.5 -27.5 t28.5 -68.5t-28.5 -67.5t-75.5 -26.5t-74.5 26.5t-27.5 67.5z" />
<glyph unicode="&#x4e7;" horiz-adv-x="1019" d="M102 319q0 162 42 296.5t116 230.5t171 149.5t208 53.5q86 0 146.5 -28t98.5 -76t54 -110.5t16 -129.5q0 -154 -40 -287t-110.5 -231.5t-164.5 -155t-205 -56.5q-92 0 -154.5 30t-102.5 79t-57.5 110.5t-17.5 124.5zM266 356q0 -121 45 -185.5t144 -64.5q68 0 128 48.5 t106 130.5t74 187.5t28 219.5q0 104 -38 165t-145 61q-68 0 -129 -46.5t-109 -124t-76 -179t-28 -212.5zM393 1298q0 45 26 75t69 30t69.5 -30t26.5 -75q0 -41 -26.5 -70.5t-69.5 -29.5t-69 29.5t-26 70.5zM768 1300q0 43 25.5 73t68.5 30q45 0 71 -30t26 -73t-26 -72.5 t-71 -29.5q-43 0 -68.5 29.5t-25.5 72.5z" />
<glyph unicode="&#x4e8;" horiz-adv-x="1333" d="M147 524q0 188 50.5 358.5t143.5 298.5t226 202.5t297 74.5q98 0 183.5 -29.5t146.5 -94t96 -167t35 -249.5q0 -193 -49 -364t-140.5 -300t-217 -204t-279.5 -75q-242 0 -367 140.5t-125 408.5zM319 526q0 -193 84 -298t240 -105q90 0 168 40t139.5 110.5t106.5 168 t69 211.5h-800q-7 -66 -7 -127zM836 1311q-90 0 -168 -39t-139.5 -106.5t-107.5 -161t-71 -203.5h797q6 55 6 112q0 119 -28.5 197t-73.5 122t-101.5 61.5t-113.5 17.5z" />
<glyph unicode="&#x4e9;" horiz-adv-x="1019" d="M102 319q0 162 42 296.5t116 230.5t171 149.5t208 53.5q86 0 146.5 -28t98.5 -76t54 -110.5t16 -129.5q0 -154 -40 -287t-110.5 -231.5t-164.5 -155t-205 -56.5q-92 0 -154.5 30t-102.5 79t-57.5 110.5t-17.5 124.5zM608 918q-51 0 -98 -27t-89 -73t-74 -109.5 t-52 -137.5h487q4 29 6.5 60t2.5 61q0 104 -38.5 165t-144.5 61zM266 356q0 -121 45 -185.5t144 -64.5q49 0 94 26t84 72t70.5 108.5t52.5 136.5h-486q-2 -23 -3 -46.5t-1 -46.5z" />
<glyph unicode="&#x4ea;" horiz-adv-x="1333" d="M147 524q0 188 50.5 358.5t143.5 298.5t226 202.5t297 74.5q98 0 183.5 -29.5t146.5 -94t96 -167t35 -249.5q0 -193 -49 -364t-140.5 -300t-217 -204t-279.5 -75q-242 0 -367 140.5t-125 408.5zM319 526q0 -193 84 -298t240 -105q90 0 168 40t139.5 110.5t106.5 168 t69 211.5h-800q-7 -66 -7 -127zM836 1311q-90 0 -168 -39t-139.5 -106.5t-107.5 -161t-71 -203.5h797q6 55 6 112q0 119 -28.5 197t-73.5 122t-101.5 61.5t-113.5 17.5zM633 1626q0 41 28.5 68.5t75.5 27.5t75 -27.5t28 -68.5t-28 -67.5t-75 -26.5t-75.5 26.5t-28.5 67.5z M1008 1626q0 41 27.5 68.5t74.5 27.5t75.5 -27.5t28.5 -68.5t-28.5 -67.5t-75.5 -26.5t-74.5 26.5t-27.5 67.5z" />
<glyph unicode="&#x4eb;" horiz-adv-x="1019" d="M102 319q0 162 42 296.5t116 230.5t171 149.5t208 53.5q86 0 146.5 -28t98.5 -76t54 -110.5t16 -129.5q0 -154 -40 -287t-110.5 -231.5t-164.5 -155t-205 -56.5q-92 0 -154.5 30t-102.5 79t-57.5 110.5t-17.5 124.5zM608 918q-51 0 -98 -27t-89 -73t-74 -109.5 t-52 -137.5h487q4 29 6.5 60t2.5 61q0 104 -38.5 165t-144.5 61zM266 356q0 -121 45 -185.5t144 -64.5q49 0 94 26t84 72t70.5 108.5t52.5 136.5h-486q-2 -23 -3 -46.5t-1 -46.5zM393 1298q0 45 26 75t69 30t69.5 -30t26.5 -75q0 -41 -26.5 -70.5t-69.5 -29.5t-69 29.5 t-26 70.5zM768 1300q0 43 25.5 73t68.5 30q45 0 71 -30t26 -73t-26 -72.5t-71 -29.5q-43 0 -68.5 29.5t-25.5 72.5z" />
<glyph unicode="&#x4ec;" horiz-adv-x="1134" d="M393 803h570q2 23 3 47t1 47q0 195 -88 304.5t-281 109.5q-92 0 -161.5 -20.5t-121.5 -47.5l-12 135q70 37 151 58.5t183 21.5q147 0 242.5 -49t150.5 -126t77.5 -172t22.5 -187q0 -201 -48 -374t-146 -300t-249.5 -201t-360.5 -74q-94 0 -174 14.5t-129 37.5l75 149 q41 -23 112 -38t148 -15q104 0 199.5 35t174.5 103.5t133.5 167.5t76.5 228h-577zM420 1626q0 41 28.5 68.5t75.5 27.5t75 -27.5t28 -68.5t-28 -67.5t-75 -26.5t-75.5 26.5t-28.5 67.5zM795 1626q0 41 27.5 68.5t74.5 27.5t75.5 -27.5t28.5 -68.5t-28.5 -67.5t-75.5 -26.5 t-74.5 26.5t-27.5 67.5z" />
<glyph unicode="&#x4ed;" horiz-adv-x="901" d="M254 580h408q4 20 6 41.5t2 46.5q0 129 -51.5 189.5t-145.5 60.5t-156.5 -22t-103.5 -46l-41 106q70 45 153 69t185 24q84 0 144.5 -25t100.5 -69t59.5 -103t19.5 -129q0 -209 -47.5 -352.5t-125 -230.5t-177 -126t-201.5 -39q-207 0 -301 64l67 125q39 -27 103.5 -42.5 t128.5 -15.5q141 0 236 88.5t134 260.5h-424zM223 1298q0 45 26 75t69 30t69.5 -30t26.5 -75q0 -41 -26.5 -70.5t-69.5 -29.5t-69 29.5t-26 70.5zM598 1300q0 43 25.5 73t68.5 30q45 0 71 -30t26 -73t-26 -72.5t-71 -29.5q-43 0 -68.5 29.5t-25.5 72.5z" />
<glyph unicode="&#x4ee;" horiz-adv-x="1077" d="M602 678l12 -182h9l77 188l420 750h180l-542 -932l-146 -244q-61 -98 -113.5 -157.5t-102.5 -85t-113 -25.5q-66 0 -105 13t-67 32l79 141q33 -20 58.5 -27.5t54.5 -7.5q53 0 104.5 67.5t110.5 172.5l-278 1053h174zM494 1726h614l-27 -127h-616z" />
<glyph unicode="&#x4ef;" horiz-adv-x="899" d="M397 360l11 -196h10l78 198l340 662h163l-483 -913l-105 -196q-52 -95 -107.5 -170t-115 -120t-122.5 -45q-35 0 -60.5 4t-46.5 15l49 141q23 -8 49 -8q59 0 119 61.5t133 206.5l-176 1024h164zM324 1317h575l-27 -127h-577z" />
<glyph unicode="&#x4f0;" horiz-adv-x="1077" d="M602 678l12 -182h9l77 188l420 750h180l-542 -932l-146 -244q-61 -98 -113.5 -157.5t-102.5 -85t-113 -25.5q-66 0 -105 13t-67 32l79 141q33 -20 58.5 -27.5t54.5 -7.5q53 0 104.5 67.5t110.5 172.5l-278 1053h174zM537 1626q0 41 28.5 68.5t75.5 27.5t75 -27.5 t28 -68.5t-28 -67.5t-75 -26.5t-75.5 26.5t-28.5 67.5zM912 1626q0 41 27.5 68.5t74.5 27.5t75.5 -27.5t28.5 -68.5t-28.5 -67.5t-75.5 -26.5t-74.5 26.5t-27.5 67.5z" />
<glyph unicode="&#x4f1;" horiz-adv-x="899" d="M397 360l11 -196h10l78 198l340 662h163l-483 -913l-105 -196q-52 -95 -107.5 -170t-115 -120t-122.5 -45q-35 0 -60.5 4t-46.5 15l49 141q23 -8 49 -8q59 0 119 61.5t133 206.5l-176 1024h164zM354 1298q0 45 26 75t69 30t69.5 -30t26.5 -75q0 -41 -26.5 -70.5 t-69.5 -29.5t-69 29.5t-26 70.5zM729 1300q0 43 25.5 73t68.5 30q45 0 71 -30t26 -73t-26 -72.5t-71 -29.5q-43 0 -68.5 29.5t-25.5 72.5z" />
<glyph unicode="&#x4f2;" horiz-adv-x="1077" d="M602 678l12 -182h9l77 188l420 750h180l-542 -932l-146 -244q-61 -98 -113.5 -157.5t-102.5 -85t-113 -25.5q-66 0 -105 13t-67 32l79 141q33 -20 58.5 -27.5t54.5 -7.5q53 0 104.5 67.5t110.5 172.5l-278 1053h174zM741 1741h181l-7 -33l-235 -190h-111zM1057 1741h190 l-6 -33l-319 -190h-111z" />
<glyph unicode="&#x4f3;" horiz-adv-x="899" d="M397 360l11 -196h10l78 198l340 662h163l-483 -913l-105 -196q-52 -95 -107.5 -170t-115 -120t-122.5 -45q-35 0 -60.5 4t-46.5 15l49 141q23 -8 49 -8q59 0 119 61.5t133 206.5l-176 1024h164zM539 1434h151l-6 -33l-186 -232h-82zM823 1434h166l-6 -33l-268 -232h-90z " />
<glyph unicode="&#x4f4;" horiz-adv-x="1179" d="M526 1434l-98 -461q-6 -29 -10 -56.5t-4 -50.5q0 -188 192 -188q92 0 177 25.5t145 68.5l141 662h164l-303 -1434h-164l131 618q-59 -35 -142 -63.5t-200 -28.5q-61 0 -117.5 15.5t-99.5 51.5t-67.5 92t-24.5 138q0 61 14 127l102 484h164zM565 1626q0 41 28.5 68.5 t75.5 27.5t75 -27.5t28 -68.5t-28 -67.5t-75 -26.5t-75.5 26.5t-28.5 67.5zM940 1626q0 41 27.5 68.5t74.5 27.5t75.5 -27.5t28.5 -68.5t-28.5 -67.5t-75.5 -26.5t-74.5 26.5t-27.5 67.5z" />
<glyph unicode="&#x4f5;" horiz-adv-x="962" d="M379 1024l-60 -279q-14 -72 -14 -122q0 -59 27.5 -95t103.5 -36q90 0 149.5 25.5t94.5 49.5l98 457h156l-217 -1024h-156l90 430q-35 -20 -100.5 -45t-163.5 -25q-55 0 -100 11.5t-77 37t-50.5 68.5t-18.5 107q-6 74 82 440h156zM352 1298q0 45 26 75t69 30t69.5 -30 t26.5 -75q0 -41 -26.5 -70.5t-69.5 -29.5t-69 29.5t-26 70.5zM727 1300q0 43 25.5 73t68.5 30q45 0 71 -30t26 -73t-26 -72.5t-71 -29.5q-43 0 -68.5 29.5t-25.5 72.5z" />
<glyph unicode="&#x4f6;" horiz-adv-x="860" d="M387 1434h727l-31 -152h-567l-240 -1130h179l-88 -416h-111l25 264h-35h-164z" />
<glyph unicode="&#x4f7;" horiz-adv-x="843" d="M551 14q-78 -35 -174 -39q-100 0 -162.5 28t-98.5 69t-48.5 88t-12.5 86q0 98 43 159.5t108.5 102.5t141.5 67.5t141.5 54t108.5 63.5t43 95q0 66 -36 92.5t-124 26.5q-78 0 -134 -17.5t-101 -39.5l-31 121q66 35 143.5 51t163.5 16q82 0 136.5 -18.5t87 -49t46 -71.5 t13.5 -86q0 -98 -43 -158.5t-108.5 -98.5t-141.5 -62.5t-141.5 -53t-108.5 -68.5t-43 -108q0 -72 46 -115t122 -43t150.5 28t113.5 56l51 -90l-96 -360h-123z" />
<glyph unicode="&#x4f8;" horiz-adv-x="1501" d="M1391 1434h163l-303 -1434h-164zM383 1434h164l-117 -557q33 6 79 11t93 5q84 0 156.5 -22.5t126 -67.5t83 -111.5t29.5 -154.5q0 -147 -52 -253t-139 -172.5t-200.5 -97t-234.5 -30.5q-49 0 -129 4q-92 8 -160 26zM416 131q80 0 154.5 24.5t131 71.5t90 119t33.5 168 q0 119 -71.5 175t-210.5 56q-35 0 -80 -6t-68 -12l-121 -584q29 -6 62 -9t80 -3zM703 1626q0 41 28.5 68.5t75.5 27.5t75 -27.5t28 -68.5t-28 -67.5t-75 -26.5t-75.5 26.5t-28.5 67.5zM1078 1626q0 41 27.5 68.5t74.5 27.5t75.5 -27.5t28.5 -68.5t-28.5 -67.5t-75.5 -26.5 t-74.5 26.5t-27.5 67.5z" />
<glyph unicode="&#x4f9;" horiz-adv-x="1308" d="M285 240q-2 -10 -3 -18.5t-1 -16.5q0 -39 21.5 -62.5t70.5 -23.5q61 0 115.5 19.5t95.5 55t64.5 85t23.5 108.5q0 63 -35 98t-137 35q-84 0 -162 -33zM367 621q35 10 92 18t104 8q150 0 211.5 -60.5t61.5 -158.5q0 -106 -44 -188t-115 -138.5t-159 -85t-178 -28.5 q-113 0 -165 47t-52 127q0 39 8 71l178 791h154zM1126 1024h154l-217 -1024h-154zM553 1298q0 45 26 75t69 30t69.5 -30t26.5 -75q0 -41 -26.5 -70.5t-69.5 -29.5t-69 29.5t-26 70.5zM928 1300q0 43 25.5 73t68.5 30q45 0 71 -30t26 -73t-26 -72.5t-71 -29.5 q-43 0 -68.5 29.5t-25.5 72.5z" />
<glyph unicode="&#x4fc;" horiz-adv-x="1204" d="M891 -43q0 51 -21.5 130t-46.5 142l-114 285l-27 123l-78 -123l-420 -514h-198l606 733l-264 701h180l174 -486l25 -119l69 117l393 488h195l-569 -693l174 -438q76 -188 75 -326q0 -115 -26.5 -193.5t-73.5 -125.5t-110.5 -67.5t-137.5 -20.5q-16 0 -34.5 1t-36.5 3 l32 143h23q119 0 165 61.5t46 178.5z" />
<glyph unicode="&#x4fd;" horiz-adv-x="991" d="M739 258q41 -86 52.5 -151.5t11.5 -143.5q0 -92 -31 -163.5t-82 -121t-119.5 -76t-142.5 -26.5q-12 0 -25.5 1t-25.5 3l26 137q10 -2 18 -2h15q94 0 153.5 66.5t59.5 183.5q0 63 -10 112.5t-39 106.5l-59 127l-43 115l-82 -115l-273 -311h-188l461 524l-219 500h178 l123 -283l28 -116l84 116l248 283h189l-435 -492z" />
<glyph unicode="&#x510;" horiz-adv-x="1052" d="M754 678q-23 0 -43.5 -1t-42.5 -3q-66 -4 -133.5 -16.5t-123 -46t-90 -93t-34.5 -153.5q0 -123 78.5 -182.5t218.5 -59.5q82 0 162.5 21.5t127.5 50.5l21 -129q-53 -35 -148.5 -63t-224.5 -28q-47 0 -116.5 14.5t-134 54.5t-110.5 110.5t-46 183.5q0 102 33.5 180t88 131 t123 82t138.5 35v8q-86 27 -137.5 97.5t-51.5 175.5q0 106 47 184t121 128t167 74.5t185 24.5q53 0 104.5 -7t96.5 -17.5t79 -23.5t52 -28l-76 -137q-47 25 -118.5 45.5t-143.5 20.5q-66 0 -127 -15.5t-109 -47t-77 -81t-29 -116.5q0 -57 17.5 -96.5t48.5 -66t71.5 -40.5 t88.5 -23q31 -4 74.5 -5t80.5 -1h29l-29 -141h-108z" />
<glyph unicode="&#x511;" horiz-adv-x="880" d="M524 461q-68 0 -120 -17.5t-88.5 -46t-56 -63.5t-19.5 -72q0 -72 44 -106.5t162 -34.5q72 0 139.5 19.5t119.5 47.5l18 -129q-53 -29 -126 -53t-171 -24q-182 0 -266 66.5t-84 197.5q0 92 62.5 172t203.5 123v8q-59 25 -92 72t-33 122q0 57 25.5 111.5t74 94.5t120 64.5 t163.5 24.5q111 0 183.5 -26.5t123.5 -61.5l-71 -116q-31 23 -90.5 48t-151.5 25q-45 0 -85 -12t-70.5 -35.5t-49 -56.5t-18.5 -74q0 -66 43 -103.5t114 -37.5h136l-27 -127h-113z" />
<glyph unicode="&#x512;" horiz-adv-x="1216" d="M969 0q-47 -244 -126 -339t-218 -95h-34q-17 0 -36 4l31 143h10q53 0 86 15.5t55.5 50.5t36.5 89t31 132l272 1282h-403q-96 -410 -181 -683t-184 -423q-66 -100 -135.5 -143t-140.5 -43q-35 0 -65.5 5t-53.5 15l55 148q12 -4 24.5 -6t24.5 -2q37 0 76 23.5t80 86.5 q37 53 79 145.5t89 233.5t99.5 336.5t107.5 458.5h160h563z" />
<glyph unicode="&#x513;" horiz-adv-x="1003" d="M795 893h-275q-53 -219 -100 -387t-101.5 -281.5t-120 -173t-157.5 -59.5q-35 0 -62.5 4t-46.5 14l48 131q25 -6 47 -6q45 0 85 33t83 129t93 270t118 457h143h426l-217 -1024q-23 -113 -52.5 -193.5t-72.5 -134.5q-88 -106 -227 -106q-14 0 -29 1t-31 3l31 143 q55 0 91 16.5t60.5 52.5t42 90t33.5 128z" />
<glyph unicode="&#x51c;" horiz-adv-x="1613" d="M438 477l-18 -237h2l80 241l481 953h88l76 -957l-19 -237h2l82 241l437 953h168l-689 -1457h-90l-77 961l12 217h-8l-82 -219l-480 -959h-90l-80 1457h168z" />
<glyph unicode="&#x51d;" horiz-adv-x="1402" d="M874 1024l97 -598l8 -197h2l80 201l301 594h156l-551 -1047h-78l-109 676l-2 168h-4l-76 -170l-389 -674h-73l-119 1047h155l64 -596l-4 -199h8l82 203l338 592h114z" />
<glyph unicode="&#x524;" horiz-adv-x="1345" d="M1145 1282h-627l-270 -1282h-164l305 1434h950l-272 -1282h178l-88 -416h-110l24 264h-35h-164z" />
<glyph unicode="&#x525;" horiz-adv-x="1093" d="M655 0l138 647q8 37 14 73t6 64q0 59 -27.5 96.5t-103.5 37.5q-53 0 -104.5 -25t-96.5 -62.5t-80.5 -84t-60.5 -91.5l-135 -655h-154l217 1024h107l-8 -176h8q27 33 63.5 68.5t82.5 64.5t103.5 48.5t127.5 19.5q102 0 161.5 -49.5t59.5 -172.5q0 -61 -19 -147l-118 -549 h176l-107 -391h-125l70 260h-41h-154z" />
<glyph unicode="&#x526;" horiz-adv-x="1247" d="M788 0l99 463q12 57 12 106q0 186 -194 187q-92 0 -176.5 -29t-143.5 -65l-139 -662h-164l305 1434h164l-133 -619q57 31 142 61.5t198 30.5q61 0 117.5 -16.5t98.5 -51t67.5 -91t25.5 -138.5q0 -59 -14 -125l-70 -333h176l-88 -416h-110l24 264h-33h-164z" />
<glyph unicode="&#x527;" horiz-adv-x="1091" d="M821 584q12 61 20.5 109t8.5 85q0 76 -31 108t-96 32q-53 0 -108.5 -28t-106.5 -71t-91 -96t-61 -102l-129 -621h-153l303 1434h153l-127 -586h9q27 33 64.5 67.5t86.5 64.5t106.5 49.5t125.5 19.5q100 0 157.5 -48.5t57.5 -175.5q0 -86 -27 -207l-104 -487h145 l-106 -391h-125l69 260h-164z" />
<glyph unicode="&#x1e30;" horiz-adv-x="1179" d="M489 664h-104l-139 -664h-164l303 1434h164l-143 -668l81 29l588 639h203l-586 -623l-94 -63l80 -82l358 -666h-186zM893 1782h237l-10 -43l-358 -199h-150z" />
<glyph unicode="&#x1e31;" horiz-adv-x="919" d="M434 461h-110l-97 -461h-153l303 1434h153l-186 -873l88 23l369 440h188l-364 -416l-97 -67l78 -80l230 -461h-170zM804 1475h172l-10 -43l-252 -263h-90z" />
<glyph unicode="&#x1e3e;" horiz-adv-x="1544" d="M1333 963l64 215h-8l-115 -197l-492 -647h-49l-235 647l-31 197h-8l-17 -213l-204 -965h-156l305 1434h113l266 -734l31 -159h2l94 164l559 729h145l-305 -1434h-164zM1157 1782h237l-10 -43l-358 -199h-150z" />
<glyph unicode="&#x1e3f;" horiz-adv-x="1562" d="M625 0l123 580q16 72 24 127t8 96q0 55 -20.5 85t-69.5 30q-51 0 -100 -27t-92 -67t-79 -85t-57 -82l-135 -657h-153l217 1024h108l-12 -176h8l71 68q38 36 84 65t100.5 48.5t119.5 19.5q92 0 124 -57.5t32 -160.5q31 39 71.5 78t89 70t101.5 50.5t106 19.5 q94 0 144.5 -44t50.5 -163q0 -86 -31 -228l-129 -614h-153l129 616q12 59 19 106.5t7 82.5q0 55 -22.5 84t-75.5 29q-43 0 -91 -28t-93 -69t-81 -88t-57 -88l-133 -645h-153zM1063 1475h172l-10 -43l-252 -263h-90z" />
<glyph unicode="&#x1e54;" horiz-adv-x="1089" d="M383 1419q78 18 164 24.5t170 6.5q94 0 175 -20.5t140.5 -65.5t93 -115.5t33.5 -169.5q0 -156 -56 -260t-147.5 -166.5t-206 -89t-231.5 -26.5h-32q-22 0 -46 1t-46.5 3t-33.5 4l-114 -545h-164zM682 1303q-47 0 -91 -3.5t-73 -9.5l-125 -596q8 -4 27.5 -5t41 -3t42.5 -2 h31q88 0 169.5 18.5t144 63.5t100.5 116.5t38 180.5q0 74 -24.5 121t-66.5 72.5t-97.5 36t-116.5 10.5zM903 1782h237l-10 -43l-358 -199h-150z" />
<glyph unicode="&#x1e55;" horiz-adv-x="1040" d="M295 1024h106l-10 -176h8q29 37 65 72.5t79 64.5t94 46.5t111 17.5q49 0 92 -15.5t75.5 -51.5t52 -95.5t19.5 -145.5q0 -180 -49 -322.5t-129 -240.5t-179.5 -150.5t-197.5 -52.5q-72 0 -126 13.5t-73 27.5l-90 -426h-153zM690 918q-55 0 -105 -29t-92 -71t-75 -90 t-53 -89l-101 -485q35 -27 72 -37.5t80 -10.5q80 0 152.5 44.5t130 126t91 196.5t33.5 256q0 82 -33.5 135.5t-99.5 53.5zM815 1475h172l-10 -43l-252 -263h-90z" />
<glyph unicode="&#x1e9e;" horiz-adv-x="1300" d="M1038 1235q-29 35 -105.5 57.5t-166.5 22.5q-86 0 -141.5 -34t-91 -89t-57 -127t-38.5 -150l-194 -915h-162l207 979q20 98 55 186t94.5 152.5t149.5 102.5t221 38q168 0 278.5 -51t182.5 -119l-414 -405l-80 -60l-2 -4l70 15q88 0 153.5 -27t108.5 -72t64.5 -107.5 t21.5 -133.5q0 -127 -48 -223.5t-129 -162t-184.5 -99.5t-214.5 -34q-18 0 -51 2.5t-68.5 6.5t-69.5 11t-54 19l59 150q16 -12 44 -19.5t58.5 -12.5t61.5 -7t53 -2q68 0 133.5 19.5t117.5 62.5t85 109.5t33 160.5q0 111 -68.5 167t-242.5 56h-125l24 121z" />
<glyph unicode="&#x2000;" horiz-adv-x="1017" />
<glyph unicode="&#x2001;" horiz-adv-x="2035" />
<glyph unicode="&#x2002;" horiz-adv-x="1017" />
<glyph unicode="&#x2003;" horiz-adv-x="2035" />
<glyph unicode="&#x2004;" horiz-adv-x="677" />
<glyph unicode="&#x2005;" horiz-adv-x="507" />
<glyph unicode="&#x2006;" horiz-adv-x="337" />
<glyph unicode="&#x2007;" horiz-adv-x="337" />
<glyph unicode="&#x2008;" horiz-adv-x="253" />
<glyph unicode="&#x2009;" horiz-adv-x="405" />
<glyph unicode="&#x200a;" horiz-adv-x="112" />
<glyph unicode="&#x2010;" horiz-adv-x="700" d="M162 659h471l-35 -139h-469z" />
<glyph unicode="&#x2011;" horiz-adv-x="700" d="M162 659h471l-35 -139h-469z" />
<glyph unicode="&#x2012;" horiz-adv-x="700" d="M162 659h471l-35 -139h-469z" />
<glyph unicode="&#x2013;" horiz-adv-x="1284" d="M264 659h826l-33 -139h-826z" />
<glyph unicode="&#x2014;" horiz-adv-x="1595" d="M264 659h1137l-33 -139h-1137z" />
<glyph unicode="&#x2018;" horiz-adv-x="380" d="M440 1286q0 -59 -29.5 -89t-80.5 -30q-53 0 -81 37t-28 84q0 70 26.5 124t63.5 92t76 59.5t64 29.5l30 -71q-47 -23 -81.5 -63t-43.5 -93q6 2 19 2q31 0 48 -24.5t17 -57.5z" />
<glyph unicode="&#x2019;" horiz-adv-x="382" d="M266 1348q0 25 11.5 44t28 31.5t35.5 19.5t38 7q61 0 82.5 -30.5t21.5 -88.5q0 -70 -26.5 -123t-63.5 -91t-75.5 -61.5t-63.5 -31.5l-33 70q47 25 82 63.5t45 93.5q-82 5 -82 97z" />
<glyph unicode="&#x201a;" horiz-adv-x="387" d="M49 101q0 25 11.5 44t28 31.5t35.5 19.5t38 7q61 0 82.5 -30.5t21.5 -88.5q0 -70 -26.5 -123t-63.5 -91t-75.5 -61.5t-63.5 -31.5l-33 70q47 25 82 63.5t45 93.5q-82 5 -82 97z" />
<glyph unicode="&#x201c;" horiz-adv-x="665" d="M725 1286q0 -59 -29.5 -89t-80.5 -30q-53 0 -81 37t-28 84q0 70 26.5 124t63.5 92t76 59.5t64 29.5l30 -71q-47 -23 -81.5 -63t-43.5 -93q6 2 19 2q31 0 48 -24.5t17 -57.5zM440 1286q0 -59 -29.5 -89t-80.5 -30q-53 0 -81 37t-28 84q0 70 26.5 124t63.5 92t76 59.5 t64 29.5l30 -71q-47 -23 -81.5 -63t-43.5 -93q6 2 19 2q31 0 48 -24.5t17 -57.5z" />
<glyph unicode="&#x201d;" horiz-adv-x="665" d="M549 1348q0 25 11.5 44t28 31.5t35.5 19.5t38 7q61 0 82.5 -30.5t21.5 -88.5q0 -70 -26.5 -123t-63.5 -91t-75.5 -61.5t-63.5 -31.5l-33 70q47 25 82 63.5t45 93.5q-82 5 -82 97zM266 1348q0 25 11.5 44t28 31.5t35.5 19.5t38 7q61 0 82.5 -30.5t21.5 -88.5 q0 -70 -26.5 -123t-63.5 -91t-75.5 -61.5t-63.5 -31.5l-33 70q47 25 82 63.5t45 93.5q-82 5 -82 97z" />
<glyph unicode="&#x201e;" horiz-adv-x="669" d="M329 101q0 25 11.5 44t28 31.5t35.5 19.5t38 7q61 0 82.5 -30.5t21.5 -88.5q0 -70 -26.5 -123t-63.5 -91t-75.5 -61.5t-63.5 -31.5l-33 70q47 25 82 63.5t45 93.5q-82 5 -82 97zM49 101q0 25 11.5 44t28 31.5t35.5 19.5t38 7q61 0 82.5 -30.5t21.5 -88.5 q0 -70 -26.5 -123t-63.5 -91t-75.5 -61.5t-63.5 -31.5l-33 70q47 25 82 63.5t45 93.5q-82 5 -82 97z" />
<glyph unicode="&#x2020;" horiz-adv-x="946" d="M219 1028h254l80 -22v96l70 332h151l-72 -332l-38 -96l90 22h254l-33 -147h-258l-78 22l4 -86l-172 -817l-117 -410h-96l61 412l173 815l38 86l-90 -22h-254z" />
<glyph unicode="&#x2021;" horiz-adv-x="946" d="M494 819l36 84l-90 -22h-254l33 147h254l80 -22q0 2 -1 17t-1 32v45l72 334h151l-72 -334l-38 -94l90 22h254l-33 -147h-258l-78 22l4 -84l-53 -254l-39 -84l86 23h258l-31 -148h-254l-82 23v-49q0 -20 2 -45l-59 -285l-117 -410h-96l61 412l62 283l39 94l-90 -23h-254 l30 148h254l80 -23q0 4 -1 16.5t-1 28.5v39z" />
<glyph unicode="&#x2022;" horiz-adv-x="925" d="M229 637q0 63 22.5 115.5t60.5 90.5t90.5 58.5t111.5 20.5t111.5 -19.5t90.5 -56.5t60.5 -89t22.5 -120t-22.5 -120t-60.5 -89t-90.5 -56.5t-111.5 -19.5t-111.5 19.5t-90.5 56.5t-60.5 89t-22.5 120z" />
<glyph unicode="&#x2026;" horiz-adv-x="1476" d="M1044 94q0 55 33 87t86 32t86 -31.5t33 -87.5q0 -53 -32.5 -86t-86.5 -33q-53 0 -86 33t-33 86zM549 94q0 55 32.5 87t86.5 32q53 0 85.5 -31.5t32.5 -87.5q0 -53 -32.5 -86t-85.5 -33t-86 33t-33 86zM55 94q0 55 33 87t86 32t86 -31.5t33 -87.5q0 -53 -33 -86t-86 -33 t-86 33t-33 86z" />
<glyph unicode="&#x202f;" horiz-adv-x="405" />
<glyph unicode="&#x2030;" horiz-adv-x="2125" d="M123 1004q0 119 36 204.5t91 141t122.5 82t133.5 26.5q117 0 177 -63.5t60 -180.5q0 -111 -30.5 -194.5t-82.5 -141t-123 -87t-149 -29.5q-104 0 -169.5 63.5t-65.5 178.5zM264 1020q0 -66 30 -102.5t89 -36.5q43 0 83 22.5t70.5 64.5t48 102t17.5 136q0 72 -31.5 102.5 t-89.5 30.5q-43 0 -83 -25.5t-69.5 -68.5t-47 -101t-17.5 -124zM713 244q0 119 36 204.5t91 141t122.5 82t133.5 26.5q117 0 177 -63.5t60 -180.5q0 -111 -30.5 -194.5t-82.5 -141t-123 -87t-149 -29.5q-104 0 -169.5 63.5t-65.5 178.5zM854 260q0 -66 30 -102.5t89 -36.5 q43 0 83 22.5t70.5 64.5t48 102t17.5 136q0 72 -31.5 102.5t-89.5 30.5q-43 0 -83 -25.5t-69.5 -68.5t-47 -101t-17.5 -124zM1407 244q0 119 36 204.5t91 141t122.5 82t133.5 26.5q117 0 177 -63.5t60 -180.5q0 -111 -30.5 -194.5t-82.5 -141t-123 -87t-149 -29.5 q-104 0 -169.5 63.5t-65.5 178.5zM1548 260q0 -66 30 -102.5t89 -36.5q43 0 83 22.5t70.5 64.5t48 102t17.5 136q0 72 -31.5 102.5t-89.5 30.5q-43 0 -83 -25.5t-69.5 -68.5t-47 -101t-17.5 -124zM1192 1460l102 -80l-1051 -1405l-102 80z" />
<glyph unicode="&#x2039;" horiz-adv-x="614" d="M115 530l409 471l90 -98l-252 -295l-114 -76l67 -79l140 -289l-113 -86z" />
<glyph unicode="&#x203a;" horiz-adv-x="579" d="M580 549l-410 -471l-92 88l254 297l117 84l-72 86l-139 291l116 77z" />
<glyph unicode="&#x2044;" horiz-adv-x="376" d="M688 1460l107 -74l-998 -1411l-106 74z" />
<glyph unicode="&#x205f;" horiz-adv-x="507" />
<glyph unicode="&#x2081;" horiz-adv-x="772" d="M55 -80h207l111 520l28 74l-63 -57l-166 -92l-43 94l348 211h80l-160 -750h185l-27 -125h-526z" />
<glyph unicode="&#x2082;" horiz-adv-x="772" d="M643 477q0 -66 -29.5 -132t-80 -133t-116 -129.5t-134.5 -119.5l-103 -63v-6l117 32h268l-28 -131h-564l15 68l89 66q52 40 109.5 89.5t112.5 104.5t100 111.5t73 109.5t28 100q0 94 -113 95q-53 0 -106.5 -19.5t-94.5 -44.5l-18 117q57 37 129 57.5t141 20.5 q37 0 74 -9.5t65.5 -32t47 -59.5t18.5 -92z" />
<glyph unicode="&#x2083;" horiz-adv-x="772" d="M248 -96q115 0 169 56t54 134q0 55 -32.5 83t-131.5 28h-106l8 47l237 240l78 53l-98 -13h-248l27 123h497l-14 -67l-254 -254l-53 -37l-2 -4l45 6q78 0 132 -50t54 -136q0 -66 -20.5 -126.5t-65.5 -106.5t-117.5 -72.5t-179.5 -26.5q-70 0 -118 12t-82 27l53 123 q29 -16 72 -27.5t96 -11.5z" />
<glyph unicode="&#x2084;" horiz-adv-x="772" d="M666 -8h-160l-43 -197h-131l43 197h-395l14 76l569 618h88l-121 -573h162zM455 375l34 100h-4l-63 -94l-197 -215l-78 -64l101 11h151z" />
<glyph unicode="&#x20ac;" d="M137 930h152q53 141 129 239.5t166 163t187 95t190 30.5q98 0 166.5 -16.5t117.5 -42.5l-71 -125q-78 45 -244 45q-55 0 -121 -22.5t-131.5 -69.5t-123.5 -120t-103 -177h565l-62 -131h-544q-10 -33 -16.5 -75t-10.5 -73h498l-62 -131h-442l-2 -8q-2 -94 16.5 -165 t58 -122t105.5 -80.5t164 -29.5q66 0 130 18.5t118 46.5l28 -123q-37 -25 -79 -40t-87 -24t-88 -13.5t-79 -4.5q-111 0 -195 38t-140.5 104.5t-85 158t-30.5 207.5l2 37h-201l64 131h145q6 31 13.5 74t15.5 74h-176z" />
<glyph unicode="&#x20b4;" d="M967 649l-29 -127h-446q-25 -23 -54.5 -54.5t-53.5 -66t-39 -72.5t-15 -75q0 -25 7 -50.5t28.5 -45t60.5 -31.5t102 -12q92 0 156 20.5t117 44.5l18 -131q-49 -31 -131 -52.5t-207 -21.5q-160 0 -237.5 69t-77.5 181q0 47 17.5 93.5t43 85t52 70.5t45.5 48h-181l29 127 h795zM201 795l30 127h457q61 55 108.5 126.5t47.5 153.5q0 53 -38 85t-130 32q-78 0 -136.5 -18.5t-107.5 -40.5l-18 133q59 29 125.5 47t165.5 18q160 0 231.5 -56t71.5 -161q0 -55 -14.5 -102t-36 -86t-49 -72t-54.5 -59h172l-29 -127h-796z" />
<glyph unicode="&#x20b6;" d="M147 688h140l155 731q82 18 166 24.5t172 6.5q82 0 154 -21.5t124 -64.5t81.5 -107.5t29.5 -148.5q0 -121 -32.5 -212t-91 -155.5t-139.5 -104.5t-177 -61q-41 -8 -88 -10t-106 -6h-111l-31 -145h332l-27 -127h-333l-60 -287h-164l60 287h-144l29 127h141l33 147h-141z M756 1307q-53 0 -103.5 -3.5t-72.5 -9.5l-127 -594h151q61 0 132 16.5t130.5 55.5t99.5 105.5t40 166.5q0 129 -58.5 196t-191.5 67z" />
<glyph unicode="&#x20b7;" d="M147 688h140l155 731q82 18 166 24.5t172 6.5q82 0 154 -21.5t124 -64.5t81.5 -107.5t29.5 -148.5q0 -121 -32.5 -212t-91 -155.5t-139.5 -104.5t-177 -61q-41 -8 -88 -10t-106 -6h-111l-31 -145h332l-27 -127h-333l-60 -287h-164l60 287h-144l29 127h141l33 147h-141z M756 1307q-53 0 -103.5 -3.5t-72.5 -9.5l-127 -594h151q61 0 132 16.5t130.5 55.5t99.5 105.5t40 166.5q0 129 -58.5 196t-191.5 67z" />
<glyph unicode="&#x20b9;" d="M147 688h140l155 731q82 18 166 24.5t172 6.5q82 0 154 -21.5t124 -64.5t81.5 -107.5t29.5 -148.5q0 -121 -32.5 -212t-91 -155.5t-139.5 -104.5t-177 -61q-41 -8 -88 -10t-106 -6h-111l-31 -145h332l-27 -127h-333l-60 -287h-164l60 287h-144l29 127h141l33 147h-141z M756 1307q-53 0 -103.5 -3.5t-72.5 -9.5l-127 -594h151q61 0 132 16.5t130.5 55.5t99.5 105.5t40 166.5q0 129 -58.5 196t-191.5 67z" />
<glyph unicode="&#x20ba;" d="M147 688h140l155 731q82 18 166 24.5t172 6.5q82 0 154 -21.5t124 -64.5t81.5 -107.5t29.5 -148.5q0 -121 -32.5 -212t-91 -155.5t-139.5 -104.5t-177 -61q-41 -8 -88 -10t-106 -6h-111l-31 -145h332l-27 -127h-333l-60 -287h-164l60 287h-144l29 127h141l33 147h-141z M756 1307q-53 0 -103.5 -3.5t-72.5 -9.5l-127 -594h151q61 0 132 16.5t130.5 55.5t99.5 105.5t40 166.5q0 129 -58.5 196t-191.5 67z" />
<glyph unicode="&#x20bb;" d="M147 688h140l155 731q82 18 166 24.5t172 6.5q82 0 154 -21.5t124 -64.5t81.5 -107.5t29.5 -148.5q0 -121 -32.5 -212t-91 -155.5t-139.5 -104.5t-177 -61q-41 -8 -88 -10t-106 -6h-111l-31 -145h332l-27 -127h-333l-60 -287h-164l60 287h-144l29 127h141l33 147h-141z M756 1307q-53 0 -103.5 -3.5t-72.5 -9.5l-127 -594h151q61 0 132 16.5t130.5 55.5t99.5 105.5t40 166.5q0 129 -58.5 196t-191.5 67z" />
<glyph unicode="&#x20bc;" d="M147 688h140l155 731q82 18 166 24.5t172 6.5q82 0 154 -21.5t124 -64.5t81.5 -107.5t29.5 -148.5q0 -121 -32.5 -212t-91 -155.5t-139.5 -104.5t-177 -61q-41 -8 -88 -10t-106 -6h-111l-31 -145h332l-27 -127h-333l-60 -287h-164l60 287h-144l29 127h141l33 147h-141z M756 1307q-53 0 -103.5 -3.5t-72.5 -9.5l-127 -594h151q61 0 132 16.5t130.5 55.5t99.5 105.5t40 166.5q0 129 -58.5 196t-191.5 67z" />
<glyph unicode="&#x20bd;" d="M147 688h140l155 731q82 18 166 24.5t172 6.5q82 0 154 -21.5t124 -64.5t81.5 -107.5t29.5 -148.5q0 -121 -32.5 -212t-91 -155.5t-139.5 -104.5t-177 -61q-41 -8 -88 -10t-106 -6h-111l-31 -145h332l-27 -127h-333l-60 -287h-164l60 287h-144l29 127h141l33 147h-141z M756 1307q-53 0 -103.5 -3.5t-72.5 -9.5l-127 -594h151q61 0 132 16.5t130.5 55.5t99.5 105.5t40 166.5q0 129 -58.5 196t-191.5 67z" />
<glyph unicode="&#x20be;" d="M147 688h140l155 731q82 18 166 24.5t172 6.5q82 0 154 -21.5t124 -64.5t81.5 -107.5t29.5 -148.5q0 -121 -32.5 -212t-91 -155.5t-139.5 -104.5t-177 -61q-41 -8 -88 -10t-106 -6h-111l-31 -145h332l-27 -127h-333l-60 -287h-164l60 287h-144l29 127h141l33 147h-141z M756 1307q-53 0 -103.5 -3.5t-72.5 -9.5l-127 -594h151q61 0 132 16.5t130.5 55.5t99.5 105.5t40 166.5q0 129 -58.5 196t-191.5 67z" />
<glyph unicode="&#x20bf;" d="M147 688h140l155 731q82 18 166 24.5t172 6.5q82 0 154 -21.5t124 -64.5t81.5 -107.5t29.5 -148.5q0 -121 -32.5 -212t-91 -155.5t-139.5 -104.5t-177 -61q-41 -8 -88 -10t-106 -6h-111l-31 -145h332l-27 -127h-333l-60 -287h-164l60 287h-144l29 127h141l33 147h-141z M756 1307q-53 0 -103.5 -3.5t-72.5 -9.5l-127 -594h151q61 0 132 16.5t130.5 55.5t99.5 105.5t40 166.5q0 129 -58.5 196t-191.5 67z" />
</font>
</defs>
</svg>
